999
DXF generated by OpenJsCad
  0
SECTION
  2
HEADER
  0
ENDSEC
  0
SECTION
  2
TABLES
  0
TABLE
  2
LTYPE
  70
1
  0
LTYPE
  2
CONTINUOUS
  3
Solid Line
  72
65
  73
0
  40
0.0
  0
ENDTAB
  0
TABLE
  2
LAYER
  70
1
  0
LAYER
  2
OpenJsCad
  62
7
  6
continuous
  0
ENDTAB
  0
TABLE
  2
STYLE
  70
0
  0
ENDTAB
  0
TABLE
  2
VIEW
  70
0
  0
ENDTAB
  0
ENDSEC
  0
SECTION
  2
BLOCKS
  0
ENDSEC
  0
SECTION
  2
ENTITIES
  0
LWPOLYLINE
  8
OpenJsCad
  90
1141
  70
1
 10
6.352324032412161
 20
-3.811995370823148
 30
0.0
 10
6.41580057280101
 20
-3.704164187773618
 30
0.0
 10
6.477446846447607
 20
-3.595276299727764
 30
0.0
 10
6.537245267218627
 20
-3.485362769664858
 30
0.0
 10
6.5884588156540405
 20
-3.387319634702113
 30
0.0
 10
6.548537305594659
 20
-3.3165952966115677
 30
0.0
 10
6.495884299047674
 20
-3.2287691088153716
 30
0.0
 10
6.443215338464472
 20
-3.145914469400422
 30
0.0
 10
6.390753065699631
 20
-3.0679695799303843
 30
0.0
 10
6.338716812892386
 20
-2.994864434523611
 30
0.0
 10
6.287322326469428
 20
-2.9265209524207076
 30
0.0
 10
6.236781495863405
 20
-2.8628531193483693
 30
0.0
 10
6.1873020872160955
 20
-2.803767137520099
 30
0.0
 10
6.139087482332294
 20
-2.7491615841095784
 30
0.0
 10
6.092336423145696
 20
-2.6989275780246538
 30
0.0
 10
6.04724276196246
 20
-2.6529489548118397
 30
0.0
 10
6.003995217637453
 20
-2.6111024494081105
 30
0.0
 10
5.962777138233053
 20
-2.5732578868498304
 30
0.0
 10
5.923766269830265
 20
-2.5392783801790006
 30
0.0
 10
5.887134532388132
 20
-2.5090205359763043
 30
0.0
 10
5.853047802358472
 20
-2.4823346668178807
 30
0.0
 10
5.821665702528895
 20
-2.45906501066833
 30
0.0
 10
5.793141399256742
 20
-2.439049956933097
 30
0.0
 10
5.76762140724568
 20
-2.4221222788938075
 30
0.0
 10
5.760449483509144
 20
-2.417630883015621
 30
0.0
 10
5.727783615176868
 20
-2.4156004846330914
 30
0.0
 10
5.636581741213385
 20
-2.400512835329757
 30
0.0
 10
5.550113124514484
 20
-2.3824184760411655
 30
0.0
 10
5.468469721014068
 20
-2.3615552989041158
 30
0.0
 10
5.391734265811623
 20
-2.3381638722413474
 30
0.0
 10
5.319980198115581
 20
-2.312487120613781
 30
0.0
 10
5.25327159662316
 20
-2.2847700028309297
 30
0.0
 10
5.191663125391849
 20
-2.2552591882425723
 30
0.0
 10
5.135199990241861
 20
-2.224202731660188
 30
0.0
 10
5.083917905723016
 20
-2.191849747229438
 30
0.0
 10
5.037843072733582
 20
-2.1584500813899608
 30
0.0
 10
4.99699208430144
 20
-2.1242542113394762
 30
0.0
 10
4.961372335892307
 20
-2.0895117904648286
 30
0.0
 10
4.930981205372748
 20
-2.054473590583954
 30
0.0
 10
4.905806920932887
 20
-2.019388861479264
 30
0.0
 10
4.885828152960918
 20
-1.9845062024195508
 30
0.0
 10
4.871014126285714
 20
-1.95007302624997
 30
0.0
 10
4.861324715701606
 20
-1.9163351457419657
 30
0.0
 10
4.85671047602661
 20
-1.883536521566858
 30
0.0
 10
4.857112722155156
 20
-1.8519189268370182
 30
0.0
 10
4.8624636117299875
 20
-1.8217216310173763
 30
0.0
 10
4.916563449581972
 20
-1.6689484019304734
 30
0.0
 10
4.958566642081017
 20
-1.5396758677336357
 30
0.0
 10
4.997171480738991
 20
-1.4093481165760307
 30
0.0
 10
5.0323515076749255
 20
-1.2780544686388164
 30
0.0
 10
5.064082612259183
 20
-1.1458849060086864
 30
0.0
 10
5.092343047239245
 20
-1.0129300110162243
 30
0.0
 10
5.121877828244332
 20
-0.8535745947809306
 30
0.0
 10
5.132342469850627
 20
-0.8247475247199986
 30
0.0
 10
5.147802911848493
 20
-0.7971647613816805
 30
0.0
 10
5.1681982727137425
 20
-0.7710674394733057
 30
0.0
 10
5.193458488681278
 20
-0.7466942831754736
 30
0.0
 10
5.22350440020165
 20
-0.7242812911808382
 30
0.0
 10
5.258247848580198
 20
-0.7040614246588124
 30
0.0
 10
5.297591782703577
 20
-0.6862642984632159
 30
0.0
 10
5.341430375748498
 20
-0.6711158758965057
 30
0.0
 10
5.389649151758517
 20
-0.6588381673412498
 30
0.0
 10
5.442125121965122
 20
-0.6496489330657794
 30
0.0
 10
5.498726930719755
 20
-0.6437613905070362
 30
0.0
 10
5.559315010894918
 20
-0.641383926329661
 30
0.0
 10
5.623741748602644
 20
-0.6427198135557762
 30
0.0
 10
5.691851657070365
 20
-0.647966934055316
 30
0.0
 10
5.763481559505166
 20
-0.6573175066818975
 30
0.0
 10
5.838460780768589
 20
-0.6709578213337791
 30
0.0
 10
5.9166113476762465
 20
-0.6890679792143003
 30
0.0
 10
5.997748197727539
 20
-0.7118216395602118
 30
0.0
 10
6.081679396063192
 20
-0.7393857731005192
 30
0.0
 10
6.168206360440012
 20
-0.7719204225021962
 30
0.0
 10
6.197511031361713
 20
-0.7864949800481933
 30
0.0
 10
6.2059677988431625
 20
-0.7861912789368835
 30
0.0
 10
6.236532595132575
 20
-0.7842914481415517
 30
0.0
 10
6.271243328192081
 20
-0.781220032800003
 30
0.0
 10
6.310055419816506
 20
-0.7767590190198974
 30
0.0
 10
6.352918328536506
 20
-0.7706917434207741
 30
0.0
 10
6.399771265845998
 20
-0.7628035503988465
 30
0.0
 10
6.450545422237144
 20
-0.7528818686164089
 30
0.0
 10
6.505163607384033
 20
-0.7407165557466253
 30
0.0
 10
6.56354033209903
 20
-0.7261001911757994
 30
0.0
 10
6.625581899857737
 20
-0.7088283660290853
 30
0.0
 10
6.6911865078096335
 20
-0.6886999702189751
 30
0.0
 10
6.760244357177632
 20
-0.6655174762196778
 30
0.0
 10
6.832637772944623
 20
-0.6390872192724846
 30
0.0
 10
6.908241332713944
 20
-0.6092196737309561
 30
0.0
 10
6.986922004622134
 20
-0.5757297252582338
 30
0.0
 10
7.068539294174388
 20
-0.5384369385922136
 30
0.0
 10
7.1529453998639605
 20
-0.49716582059844505
 30
0.0
 10
7.239985377427431
 20
-0.4517460783352887
 30
0.0
 10
7.3294973125808704
 20
-0.40201287185972
 30
0.0
 10
7.399432523494991
 20
-0.3607245534371649
 30
0.0
 10
7.404101857013352
 20
-0.25020993367505556
 30
0.0
 10
7.40727167055091
 20
-0.12512281403544287
 30
0.0
 10
7.408328375547237
 20
0
 30
0.0
 10
7.40727167055091
 20
0.12512281403544367
 30
0.0
 10
7.404101857013352
 20
0.2502099336750554
 30
0.0
 10
7.399432523494991
 20
0.3607245534371657
 30
0.0
 10
7.329497312580859
 20
0.4020128718597267
 30
0.0
 10
7.239985377427443
 20
0.45174607833528224
 30
0.0
 10
7.152945399863994
 20
0.4971658205984273
 30
0.0
 10
7.068539294174355
 20
0.5384369385922296
 30
0.0
 10
6.986922004622145
 20
0.5757297252582281
 30
0.0
 10
6.908241332713957
 20
0.6092196737309505
 30
0.0
 10
6.832637772944605
 20
0.6390872192724912
 30
0.0
 10
6.760244357177669
 20
0.6655174762196641
 30
0.0
 10
6.691186507809608
 20
0.6886999702189822
 30
0.0
 10
6.625581899857721
 20
0.7088283660290897
 30
0.0
 10
6.563540332116984
 20
0.726100191170802
 30
0.0
 10
6.505163607378369
 20
0.7407165557475306
 30
0.0
 10
6.4505454222398155
 20
0.7528818686159107
 30
0.0
 10
6.399771265843894
 20
0.7628035503995183
 30
0.0
 10
6.352918328532898
 20
0.7706917434217386
 30
0.0
 10
6.310055419816058
 20
0.776759019020171
 30
0.0
 10
6.27124289606477
 20
0.7812200824682218
 30
0.0
 10
6.236532597938217
 20
0.7842914758249675
 30
0.0
 10
6.205967797532616
 20
0.7861912790285457
 30
0.0
 10
6.197511031443678
 20
0.7864949800892398
 30
0.0
 10
6.168206360439985
 20
0.7719204225021752
 30
0.0
 10
6.081679396063195
 20
0.739385773100512
 30
0.0
 10
5.997748197727551
 20
0.7118216395601844
 30
0.0
 10
5.916611347676243
 20
0.6890679792143164
 30
0.0
 10
5.838460780768578
 20
0.6709578213338117
 30
0.0
 10
5.763481559505155
 20
0.6573175066819266
 30
0.0
 10
5.69185165707036
 20
0.6479669340553507
 30
0.0
 10
5.623741748601543
 20
0.6427198135595853
 30
0.0
 10
5.5593150108931475
 20
0.6413839263364647
 30
0.0
 10
5.498726930725432
 20
0.6437613904823143
 30
0.0
 10
5.442125121961718
 20
0.6496489330824957
 30
0.0
 10
5.389649193184537
 20
0.6588379310346557
 30
0.0
 10
5.341430375748493
 20
0.6711158758965048
 30
0.0
 10
5.2975917847283895
 20
0.6862642818364397
 30
0.0
 10
5.25824785032903
 20
0.704061406306066
 30
0.0
 10
5.223504400199133
 20
0.7242812912173444
 30
0.0
 10
5.193458488681275
 20
0.7466942831755845
 30
0.0
 10
5.168198272713738
 20
0.7710674394733059
 30
0.0
 10
5.147802911848488
 20
0.7971647613806294
 30
0.0
 10
5.132342469849462
 20
0.8247475246875049
 30
0.0
 10
5.1218778282442905
 20
0.8535745947803242
 30
0.0
 10
5.092343047621276
 20
1.0129300111137538
 30
0.0
 10
5.064082612267079
 20
1.1458849059893306
 30
0.0
 10
5.032351507675081
 20
1.2780544686389002
 30
0.0
 10
4.997171480738814
 20
1.4093481165760255
 30
0.0
 10
4.9585666420838574
 20
1.5396758677129252
 30
0.0
 10
4.916563449202359
 20
1.668948401823921
 30
0.0
 10
4.862463611730327
 20
1.8217216310168722
 30
0.0
 10
4.857112722172412
 20
1.8519189268094607
 30
0.0
 10
4.856710476027141
 20
1.883536521565951
 30
0.0
 10
4.861324715701611
 20
1.9163351457419684
 30
0.0
 10
4.871014126285662
 20
1.9500730262500676
 30
0.0
 10
4.885828152944845
 20
1.9845062024524247
 30
0.0
 10
4.905806928594728
 20
2.019388844710904
 30
0.0
 10
4.930981211932598
 20
2.0544735751723375
 30
0.0
 10
4.961372335892312
 20
2.0895117904648304
 30
0.0
 10
4.996992166578752
 20
2.124253985978953
 30
0.0
 10
5.037843072728173
 20
2.15845008140614
 30
0.0
 10
5.083917905730461
 20
2.1918497472051897
 30
0.0
 10
5.135199990239993
 20
2.2242027316669652
 30
0.0
 10
5.191663125390899
 20
2.2552591882464217
 30
0.0
 10
5.253271596623147
 20
2.2847700028309625
 30
0.0
 10
5.3199801981155765
 20
2.3124871206138122
 30
0.0
 10
5.391734265811616
 20
2.338163872241381
 30
0.0
 10
5.468469721014063
 20
2.3615552989041317
 30
0.0
 10
5.550113124514487
 20
2.3824184760411358
 30
0.0
 10
5.636581741213387
 20
2.4005128353297494
 30
0.0
 10
5.727783615176903
 20
2.415600484633087
 30
0.0
 10
5.760449483417637
 20
2.417630883010186
 30
0.0
 10
5.767621408334816
 20
2.4221222796284625
 30
0.0
 10
5.793141382985278
 20
2.439049979504818
 30
0.0
 10
5.821666051928016
 20
2.4590652697459254
 30
0.0
 10
5.8530478023587245
 20
2.4823346668183417
 30
0.0
 10
5.887134532390776
 20
2.5090205359789444
 30
0.0
 10
5.923766269831752
 20
2.5392783801806345
 30
0.0
 10
5.96277713823099
 20
2.573257886848064
 30
0.0
 10
6.003995217641906
 20
2.6111024494117268
 30
0.0
 10
6.047242761949411
 20
2.652948954798535
 30
0.0
 10
6.092336423145708
 20
2.698927578024666
 30
0.0
 10
6.139087482332314
 20
2.749161584109598
 30
0.0
 10
6.187302087216071
 20
2.803767137520069
 30
0.0
 10
6.236781495863418
 20
2.862853119348384
 30
0.0
 10
6.287322326469421
 20
2.9265209524206965
 30
0.0
 10
6.338716812892381
 20
2.994864434523601
 30
0.0
 10
6.390753065699652
 20
3.0679695799304154
 30
0.0
 10
6.443215338464452
 20
3.14591446940039
 30
0.0
 10
6.495884299047668
 20
3.2287691088153605
 30
0.0
 10
6.5485373055946665
 20
3.3165952966115793
 30
0.0
 10
6.588458815654041
 20
3.3873196347021137
 30
0.0
 10
6.537245267218628
 20
3.4853627696648584
 30
0.0
 10
6.477446846447607
 20
3.595276299727765
 30
0.0
 10
6.41580057280101
 20
3.7041641877736193
 30
0.0
 10
6.352324032412163
 20
3.811995370823145
 30
0.0
 10
6.287035333543572
 20
3.9187390873484933
 30
0.0
 10
6.227734262216875
 20
4.0121128887928785
 30
0.0
 10
6.146524433734933
 20
4.012902015969292
 30
0.0
 10
6.044138220712392
 20
4.011216268612072
 30
0.0
 10
5.946049517866045
 20
4.007030930463572
 30
0.0
 10
5.852316127107401
 20
4.00056971424397
 30
0.0
 10
5.7629870876341585
 20
3.9920575700985337
 30
0.0
 10
5.6781026527384775
 20
3.9817203802932495
 30
0.0
 10
5.597694276590914
 20
3.9697846535962364
 30
0.0
 10
5.5217846109964315
 20
3.95647721965757
 30
0.0
 10
5.450387512113312
 20
3.942024923700029
 30
0.0
 10
5.383508057116606
 20
3.926654321833068
 30
0.0
 10
5.3211425707916575
 20
3.910591377305144
 30
0.0
 10
5.263278661889922
 20
3.8940611579702584
 30
0.0
 10
5.209895269617142
 20
3.8772875353899847
 30
0.0
 10
5.1609627194307475
 20
3.8604928856648932
 30
0.0
 10
5.116442788966394
 20
3.843897792556593
 30
0.0
 10
5.076288783338301
 20
3.827720752998177
 30
0.0
 10
5.040445620060673
 20
3.8121778853964394
 30
0.0
 10
5.008849923431774
 20
3.7974826410051197
 30
0.0
 10
4.981430128217134
 20
3.7838455186388087
 30
0.0
 10
4.973954503419904
 20
3.7798801484280578
 30
0.0
 10
4.955863192674693
 20
3.752605875806894
 30
0.0
 10
4.897195968112873
 20
3.6811665607334385
 30
0.0
 10
4.838291484954299
 20
3.615329721686386
 30
0.0
 10
4.779401741799751
 20
3.5550560487721268
 30
0.0
 10
4.720776444477812
 20
3.500296908527231
 30
0.0
 10
4.662662691433654
 20
3.4509944388913736
 30
0.0
 10
4.605304662567809
 20
3.4070816542394295
 30
0.0
 10
4.5489433118322635
 20
3.368482560358971
 30
0.0
 10
4.493816063905396
 20
3.335112279232959
 30
0.0
 10
4.440156515240702
 20
3.306877183495994
 30
0.0
 10
4.388194139651087
 20
3.2836750405717576
 30
0.0
 10
4.338154153266784
 20
3.265394981845061
 30
0.0
 10
4.290256459995802
 20
3.2519185852836645
 30
0.0
 10
4.244716923536308
 20
3.243118194144435
 30
0.0
 10
4.201745514626822
 20
3.238858988849766
 30
0.0
 10
4.161546861743574
 20
3.2389981977795816
 30
0.0
 10
4.124319843110129
 20
3.243385462431305
 30
0.0
 10
4.0902572762283
 20
3.251863126971772
 30
0.0
 10
4.059545714645981
 20
3.2642663902816293
 30
0.0
 10
4.0323651974676515
 20
3.280423543012444
 30
0.0
 10
4.008889016949663
 20
3.3001561972269147
 30
0.0
 10
3.903633438468218
 20
3.423394645690803
 30
0.0
 10
3.8126817360916867
 20
3.5244067445334433
 30
0.0
 10
3.7191170121000905
 20
3.6230033910990507
 30
0.0
 10
3.6230033910988997
 20
3.7191170120999977
 30
0.0
 10
3.5244067445462575
 20
3.8126817360751706
 30
0.0
 10
3.423394645415324
 20
3.903633438186134
 30
0.0
 10
3.30015619722746
 20
4.0088890169493965
 30
0.0
 10
3.2804235430411666
 20
4.032365197452413
 30
0.0
 10
3.2642663902825424
 20
4.059545714645461
 30
0.0
 10
3.251863126971774
 20
4.0902572762283045
 30
0.0
 10
3.2433854624312106
 20
4.124319843110188
 30
0.0
 10
3.238998197749225
 20
4.161546861764006
 30
0.0
 10
3.238859003869294
 20
4.201745503935916
 30
0.0
 10
3.2431182075312397
 20
4.244716913469381
 30
0.0
 10
3.2519185852836676
 20
4.290256459995806
 30
0.0
 10
3.265395165779564
 20
4.338153999237503
 30
0.0
 10
3.2836750405589825
 20
4.388194139662393
 30
0.0
 10
3.3068771835145654
 20
4.440156515223425
 30
0.0
 10
3.3351122792279524
 20
4.493816063910332
 30
0.0
 10
3.368482560356222
 20
4.548943311835122
 30
0.0
 10
3.4070816542394025
 20
4.605304662567832
 30
0.0
 10
3.450994438891354
 20
4.662662691433679
 30
0.0
 10
3.5002969085272078
 20
4.720776444477837
 30
0.0
 10
3.555056048772115
 20
4.779401741799763
 30
0.0
 10
3.615329721686403
 20
4.838291484954276
 30
0.0
 10
3.681166560733443
 20
4.897195968112868
 30
0.0
 10
3.7526058758069247
 20
4.955863192674706
 30
0.0
 10
3.779880148351527
 20
4.973954503369444
 30
0.0
 10
3.7838455192147
 20
4.981430129397933
 30
0.0
 10
3.797482615627757
 20
5.008849934843726
 30
0.0
 10
3.8121780584461553
 20
5.040446019128012
 30
0.0
 10
3.8277207529981645
 20
5.0762887833388275
 30
0.0
 10
3.843897792557562
 20
5.1164427889700015
 30
0.0
 10
3.8604928856653635
 20
5.160962719432906
 30
0.0
 10
3.87728753538908
 20
5.209895269614581
 30
0.0
 10
3.8940611579723066
 20
5.263278661895281
 30
0.0
 10
3.9105913773004946
 20
5.3211425707736115
 30
0.0
 10
3.926654321833071
 20
5.383508057116623
 30
0.0
 10
3.9420249237000355
 20
5.4503875121133385
 30
0.0
 10
3.956477219657563
 20
5.521784610996392
 30
0.0
 10
3.969784653596239
 20
5.597694276590933
 30
0.0
 10
3.9817203802932473
 20
5.678102652738464
 30
0.0
 10
3.992057570098533
 20
5.762987087634146
 30
0.0
 10
4.000569714243973
 20
5.852316127107439
 30
0.0
 10
4.0070309304635705
 20
5.946049517866007
 30
0.0
 10
4.0112162686120705
 20
6.044138220712379
 30
0.0
 10
4.012902015969291
 20
6.146524433734947
 30
0.0
 10
4.012112888792878
 20
6.227734262216876
 30
0.0
 10
3.9187390873484933
 20
6.287035333543573
 30
0.0
 10
3.8119953708231447
 20
6.352324032412164
 30
0.0
 10
3.704164187773618
 20
6.41580057280101
 30
0.0
 10
3.595276299727764
 20
6.477446846447607
 30
0.0
 10
3.485362769664858
 20
6.537245267218627
 30
0.0
 10
3.387319634702113
 20
6.5884588156540405
 30
0.0
 10
3.3165952966115677
 20
6.548537305594659
 30
0.0
 10
3.2287691088153716
 20
6.495884299047674
 30
0.0
 10
3.145914469400422
 20
6.443215338464472
 30
0.0
 10
3.0679695799303843
 20
6.390753065699631
 30
0.0
 10
2.994864434523611
 20
6.338716812892386
 30
0.0
 10
2.9265209524207076
 20
6.287322326469428
 30
0.0
 10
2.8628531193483693
 20
6.236781495863405
 30
0.0
 10
2.803767137520099
 20
6.1873020872160955
 30
0.0
 10
2.7491615841095784
 20
6.139087482332294
 30
0.0
 10
2.6989275780246538
 20
6.092336423145696
 30
0.0
 10
2.6529489548118397
 20
6.04724276196246
 30
0.0
 10
2.6111024494081105
 20
6.003995217637453
 30
0.0
 10
2.5732578868498304
 20
5.962777138233053
 30
0.0
 10
2.5392783801790006
 20
5.923766269830265
 30
0.0
 10
2.5090205359763043
 20
5.887134532388132
 30
0.0
 10
2.4823346668178807
 20
5.853047802358472
 30
0.0
 10
2.45906501066833
 20
5.821665702528895
 30
0.0
 10
2.439049956933097
 20
5.793141399256742
 30
0.0
 10
2.4221222788938075
 20
5.76762140724568
 30
0.0
 10
2.417630883015621
 20
5.760449483509144
 30
0.0
 10
2.4156004846330914
 20
5.727783615176868
 30
0.0
 10
2.400512835329757
 20
5.636581741213385
 30
0.0
 10
2.3824184760411655
 20
5.550113124514484
 30
0.0
 10
2.3615552989041158
 20
5.468469721014068
 30
0.0
 10
2.3381638722413474
 20
5.391734265811623
 30
0.0
 10
2.312487120613781
 20
5.319980198115581
 30
0.0
 10
2.2847700028309297
 20
5.25327159662316
 30
0.0
 10
2.2552591882425723
 20
5.191663125391849
 30
0.0
 10
2.224202731660188
 20
5.135199990241861
 30
0.0
 10
2.191849747229438
 20
5.083917905723016
 30
0.0
 10
2.1584500813899608
 20
5.037843072733582
 30
0.0
 10
2.1242542113394762
 20
4.99699208430144
 30
0.0
 10
2.0895117904648286
 20
4.961372335892307
 30
0.0
 10
2.054473590583954
 20
4.930981205372748
 30
0.0
 10
2.019388861479264
 20
4.905806920932887
 30
0.0
 10
1.9845062024195508
 20
4.885828152960918
 30
0.0
 10
1.95007302624997
 20
4.871014126285714
 30
0.0
 10
1.9163351457419657
 20
4.861324715701606
 30
0.0
 10
1.883536521566858
 20
4.85671047602661
 30
0.0
 10
1.8519189268370182
 20
4.857112722155156
 30
0.0
 10
1.8217216310173763
 20
4.8624636117299875
 30
0.0
 10
1.6689484019304734
 20
4.916563449581972
 30
0.0
 10
1.5396758677336357
 20
4.958566642081017
 30
0.0
 10
1.4093481165760307
 20
4.997171480738991
 30
0.0
 10
1.2780544686388164
 20
5.0323515076749255
 30
0.0
 10
1.1458849060086864
 20
5.064082612259183
 30
0.0
 10
1.0129300110162243
 20
5.092343047239245
 30
0.0
 10
0.8535745947809306
 20
5.121877828244332
 30
0.0
 10
0.8247475247199986
 20
5.132342469850627
 30
0.0
 10
0.7971647613816805
 20
5.147802911848493
 30
0.0
 10
0.7710674394733057
 20
5.1681982727137425
 30
0.0
 10
0.7466942831754736
 20
5.193458488681278
 30
0.0
 10
0.7242812911808382
 20
5.22350440020165
 30
0.0
 10
0.7040614246588124
 20
5.258247848580198
 30
0.0
 10
0.6862642984632159
 20
5.297591782703577
 30
0.0
 10
0.6711158758965057
 20
5.341430375748498
 30
0.0
 10
0.6588381673412498
 20
5.389649151758517
 30
0.0
 10
0.6496489330657794
 20
5.442125121965122
 30
0.0
 10
0.6437613905070362
 20
5.498726930719755
 30
0.0
 10
0.641383926329661
 20
5.559315010894918
 30
0.0
 10
0.6427198135557762
 20
5.623741748602644
 30
0.0
 10
0.647966934055316
 20
5.691851657070365
 30
0.0
 10
0.6573175066818975
 20
5.763481559505166
 30
0.0
 10
0.6709578213337791
 20
5.838460780768589
 30
0.0
 10
0.6890679792143003
 20
5.9166113476762465
 30
0.0
 10
0.7118216395602118
 20
5.997748197727539
 30
0.0
 10
0.7393857731005192
 20
6.081679396063192
 30
0.0
 10
0.7719204225021962
 20
6.168206360440012
 30
0.0
 10
0.7864949800481933
 20
6.197511031361713
 30
0.0
 10
0.7861912789368835
 20
6.2059677988431625
 30
0.0
 10
0.7842914481415517
 20
6.236532595132575
 30
0.0
 10
0.781220032800003
 20
6.271243328192081
 30
0.0
 10
0.7767590190198974
 20
6.310055419816506
 30
0.0
 10
0.7706917434207741
 20
6.352918328536506
 30
0.0
 10
0.7628035503988465
 20
6.399771265845998
 30
0.0
 10
0.7528818686164089
 20
6.450545422237144
 30
0.0
 10
0.7407165557466253
 20
6.505163607384033
 30
0.0
 10
0.7261001911757994
 20
6.56354033209903
 30
0.0
 10
0.7088283660290853
 20
6.625581899857737
 30
0.0
 10
0.6886999702189751
 20
6.6911865078096335
 30
0.0
 10
0.6655174762196778
 20
6.760244357177632
 30
0.0
 10
0.6390872192724846
 20
6.832637772944623
 30
0.0
 10
0.6092196737309561
 20
6.908241332713944
 30
0.0
 10
0.5757297252582338
 20
6.986922004622134
 30
0.0
 10
0.5384369385922136
 20
7.068539294174388
 30
0.0
 10
0.49716582059844505
 20
7.1529453998639605
 30
0.0
 10
0.4517460783352887
 20
7.239985377427431
 30
0.0
 10
0.40201287185972
 20
7.3294973125808704
 30
0.0
 10
0.3607245534371649
 20
7.399432523494991
 30
0.0
 10
0.25020993367505556
 20
7.404101857013352
 30
0.0
 10
0.12512281403544287
 20
7.40727167055091
 30
0.0
 10
2.6645352591003757e-15
 20
7.408328375547237
 30
0.0
 10
-0.125122814035441
 20
7.4072716705509105
 30
0.0
 10
-0.25020993367505273
 20
7.4041018570133526
 30
0.0
 10
-0.36072455343716303
 20
7.399432523494992
 30
0.0
 10
-0.402012871859724
 20
7.329497312580859
 30
0.0
 10
-0.45174607833528
 20
7.239985377427443
 30
0.0
 10
-0.4971658205984246
 20
7.152945399863995
 30
0.0
 10
-0.538436938592227
 20
7.068539294174355
 30
0.0
 10
-0.5757297252582254
 20
6.986922004622145
 30
0.0
 10
-0.6092196737309483
 20
6.908241332713957
 30
0.0
 10
-0.6390872192724886
 20
6.832637772944606
 30
0.0
 10
-0.6655174762196618
 20
6.76024435717767
 30
0.0
 10
-0.68869997021898
 20
6.691186507809609
 30
0.0
 10
-0.7088283660290875
 20
6.625581899857721
 30
0.0
 10
-0.7261001911707994
 20
6.563540332116984
 30
0.0
 10
-0.7407165557475279
 20
6.50516360737837
 30
0.0
 10
-0.7528818686159084
 20
6.4505454222398155
 30
0.0
 10
-0.7628035503995156
 20
6.399771265843895
 30
0.0
 10
-0.770691743421736
 20
6.352918328532898
 30
0.0
 10
-0.7767590190201683
 20
6.3100554198160586
 30
0.0
 10
-0.7812200824682196
 20
6.27124289606477
 30
0.0
 10
-0.7842914758249653
 20
6.236532597938217
 30
0.0
 10
-0.786191279028543
 20
6.205967797532617
 30
0.0
 10
-0.7864949800892376
 20
6.197511031443678
 30
0.0
 10
-0.771920422502173
 20
6.168206360439986
 30
0.0
 10
-0.7393857731005098
 20
6.081679396063196
 30
0.0
 10
-0.7118216395601826
 20
5.997748197727551
 30
0.0
 10
-0.6890679792143142
 20
5.916611347676244
 30
0.0
 10
-0.6709578213338099
 20
5.838460780768579
 30
0.0
 10
-0.6573175066819248
 20
5.763481559505155
 30
0.0
 10
-0.6479669340553489
 20
5.691851657070361
 30
0.0
 10
-0.6427198135595835
 20
5.623741748601543
 30
0.0
 10
-0.6413839263364627
 20
5.5593150108931475
 30
0.0
 10
-0.6437613904823125
 20
5.498726930725432
 30
0.0
 10
-0.6496489330824939
 20
5.442125121961719
 30
0.0
 10
-0.6588379310346539
 20
5.389649193184537
 30
0.0
 10
-0.671115875896503
 20
5.3414303757484936
 30
0.0
 10
-0.686264281836438
 20
5.29759178472839
 30
0.0
 10
-0.7040614063060642
 20
5.25824785032903
 30
0.0
 10
-0.7242812912173426
 20
5.223504400199133
 30
0.0
 10
-0.7466942831755827
 20
5.1934584886812765
 30
0.0
 10
-0.7710674394733044
 20
5.168198272713738
 30
0.0
 10
-0.7971647613806279
 20
5.147802911848488
 30
0.0
 10
-0.8247475246875031
 20
5.132342469849463
 30
0.0
 10
-0.8535745947803224
 20
5.121877828244291
 30
0.0
 10
-1.0129300111137522
 20
5.092343047621277
 30
0.0
 10
-1.145884905989329
 20
5.06408261226708
 30
0.0
 10
-1.2780544686388986
 20
5.032351507675082
 30
0.0
 10
-1.4093481165760238
 20
4.997171480738815
 30
0.0
 10
-1.5396758677129236
 20
4.958566642083858
 30
0.0
 10
-1.6689484018239193
 20
4.916563449202359
 30
0.0
 10
-1.8217216310168705
 20
4.862463611730328
 30
0.0
 10
-1.851918926809459
 20
4.857112722172412
 30
0.0
 10
-1.8835365215659494
 20
4.856710476027142
 30
0.0
 10
-1.916335145741967
 20
4.8613247157016115
 30
0.0
 10
-1.950073026250066
 20
4.8710141262856625
 30
0.0
 10
-1.9845062024524234
 20
4.885828152944846
 30
0.0
 10
-2.0193888447109023
 20
4.905806928594729
 30
0.0
 10
-2.054473575172336
 20
4.9309812119325995
 30
0.0
 10
-2.089511790464829
 20
4.961372335892313
 30
0.0
 10
-2.1242539859789518
 20
4.996992166578753
 30
0.0
 10
-2.158450081406138
 20
5.037843072728173
 30
0.0
 10
-2.1918497472051883
 20
5.083917905730463
 30
0.0
 10
-2.224202731666964
 20
5.135199990239994
 30
0.0
 10
-2.25525918824642
 20
5.191663125390899
 30
0.0
 10
-2.2847700028309608
 20
5.253271596623148
 30
0.0
 10
-2.3124871206138105
 20
5.319980198115578
 30
0.0
 10
-2.3381638722413793
 20
5.391734265811618
 30
0.0
 10
-2.36155529890413
 20
5.468469721014065
 30
0.0
 10
-2.382418476041134
 20
5.550113124514488
 30
0.0
 10
-2.4005128353297476
 20
5.636581741213388
 30
0.0
 10
-2.415600484633085
 20
5.727783615176904
 30
0.0
 10
-2.417630883010184
 20
5.760449483417639
 30
0.0
 10
-2.4221222796284607
 20
5.767621408334817
 30
0.0
 10
-2.4390499795048157
 20
5.7931413829852785
 30
0.0
 10
-2.459065269745923
 20
5.821666051928016
 30
0.0
 10
-2.48233466681834
 20
5.853047802358725
 30
0.0
 10
-2.509020535978942
 20
5.887134532390777
 30
0.0
 10
-2.5392783801806327
 20
5.923766269831753
 30
0.0
 10
-2.5732578868480616
 20
5.96277713823099
 30
0.0
 10
-2.611102449411725
 20
6.003995217641907
 30
0.0
 10
-2.652948954798533
 20
6.047242761949413
 30
0.0
 10
-2.698927578024664
 20
6.092336423145709
 30
0.0
 10
-2.749161584109596
 20
6.139087482332315
 30
0.0
 10
-2.803767137520067
 20
6.187302087216072
 30
0.0
 10
-2.862853119348382
 20
6.236781495863419
 30
0.0
 10
-2.9265209524206948
 20
6.287322326469421
 30
0.0
 10
-2.994864434523599
 20
6.338716812892382
 30
0.0
 10
-3.0679695799304136
 20
6.390753065699654
 30
0.0
 10
-3.145914469400388
 20
6.443215338464454
 30
0.0
 10
-3.2287691088153583
 20
6.495884299047669
 30
0.0
 10
-3.316595296611577
 20
6.548537305594668
 30
0.0
 10
-3.387319634702111
 20
6.588458815654041
 30
0.0
 10
-3.4853627696648557
 20
6.53724526721863
 30
0.0
 10
-3.5952762997277627
 20
6.4774468464476085
 30
0.0
 10
-3.7041641877736207
 20
6.415800572801009
 30
0.0
 10
-3.811995370823147
 20
6.352324032412163
 30
0.0
 10
-3.918739087348495
 20
6.287035333543571
 30
0.0
 10
-4.01211288879288
 20
6.227734262216874
 30
0.0
 10
-4.012902015969293
 20
6.146524433734932
 30
0.0
 10
-4.011216268612073
 20
6.044138220712391
 30
0.0
 10
-4.007030930463573
 20
5.946049517866044
 30
0.0
 10
-4.000569714243971
 20
5.8523161271074
 30
0.0
 10
-3.9920575700985346
 20
5.762987087634158
 30
0.0
 10
-3.98172038029325
 20
5.6781026527384775
 30
0.0
 10
-3.9697846535962373
 20
5.5976942765909135
 30
0.0
 10
-3.9564772196575713
 20
5.521784610996431
 30
0.0
 10
-3.94202492370003
 20
5.450387512113311
 30
0.0
 10
-3.926654321833068
 20
5.383508057116606
 30
0.0
 10
-3.9105913773051455
 20
5.3211425707916575
 30
0.0
 10
-3.8940611579702598
 20
5.263278661889922
 30
0.0
 10
-3.8772875353899865
 20
5.209895269617142
 30
0.0
 10
-3.8604928856648946
 20
5.160962719430747
 30
0.0
 10
-3.8438977925565947
 20
5.116442788966394
 30
0.0
 10
-3.8277207529981783
 20
5.076288783338301
 30
0.0
 10
-3.8121778853964408
 20
5.040445620060673
 30
0.0
 10
-3.797482641005121
 20
5.008849923431773
 30
0.0
 10
-3.78384551863881
 20
4.981430128217134
 30
0.0
 10
-3.7798801484280586
 20
4.973954503419904
 30
0.0
 10
-3.7526058758068945
 20
4.955863192674692
 30
0.0
 10
-3.6811665607334394
 20
4.8971959681128725
 30
0.0
 10
-3.615329721686386
 20
4.838291484954299
 30
0.0
 10
-3.555056048772128
 20
4.7794017417997505
 30
0.0
 10
-3.500296908527232
 20
4.72077644447781
 30
0.0
 10
-3.450994438891375
 20
4.6626626914336535
 30
0.0
 10
-3.4070816542394313
 20
4.605304662567808
 30
0.0
 10
-3.3684825603589723
 20
4.548943311832263
 30
0.0
 10
-3.335112279232961
 20
4.4938160639053955
 30
0.0
 10
-3.3068771834959954
 20
4.440156515240702
 30
0.0
 10
-3.283675040571759
 20
4.388194139651086
 30
0.0
 10
-3.2653949818450614
 20
4.3381541532667836
 30
0.0
 10
-3.251918585283666
 20
4.290256459995801
 30
0.0
 10
-3.2431181941444365
 20
4.244716923536307
 30
0.0
 10
-3.2388589888497665
 20
4.201745514626821
 30
0.0
 10
-3.238998197779583
 20
4.161546861743573
 30
0.0
 10
-3.2433854624313065
 20
4.124319843110129
 30
0.0
 10
-3.2518631269717733
 20
4.090257276228299
 30
0.0
 10
-3.26426639028163
 20
4.05954571464598
 30
0.0
 10
-3.2804235430124455
 20
4.032365197467651
 30
0.0
 10
-3.300156197226915
 20
4.008889016949663
 30
0.0
 10
-3.423394645690804
 20
3.9036334384682174
 30
0.0
 10
-3.5244067445334446
 20
3.812681736091686
 30
0.0
 10
-3.6230033910990516
 20
3.7191170121000896
 30
0.0
 10
-3.719117012099999
 20
3.6230033910988992
 30
0.0
 10
-3.812681736075172
 20
3.524406744546257
 30
0.0
 10
-3.9036334381861355
 20
3.4233946454153235
 30
0.0
 10
-4.008889016949397
 20
3.3001561972274596
 30
0.0
 10
-4.032365197452415
 20
3.2804235430411657
 30
0.0
 10
-4.059545714645461
 20
3.2642663902825415
 30
0.0
 10
-4.090257276228305
 20
3.2518631269717733
 30
0.0
 10
-4.124319843110189
 20
3.2433854624312097
 30
0.0
 10
-4.161546861764008
 20
3.238998197749224
 30
0.0
 10
-4.201745503935917
 20
3.2388590038692935
 30
0.0
 10
-4.244716913469382
 20
3.243118207531239
 30
0.0
 10
-4.290256459995807
 20
3.2519185852836667
 30
0.0
 10
-4.3381539992375036
 20
3.2653951657795632
 30
0.0
 10
-4.388194139662394
 20
3.2836750405589816
 30
0.0
 10
-4.440156515223426
 20
3.3068771835145645
 30
0.0
 10
-4.493816063910332
 20
3.3351122792279515
 30
0.0
 10
-4.548943311835123
 20
3.368482560356221
 30
0.0
 10
-4.605304662567833
 20
3.4070816542394016
 30
0.0
 10
-4.66266269143368
 20
3.450994438891353
 30
0.0
 10
-4.7207764444778375
 20
3.500296908527207
 30
0.0
 10
-4.779401741799764
 20
3.555056048772114
 30
0.0
 10
-4.838291484954277
 20
3.615329721686402
 30
0.0
 10
-4.897195968112869
 20
3.681166560733442
 30
0.0
 10
-4.955863192674706
 20
3.752605875806924
 30
0.0
 10
-4.973954503369445
 20
3.779880148351526
 30
0.0
 10
-4.981430129397934
 20
3.783845519214699
 30
0.0
 10
-5.0088499348437265
 20
3.797482615627756
 30
0.0
 10
-5.040446019128014
 20
3.8121780584461544
 30
0.0
 10
-5.0762887833388275
 20
3.8277207529981636
 30
0.0
 10
-5.116442788970003
 20
3.843897792557561
 30
0.0
 10
-5.160962719432907
 20
3.8604928856653626
 30
0.0
 10
-5.209895269614581
 20
3.8772875353890797
 30
0.0
 10
-5.263278661895281
 20
3.8940611579723057
 30
0.0
 10
-5.321142570773612
 20
3.910591377300494
 30
0.0
 10
-5.383508057116623
 20
3.9266543218330705
 30
0.0
 10
-5.450387512113339
 20
3.942024923700034
 30
0.0
 10
-5.521784610996393
 20
3.9564772196575615
 30
0.0
 10
-5.597694276590934
 20
3.9697846535962378
 30
0.0
 10
-5.678102652738465
 20
3.981720380293246
 30
0.0
 10
-5.762987087634148
 20
3.9920575700985315
 30
0.0
 10
-5.85231612710744
 20
4.000569714243972
 30
0.0
 10
-5.946049517866008
 20
4.00703093046357
 30
0.0
 10
-6.04413822071238
 20
4.01121626861207
 30
0.0
 10
-6.146524433734948
 20
4.012902015969289
 30
0.0
 10
-6.227734262216877
 20
4.012112888792877
 30
0.0
 10
-6.287035333543574
 20
3.918739087348492
 30
0.0
 10
-6.352324032412165
 20
3.8119953708231433
 30
0.0
 10
-6.415800572801009
 20
3.704164187773619
 30
0.0
 10
-6.477446846447607
 20
3.595276299727765
 30
0.0
 10
-6.537245267218627
 20
3.485362769664859
 30
0.0
 10
-6.5884588156540405
 20
3.3873196347021137
 30
0.0
 10
-6.548537305594659
 20
3.3165952966115686
 30
0.0
 10
-6.495884299047674
 20
3.2287691088153725
 30
0.0
 10
-6.443215338464472
 20
3.145914469400423
 30
0.0
 10
-6.390753065699631
 20
3.067969579930385
 30
0.0
 10
-6.338716812892386
 20
2.994864434523612
 30
0.0
 10
-6.287322326469428
 20
2.9265209524207085
 30
0.0
 10
-6.236781495863405
 20
2.86285311934837
 30
0.0
 10
-6.1873020872160955
 20
2.8037671375201
 30
0.0
 10
-6.139087482332294
 20
2.7491615841095793
 30
0.0
 10
-6.092336423145696
 20
2.6989275780246547
 30
0.0
 10
-6.04724276196246
 20
2.6529489548118406
 30
0.0
 10
-6.003995217637453
 20
2.6111024494081114
 30
0.0
 10
-5.962777138233053
 20
2.5732578868498313
 30
0.0
 10
-5.923766269830265
 20
2.5392783801790015
 30
0.0
 10
-5.887134532388132
 20
2.509020535976305
 30
0.0
 10
-5.853047802358472
 20
2.4823346668178816
 30
0.0
 10
-5.821665702528895
 20
2.459065010668331
 30
0.0
 10
-5.793141399256742
 20
2.439049956933098
 30
0.0
 10
-5.76762140724568
 20
2.4221222788938084
 30
0.0
 10
-5.760449483509144
 20
2.417630883015622
 30
0.0
 10
-5.727783615176868
 20
2.4156004846330923
 30
0.0
 10
-5.636581741213385
 20
2.400512835329758
 30
0.0
 10
-5.550113124514484
 20
2.3824184760411664
 30
0.0
 10
-5.468469721014068
 20
2.3615552989041166
 30
0.0
 10
-5.391734265811623
 20
2.338163872241348
 30
0.0
 10
-5.319980198115581
 20
2.3124871206137816
 30
0.0
 10
-5.25327159662316
 20
2.28477000283093
 30
0.0
 10
-5.191663125391849
 20
2.2552591882425728
 30
0.0
 10
-5.135199990241861
 20
2.2242027316601884
 30
0.0
 10
-5.083917905723016
 20
2.1918497472294383
 30
0.0
 10
-5.037843072733582
 20
2.158450081389961
 30
0.0
 10
-4.99699208430144
 20
2.1242542113394767
 30
0.0
 10
-4.961372335892307
 20
2.089511790464829
 30
0.0
 10
-4.930981205372748
 20
2.0544735905839544
 30
0.0
 10
-4.905806920932887
 20
2.0193888614792646
 30
0.0
 10
-4.885828152960918
 20
1.9845062024195514
 30
0.0
 10
-4.871014126285714
 20
1.9500730262499706
 30
0.0
 10
-4.861324715701606
 20
1.9163351457419664
 30
0.0
 10
-4.85671047602661
 20
1.8835365215668587
 30
0.0
 10
-4.857112722155156
 20
1.8519189268370189
 30
0.0
 10
-4.8624636117299875
 20
1.821721631017377
 30
0.0
 10
-4.916563449581972
 20
1.6689484019304741
 30
0.0
 10
-4.958566642081017
 20
1.5396758677336364
 30
0.0
 10
-4.997171480738991
 20
1.4093481165760313
 30
0.0
 10
-5.0323515076749255
 20
1.278054468638817
 30
0.0
 10
-5.064082612259183
 20
1.145884906008687
 30
0.0
 10
-5.092343047239245
 20
1.012930011016225
 30
0.0
 10
-5.121877828244332
 20
0.8535745947809312
 30
0.0
 10
-5.132342469850627
 20
0.8247475247199992
 30
0.0
 10
-5.147802911848493
 20
0.7971647613816811
 30
0.0
 10
-5.1681982727137425
 20
0.7710674394733064
 30
0.0
 10
-5.193458488681278
 20
0.7466942831754743
 30
0.0
 10
-5.22350440020165
 20
0.7242812911808388
 30
0.0
 10
-5.258247848580198
 20
0.704061424658813
 30
0.0
 10
-5.297591782703577
 20
0.6862642984632166
 30
0.0
 10
-5.341430375748498
 20
0.6711158758965063
 30
0.0
 10
-5.389649151758517
 20
0.6588381673412504
 30
0.0
 10
-5.442125121965122
 20
0.6496489330657801
 30
0.0
 10
-5.498726930719755
 20
0.6437613905070368
 30
0.0
 10
-5.559315010894918
 20
0.6413839263296617
 30
0.0
 10
-5.623741748602644
 20
0.6427198135557769
 30
0.0
 10
-5.691851657070365
 20
0.6479669340553167
 30
0.0
 10
-5.763481559505166
 20
0.6573175066818981
 30
0.0
 10
-5.838460780768589
 20
0.6709578213337798
 30
0.0
 10
-5.9166113476762465
 20
0.6890679792143011
 30
0.0
 10
-5.997748197727539
 20
0.7118216395602126
 30
0.0
 10
-6.081679396063192
 20
0.73938577310052
 30
0.0
 10
-6.168206360440012
 20
0.771920422502197
 30
0.0
 10
-6.197511031361713
 20
0.7864949800481941
 30
0.0
 10
-6.2059677988431625
 20
0.7861912789368842
 30
0.0
 10
-6.236532595132575
 20
0.7842914481415525
 30
0.0
 10
-6.271243328192081
 20
0.7812200328000037
 30
0.0
 10
-6.310055419816506
 20
0.7767590190198982
 30
0.0
 10
-6.352918328536506
 20
0.7706917434207748
 30
0.0
 10
-6.399771265845998
 20
0.7628035503988473
 30
0.0
 10
-6.450545422237144
 20
0.7528818686164097
 30
0.0
 10
-6.505163607384033
 20
0.7407165557466261
 30
0.0
 10
-6.56354033209903
 20
0.7261001911758002
 30
0.0
 10
-6.625581899857737
 20
0.708828366029086
 30
0.0
 10
-6.6911865078096335
 20
0.6886999702189759
 30
0.0
 10
-6.760244357177632
 20
0.6655174762196786
 30
0.0
 10
-6.832637772944623
 20
0.6390872192724855
 30
0.0
 10
-6.908241332713944
 20
0.609219673730957
 30
0.0
 10
-6.986922004622134
 20
0.5757297252582347
 30
0.0
 10
-7.068539294174388
 20
0.5384369385922145
 30
0.0
 10
-7.1529453998639605
 20
0.49716582059844594
 30
0.0
 10
-7.239985377427431
 20
0.45174607833528957
 30
0.0
 10
-7.3294973125808704
 20
0.4020128718597209
 30
0.0
 10
-7.399432523494991
 20
0.3607245534371658
 30
0.0
 10
-7.404101857013352
 20
0.25020993367505645
 30
0.0
 10
-7.40727167055091
 20
0.12512281403544379
 30
0.0
 10
-7.408328375547237
 20
-1.7763568394002505e-15
 30
0.0
 10
-7.4072716705509105
 20
-0.12512281403544545
 30
0.0
 10
-7.404101857013352
 20
-0.2502099336750572
 30
0.0
 10
-7.399432523494991
 20
-0.36072455343716703
 30
0.0
 10
-7.329497312580859
 20
-0.402012871859728
 30
0.0
 10
-7.239985377427443
 20
-0.451746078335284
 30
0.0
 10
-7.152945399863994
 20
-0.49716582059842906
 30
0.0
 10
-7.068539294174355
 20
-0.538436938592231
 30
0.0
 10
-6.986922004622144
 20
-0.5757297252582299
 30
0.0
 10
-6.908241332713957
 20
-0.6092196737309523
 30
0.0
 10
-6.832637772944605
 20
-0.639087219272493
 30
0.0
 10
-6.760244357177669
 20
-0.6655174762196658
 30
0.0
 10
-6.691186507809607
 20
-0.688699970218984
 30
0.0
 10
-6.625581899857721
 20
-0.7088283660290915
 30
0.0
 10
-6.563540332116983
 20
-0.7261001911708034
 30
0.0
 10
-6.505163607378369
 20
-0.7407165557475319
 30
0.0
 10
-6.450545422239815
 20
-0.7528818686159124
 30
0.0
 10
-6.399771265843895
 20
-0.7628035503995196
 30
0.0
 10
-6.352918328532898
 20
-0.77069174342174
 30
0.0
 10
-6.310055419816058
 20
-0.7767590190201723
 30
0.0
 10
-6.271242896064769
 20
-0.7812200824682236
 30
0.0
 10
-6.236532597938217
 20
-0.7842914758249693
 30
0.0
 10
-6.205967797532615
 20
-0.786191279028547
 30
0.0
 10
-6.197511031443678
 20
-0.7864949800892416
 30
0.0
 10
-6.168206360439985
 20
-0.771920422502177
 30
0.0
 10
-6.081679396063195
 20
-0.7393857731005138
 30
0.0
 10
-5.997748197727551
 20
-0.7118216395601857
 30
0.0
 10
-5.916611347676243
 20
-0.6890679792143177
 30
0.0
 10
-5.838460780768578
 20
-0.6709578213338134
 30
0.0
 10
-5.763481559505154
 20
-0.6573175066819283
 30
0.0
 10
-5.69185165707036
 20
-0.6479669340553522
 30
0.0
 10
-5.623741748601542
 20
-0.6427198135595869
 30
0.0
 10
-5.5593150108931475
 20
-0.6413839263364662
 30
0.0
 10
-5.498726930725432
 20
-0.6437613904823158
 30
0.0
 10
-5.442125121961718
 20
-0.6496489330824975
 30
0.0
 10
-5.389649193184537
 20
-0.6588379310346568
 30
0.0
 10
-5.341430375748493
 20
-0.6711158758965059
 30
0.0
 10
-5.2975917847283895
 20
-0.6862642818364408
 30
0.0
 10
-5.258247850329029
 20
-0.7040614063060671
 30
0.0
 10
-5.223504400199132
 20
-0.7242812912173455
 30
0.0
 10
-5.193458488681276
 20
-0.7466942831755856
 30
0.0
 10
-5.168198272713738
 20
-0.771067439473307
 30
0.0
 10
-5.147802911848487
 20
-0.7971647613806305
 30
0.0
 10
-5.132342469849462
 20
-0.824747524687506
 30
0.0
 10
-5.1218778282442905
 20
-0.8535745947803253
 30
0.0
 10
-5.092343047621277
 20
-1.012930011113755
 30
0.0
 10
-5.064082612267079
 20
-1.1458849059893317
 30
0.0
 10
-5.032351507675081
 20
-1.2780544686389013
 30
0.0
 10
-4.997171480738815
 20
-1.4093481165760269
 30
0.0
 10
-4.9585666420838574
 20
-1.5396758677129267
 30
0.0
 10
-4.916563449202358
 20
-1.6689484018239225
 30
0.0
 10
-4.862463611730327
 20
-1.8217216310168736
 30
0.0
 10
-4.857112722172412
 20
-1.851918926809462
 30
0.0
 10
-4.856710476027141
 20
-1.8835365215659525
 30
0.0
 10
-4.86132471570161
 20
-1.9163351457419697
 30
0.0
 10
-4.871014126285661
 20
-1.950073026250069
 30
0.0
 10
-4.885828152944845
 20
-1.9845062024524263
 30
0.0
 10
-4.9058069285947274
 20
-2.0193888447109054
 30
0.0
 10
-4.930981211932598
 20
-2.054473575172339
 30
0.0
 10
-4.961372335892311
 20
-2.0895117904648317
 30
0.0
 10
-4.996992166578751
 20
-2.1242539859789544
 30
0.0
 10
-5.0378430727281724
 20
-2.158450081406141
 30
0.0
 10
-5.083917905730461
 20
-2.1918497472051914
 30
0.0
 10
-5.135199990239992
 20
-2.224202731666967
 30
0.0
 10
-5.191663125390898
 20
-2.255259188246423
 30
0.0
 10
-5.253271596623147
 20
-2.284770002830964
 30
0.0
 10
-5.3199801981155765
 20
-2.312487120613814
 30
0.0
 10
-5.391734265811616
 20
-2.3381638722413824
 30
0.0
 10
-5.468469721014063
 20
-2.361555298904133
 30
0.0
 10
-5.550113124514486
 20
-2.382418476041137
 30
0.0
 10
-5.636581741213386
 20
-2.400512835329751
 30
0.0
 10
-5.727783615176902
 20
-2.4156004846330883
 30
0.0
 10
-5.760449483417636
 20
-2.417630883010187
 30
0.0
 10
-5.767621408334815
 20
-2.422122279628464
 30
0.0
 10
-5.793141382985277
 20
-2.4390499795048193
 30
0.0
 10
-5.821666051928015
 20
-2.4590652697459268
 30
0.0
 10
-5.853047802358724
 20
-2.4823346668183435
 30
0.0
 10
-5.887134532390776
 20
-2.5090205359789457
 30
0.0
 10
-5.923766269831751
 20
-2.539278380180636
 30
0.0
 10
-5.962777138230989
 20
-2.573257886848065
 30
0.0
 10
-6.003995217641906
 20
-2.611102449411728
 30
0.0
 10
-6.04724276194941
 20
-2.6529489547985365
 30
0.0
 10
-6.092336423145707
 20
-2.6989275780246675
 30
0.0
 10
-6.139087482332313
 20
-2.7491615841095993
 30
0.0
 10
-6.18730208721607
 20
-2.80376713752007
 30
0.0
 10
-6.236781495863417
 20
-2.8628531193483853
 30
0.0
 10
-6.28732232646942
 20
-2.926520952420698
 30
0.0
 10
-6.33871681289238
 20
-2.994864434523602
 30
0.0
 10
-6.390753065699652
 20
-3.067969579930417
 30
0.0
 10
-6.4432153384644515
 20
-3.1459144694003918
 30
0.0
 10
-6.495884299047667
 20
-3.2287691088153627
 30
0.0
 10
-6.548537305594666
 20
-3.316595296611581
 30
0.0
 10
-6.5884588156540405
 20
-3.3873196347021155
 30
0.0
 10
-6.537245267218627
 20
-3.48536276966486
 30
0.0
 10
-6.477446846447606
 20
-3.5952762997277667
 30
0.0
 10
-6.415800572801013
 20
-3.7041641877736144
 30
0.0
 10
-6.352324032412165
 20
-3.8119953708231415
 30
0.0
 10
-6.2870353335435745
 20
-3.9187390873484897
 30
0.0
 10
-6.227734262216877
 20
-4.012112888792875
 30
0.0
 10
-6.146524433734935
 20
-4.012902015969287
 30
0.0
 10
-6.044138220712394
 20
-4.011216268612067
 30
0.0
 10
-5.946049517866047
 20
-4.007030930463569
 30
0.0
 10
-5.852316127107404
 20
-4.000569714243966
 30
0.0
 10
-5.76298708763416
 20
-3.9920575700985297
 30
0.0
 10
-5.67810265273848
 20
-3.981720380293245
 30
0.0
 10
-5.597694276590916
 20
-3.969784653596233
 30
0.0
 10
-5.521784610996434
 20
-3.9564772196575664
 30
0.0
 10
-5.4503875121133145
 20
-3.9420249237000258
 30
0.0
 10
-5.383508057116609
 20
-3.9266543218330634
 30
0.0
 10
-5.321142570791661
 20
-3.910591377305141
 30
0.0
 10
-5.263278661889925
 20
-3.8940611579702553
 30
0.0
 10
-5.209895269617145
 20
-3.877287535389982
 30
0.0
 10
-5.160962719430749
 20
-3.86049288566489
 30
0.0
 10
-5.116442788966396
 20
-3.8438977925565903
 30
0.0
 10
-5.0762887833383035
 20
-3.827720752998174
 30
0.0
 10
-5.040445620060675
 20
-3.8121778853964363
 30
0.0
 10
-5.008849923431777
 20
-3.7974826410051166
 30
0.0
 10
-4.981430128217137
 20
-3.7838455186388056
 30
0.0
 10
-4.973954503419907
 20
-3.779880148428054
 30
0.0
 10
-4.955863192674695
 20
-3.75260587580689
 30
0.0
 10
-4.897195968112875
 20
-3.681166560733435
 30
0.0
 10
-4.8382914849543015
 20
-3.6153297216863827
 30
0.0
 10
-4.779401741799754
 20
-3.5550560487721237
 30
0.0
 10
-4.7207764444778135
 20
-3.5002969085272277
 30
0.0
 10
-4.662662691433656
 20
-3.4509944388913705
 30
0.0
 10
-4.605304662567811
 20
-3.407081654239427
 30
0.0
 10
-4.548943311832265
 20
-3.368482560358968
 30
0.0
 10
-4.493816063905398
 20
-3.3351122792329564
 30
0.0
 10
-4.440156515240703
 20
-3.306877183495991
 30
0.0
 10
-4.388194139651088
 20
-3.2836750405717545
 30
0.0
 10
-4.338154153266786
 20
-3.2653949818450583
 30
0.0
 10
-4.290256459995804
 20
-3.2519185852836614
 30
0.0
 10
-4.244716923536311
 20
-3.243118194144433
 30
0.0
 10
-4.201745514626824
 20
-3.2388589888497634
 30
0.0
 10
-4.161546861743576
 20
-3.238998197779579
 30
0.0
 10
-4.124319843110132
 20
-3.243385462431302
 30
0.0
 10
-4.090257276228302
 20
-3.2518631269717693
 30
0.0
 10
-4.059545714645982
 20
-3.2642663902816267
 30
0.0
 10
-4.032365197467653
 20
-3.2804235430124415
 30
0.0
 10
-4.008889016949666
 20
-3.300156197226912
 30
0.0
 10
-3.90363343846822
 20
-3.4233946456908004
 30
0.0
 10
-3.8126817360916885
 20
-3.5244067445334406
 30
0.0
 10
-3.7191170121000927
 20
-3.623003391099048
 30
0.0
 10
-3.6230033910989023
 20
-3.7191170120999955
 30
0.0
 10
-3.52440674454626
 20
-3.8126817360751684
 30
0.0
 10
-3.4233946454153266
 20
-3.903633438186132
 30
0.0
 10
-3.3001561972274627
 20
-4.008889016949394
 30
0.0
 10
-3.2804235430411692
 20
-4.032365197452411
 30
0.0
 10
-3.2642663902825446
 20
-4.059545714645458
 30
0.0
 10
-3.2518631269717764
 20
-4.090257276228303
 30
0.0
 10
-3.2433854624312133
 20
-4.124319843110186
 30
0.0
 10
-3.2389981977492277
 20
-4.161546861764005
 30
0.0
 10
-3.238859003869297
 20
-4.201745503935914
 30
0.0
 10
-3.243118207531243
 20
-4.24471691346938
 30
0.0
 10
-3.2519185852836703
 20
-4.290256459995804
 30
0.0
 10
-3.265395165779567
 20
-4.3381539992375
 30
0.0
 10
-3.2836750405589856
 20
-4.3881941396623905
 30
0.0
 10
-3.306877183514568
 20
-4.440156515223423
 30
0.0
 10
-3.335112279227955
 20
-4.49381606391033
 30
0.0
 10
-3.368482560356225
 20
-4.54894331183512
 30
0.0
 10
-3.407081654239405
 20
-4.605304662567829
 30
0.0
 10
-3.4509944388913567
 20
-4.662662691433677
 30
0.0
 10
-3.5002969085272104
 20
-4.720776444477835
 30
0.0
 10
-3.555056048772118
 20
-4.779401741799761
 30
0.0
 10
-3.6153297216864058
 20
-4.838291484954273
 30
0.0
 10
-3.681166560733446
 20
-4.897195968112866
 30
0.0
 10
-3.7526058758069283
 20
-4.955863192674704
 30
0.0
 10
-3.7798801483515305
 20
-4.973954503369441
 30
0.0
 10
-3.7838455192147036
 20
-4.981430129397929
 30
0.0
 10
-3.79748261562776
 20
-5.008849934843723
 30
0.0
 10
-3.8121780584461584
 20
-5.04044601912801
 30
0.0
 10
-3.8277207529981676
 20
-5.076288783338824
 30
0.0
 10
-3.8438977925575655
 20
-5.11644278897
 30
0.0
 10
-3.8604928856653666
 20
-5.160962719432902
 30
0.0
 10
-3.8772875353890837
 20
-5.209895269614578
 30
0.0
 10
-3.8940611579723097
 20
-5.263278661895278
 30
0.0
 10
-3.910591377300498
 20
-5.32114257077361
 30
0.0
 10
-3.9266543218330745
 20
-5.38350805711662
 30
0.0
 10
-3.942024923700039
 20
-5.450387512113337
 30
0.0
 10
-3.9564772196575664
 20
-5.521784610996391
 30
0.0
 10
-3.9697846535962427
 20
-5.59769427659093
 30
0.0
 10
-3.981720380293251
 20
-5.6781026527384615
 30
0.0
 10
-3.9920575700985363
 20
-5.762987087634143
 30
0.0
 10
-4.0005697142439764
 20
-5.852316127107437
 30
0.0
 10
-4.007030930463574
 20
-5.946049517866005
 30
0.0
 10
-4.011216268612075
 20
-6.044138220712377
 30
0.0
 10
-4.012902015969295
 20
-6.146524433734944
 30
0.0
 10
-4.012112888792881
 20
-6.227734262216873
 30
0.0
 10
-3.9187390873484973
 20
-6.28703533354357
 30
0.0
 10
-3.811995370823148
 20
-6.352324032412161
 30
0.0
 10
-3.7041641877736193
 20
-6.415800572801009
 30
0.0
 10
-3.5952762997277654
 20
-6.477446846447606
 30
0.0
 10
-3.4853627696648593
 20
-6.537245267218626
 30
0.0
 10
-3.387319634702114
 20
-6.58845881565404
 30
0.0
 10
-3.316595296611569
 20
-6.5485373055946585
 30
0.0
 10
-3.228769108815373
 20
-6.495884299047673
 30
0.0
 10
-3.1459144694004233
 20
-6.443215338464471
 30
0.0
 10
-3.0679695799303857
 20
-6.39075306569963
 30
0.0
 10
-2.9948644345236124
 20
-6.338716812892385
 30
0.0
 10
-2.926520952420709
 20
-6.287322326469427
 30
0.0
 10
-2.8628531193483706
 20
-6.236781495863404
 30
0.0
 10
-2.8037671375201003
 20
-6.187302087216095
 30
0.0
 10
-2.74916158410958
 20
-6.139087482332293
 30
0.0
 10
-2.698927578024655
 20
-6.092336423145695
 30
0.0
 10
-2.652948954811841
 20
-6.047242761962459
 30
0.0
 10
-2.6111024494081114
 20
-6.003995217637452
 30
0.0
 10
-2.5732578868498313
 20
-5.9627771382330526
 30
0.0
 10
-2.5392783801790015
 20
-5.923766269830264
 30
0.0
 10
-2.509020535976305
 20
-5.8871345323881314
 30
0.0
 10
-2.4823346668178816
 20
-5.853047802358471
 30
0.0
 10
-2.459065010668331
 20
-5.821665702528894
 30
0.0
 10
-2.439049956933098
 20
-5.793141399256741
 30
0.0
 10
-2.4221222788938084
 20
-5.767621407245679
 30
0.0
 10
-2.417630883015622
 20
-5.760449483509143
 30
0.0
 10
-2.4156004846330923
 20
-5.727783615176868
 30
0.0
 10
-2.400512835329758
 20
-5.636581741213385
 30
0.0
 10
-2.3824184760411664
 20
-5.550113124514484
 30
0.0
 10
-2.3615552989041166
 20
-5.468469721014068
 30
0.0
 10
-2.3381638722413483
 20
-5.391734265811623
 30
0.0
 10
-2.312487120613782
 20
-5.319980198115581
 30
0.0
 10
-2.2847700028309306
 20
-5.25327159662316
 30
0.0
 10
-2.255259188242573
 20
-5.191663125391849
 30
0.0
 10
-2.224202731660189
 20
-5.135199990241861
 30
0.0
 10
-2.1918497472294387
 20
-5.083917905723016
 30
0.0
 10
-2.1584500813899616
 20
-5.037843072733582
 30
0.0
 10
-2.124254211339477
 20
-4.99699208430144
 30
0.0
 10
-2.0895117904648295
 20
-4.961372335892307
 30
0.0
 10
-2.054473590583955
 20
-4.930981205372748
 30
0.0
 10
-2.019388861479265
 20
-4.905806920932887
 30
0.0
 10
-1.9845062024195517
 20
-4.885828152960918
 30
0.0
 10
-1.9500730262499708
 20
-4.871014126285714
 30
0.0
 10
-1.9163351457419666
 20
-4.861324715701606
 30
0.0
 10
-1.883536521566859
 20
-4.85671047602661
 30
0.0
 10
-1.851918926837019
 20
-4.857112722155156
 30
0.0
 10
-1.8217216310173772
 20
-4.8624636117299875
 30
0.0
 10
-1.6689484019304743
 20
-4.916563449581972
 30
0.0
 10
-1.5396758677336366
 20
-4.958566642081017
 30
0.0
 10
-1.4093481165760315
 20
-4.997171480738991
 30
0.0
 10
-1.2780544686388173
 20
-5.0323515076749255
 30
0.0
 10
-1.1458849060086873
 20
-5.064082612259183
 30
0.0
 10
-1.0129300110162252
 20
-5.092343047239245
 30
0.0
 10
-0.8535745947809315
 20
-5.121877828244332
 30
0.0
 10
-0.8247475247199995
 20
-5.132342469850627
 30
0.0
 10
-0.7971647613816815
 20
-5.147802911848493
 30
0.0
 10
-0.7710674394733067
 20
-5.1681982727137425
 30
0.0
 10
-0.7466942831754746
 20
-5.193458488681278
 30
0.0
 10
-0.7242812911808392
 20
-5.22350440020165
 30
0.0
 10
-0.7040614246588134
 20
-5.258247848580198
 30
0.0
 10
-0.6862642984632169
 20
-5.297591782703577
 30
0.0
 10
-0.6711158758965067
 20
-5.341430375748498
 30
0.0
 10
-0.6588381673412508
 20
-5.389649151758517
 30
0.0
 10
-0.6496489330657804
 20
-5.442125121965122
 30
0.0
 10
-0.6437613905070372
 20
-5.498726930719755
 30
0.0
 10
-0.641383926329662
 20
-5.559315010894918
 30
0.0
 10
-0.6427198135557772
 20
-5.623741748602644
 30
0.0
 10
-0.647966934055317
 20
-5.691851657070365
 30
0.0
 10
-0.6573175066818986
 20
-5.763481559505166
 30
0.0
 10
-0.6709578213337802
 20
-5.838460780768589
 30
0.0
 10
-0.6890679792143014
 20
-5.9166113476762465
 30
0.0
 10
-0.7118216395602129
 20
-5.997748197727539
 30
0.0
 10
-0.7393857731005203
 20
-6.081679396063192
 30
0.0
 10
-0.7719204225021973
 20
-6.168206360440012
 30
0.0
 10
-0.7864949800481944
 20
-6.197511031361713
 30
0.0
 10
-0.7861912789368846
 20
-6.2059677988431625
 30
0.0
 10
-0.7842914481415528
 20
-6.236532595132575
 30
0.0
 10
-0.7812200328000041
 20
-6.271243328192081
 30
0.0
 10
-0.7767590190198985
 20
-6.310055419816506
 30
0.0
 10
-0.7706917434207753
 20
-6.352918328536506
 30
0.0
 10
-0.7628035503988477
 20
-6.399771265845998
 30
0.0
 10
-0.7528818686164102
 20
-6.450545422237144
 30
0.0
 10
-0.7407165557466265
 20
-6.505163607384033
 30
0.0
 10
-0.7261001911758006
 20
-6.56354033209903
 30
0.0
 10
-0.7088283660290865
 20
-6.625581899857737
 30
0.0
 10
-0.6886999702189763
 20
-6.6911865078096335
 30
0.0
 10
-0.665517476219679
 20
-6.760244357177632
 30
0.0
 10
-0.6390872192724858
 20
-6.832637772944623
 30
0.0
 10
-0.6092196737309573
 20
-6.908241332713944
 30
0.0
 10
-0.5757297252582352
 20
-6.986922004622134
 30
0.0
 10
-0.538436938592215
 20
-7.068539294174388
 30
0.0
 10
-0.4971658205984464
 20
-7.1529453998639605
 30
0.0
 10
-0.45174607833529
 20
-7.239985377427431
 30
0.0
 10
-0.40201287185972134
 20
-7.3294973125808704
 30
0.0
 10
-0.36072455343716625
 20
-7.399432523494991
 30
0.0
 10
-0.25020993367505695
 20
-7.404101857013352
 30
0.0
 10
-0.12512281403544423
 20
-7.40727167055091
 30
0.0
 10
8.881784197001252e-16
 20
-7.408328375547238
 30
0.0
 10
0.12512281403544456
 20
-7.40727167055091
 30
0.0
 10
0.2502099336750563
 20
-7.404101857013352
 30
0.0
 10
0.3607245534371666
 20
-7.399432523494992
 30
0.0
 10
0.40201287185972756
 20
-7.32949731258086
 30
0.0
 10
0.45174607833528313
 20
-7.239985377427444
 30
0.0
 10
0.4971658205984282
 20
-7.152945399863995
 30
0.0
 10
0.5384369385922305
 20
-7.0685392941743554
 30
0.0
 10
0.575729725258229
 20
-6.986922004622145
 30
0.0
 10
0.6092196737309514
 20
-6.908241332713957
 30
0.0
 10
0.6390872192724921
 20
-6.832637772944606
 30
0.0
 10
0.665517476219665
 20
-6.760244357177669
 30
0.0
 10
0.6886999702189831
 20
-6.691186507809608
 30
0.0
 10
0.7088283660290906
 20
-6.625581899857721
 30
0.0
 10
0.7261001911708029
 20
-6.563540332116984
 30
0.0
 10
0.7407165557475315
 20
-6.505163607378369
 30
0.0
 10
0.7528818686159111
 20
-6.4505454222398155
 30
0.0
 10
0.7628035503995187
 20
-6.399771265843894
 30
0.0
 10
0.7706917434217391
 20
-6.352918328532898
 30
0.0
 10
0.7767590190201714
 20
-6.310055419816058
 30
0.0
 10
0.7812200824682223
 20
-6.27124289606477
 30
0.0
 10
0.7842914758249679
 20
-6.236532597938217
 30
0.0
 10
0.7861912790285461
 20
-6.205967797532616
 30
0.0
 10
0.7864949800892402
 20
-6.197511031443678
 30
0.0
 10
0.7719204225021756
 20
-6.168206360439986
 30
0.0
 10
0.7393857731005125
 20
-6.081679396063196
 30
0.0
 10
0.7118216395601848
 20
-5.997748197727551
 30
0.0
 10
0.6890679792143168
 20
-5.916611347676243
 30
0.0
 10
0.6709578213338121
 20
-5.838460780768578
 30
0.0
 10
0.657317506681927
 20
-5.763481559505155
 30
0.0
 10
0.6479669340553511
 20
-5.69185165707036
 30
0.0
 10
0.6427198135595857
 20
-5.623741748601543
 30
0.0
 10
0.6413839263364651
 20
-5.5593150108931475
 30
0.0
 10
0.6437613904823147
 20
-5.498726930725432
 30
0.0
 10
0.6496489330824962
 20
-5.442125121961719
 30
0.0
 10
0.6588379310346562
 20
-5.389649193184537
 30
0.0
 10
0.6711158758965052
 20
-5.3414303757484936
 30
0.0
 10
0.6862642818364402
 20
-5.2975917847283895
 30
0.0
 10
0.7040614063060664
 20
-5.25824785032903
 30
0.0
 10
0.7242812912173449
 20
-5.223504400199133
 30
0.0
 10
0.746694283175585
 20
-5.193458488681276
 30
0.0
 10
0.7710674394733064
 20
-5.168198272713738
 30
0.0
 10
0.7971647613806299
 20
-5.147802911848488
 30
0.0
 10
0.8247475246875053
 20
-5.132342469849463
 30
0.0
 10
0.8535745947803246
 20
-5.121877828244291
 30
0.0
 10
1.0129300111137542
 20
-5.092343047621276
 30
0.0
 10
1.145884905989331
 20
-5.06408261226708
 30
0.0
 10
1.2780544686389006
 20
-5.032351507675081
 30
0.0
 10
1.409348116576026
 20
-4.997171480738814
 30
0.0
 10
1.5396758677129256
 20
-4.9585666420838574
 30
0.0
 10
1.6689484018239213
 20
-4.916563449202359
 30
0.0
 10
1.8217216310168727
 20
-4.862463611730327
 30
0.0
 10
1.8519189268094611
 20
-4.857112722172412
 30
0.0
 10
1.8835365215659514
 20
-4.856710476027141
 30
0.0
 10
1.9163351457419688
 20
-4.861324715701611
 30
0.0
 10
1.950073026250068
 20
-4.871014126285662
 30
0.0
 10
1.9845062024524251
 20
-4.885828152944845
 30
0.0
 10
2.019388844710904
 20
-4.905806928594728
 30
0.0
 10
2.054473575172338
 20
-4.930981211932598
 30
0.0
 10
2.089511790464831
 20
-4.961372335892312
 30
0.0
 10
2.1242539859789535
 20
-4.996992166578752
 30
0.0
 10
2.1584500814061403
 20
-5.037843072728173
 30
0.0
 10
2.19184974720519
 20
-5.083917905730461
 30
0.0
 10
2.224202731666966
 20
-5.135199990239993
 30
0.0
 10
2.255259188246422
 20
-5.191663125390899
 30
0.0
 10
2.284770002830963
 20
-5.253271596623148
 30
0.0
 10
2.3124871206138127
 20
-5.3199801981155765
 30
0.0
 10
2.3381638722413816
 20
-5.391734265811616
 30
0.0
 10
2.361555298904132
 20
-5.468469721014063
 30
0.0
 10
2.382418476041136
 20
-5.550113124514487
 30
0.0
 10
2.4005128353297502
 20
-5.636581741213387
 30
0.0
 10
2.415600484633088
 20
-5.727783615176903
 30
0.0
 10
2.4176308830101867
 20
-5.760449483417637
 30
0.0
 10
2.4221222796284634
 20
-5.767621408334816
 30
0.0
 10
2.439049979504819
 20
-5.793141382985278
 30
0.0
 10
2.4590652697459263
 20
-5.821666051928016
 30
0.0
 10
2.4823346668183426
 20
-5.8530478023587245
 30
0.0
 10
2.5090205359789453
 20
-5.887134532390776
 30
0.0
 10
2.5392783801806353
 20
-5.923766269831752
 30
0.0
 10
2.5732578868480647
 20
-5.96277713823099
 30
0.0
 10
2.6111024494117276
 20
-6.003995217641906
 30
0.0
 10
2.652948954798536
 20
-6.047242761949411
 30
0.0
 10
2.698927578024667
 20
-6.092336423145708
 30
0.0
 10
2.749161584109599
 20
-6.139087482332314
 30
0.0
 10
2.8037671375200697
 20
-6.187302087216071
 30
0.0
 10
2.862853119348385
 20
-6.236781495863418
 30
0.0
 10
2.9265209524206974
 20
-6.287322326469421
 30
0.0
 10
2.9948644345236017
 20
-6.338716812892381
 30
0.0
 10
3.0679695799304163
 20
-6.390753065699653
 30
0.0
 10
3.145914469400391
 20
-6.443215338464452
 30
0.0
 10
3.2287691088153614
 20
-6.495884299047668
 30
0.0
 10
3.31659529661158
 20
-6.5485373055946665
 30
0.0
 10
3.3873196347021146
 20
-6.588458815654041
 30
0.0
 10
3.4853627696648593
 20
-6.537245267218628
 30
0.0
 10
3.595276299727766
 20
-6.477446846447607
 30
0.0
 10
3.7041641877736144
 20
-6.415800572801013
 30
0.0
 10
3.8119953708231415
 20
-6.352324032412165
 30
0.0
 10
3.9187390873484897
 20
-6.2870353335435745
 30
0.0
 10
4.012112888792875
 20
-6.227734262216877
 30
0.0
 10
4.012902015969287
 20
-6.146524433734935
 30
0.0
 10
4.011216268612067
 20
-6.044138220712394
 30
0.0
 10
4.007030930463569
 20
-5.946049517866047
 30
0.0
 10
4.000569714243966
 20
-5.852316127107404
 30
0.0
 10
3.9920575700985297
 20
-5.76298708763416
 30
0.0
 10
3.981720380293245
 20
-5.67810265273848
 30
0.0
 10
3.969784653596233
 20
-5.597694276590916
 30
0.0
 10
3.9564772196575664
 20
-5.521784610996434
 30
0.0
 10
3.9420249237000258
 20
-5.4503875121133145
 30
0.0
 10
3.9266543218330634
 20
-5.383508057116609
 30
0.0
 10
3.910591377305141
 20
-5.321142570791661
 30
0.0
 10
3.8940611579702553
 20
-5.263278661889925
 30
0.0
 10
3.877287535389982
 20
-5.209895269617145
 30
0.0
 10
3.86049288566489
 20
-5.160962719430749
 30
0.0
 10
3.8438977925565903
 20
-5.116442788966396
 30
0.0
 10
3.827720752998174
 20
-5.0762887833383035
 30
0.0
 10
3.8121778853964363
 20
-5.040445620060675
 30
0.0
 10
3.7974826410051166
 20
-5.008849923431777
 30
0.0
 10
3.7838455186388056
 20
-4.981430128217137
 30
0.0
 10
3.779880148428054
 20
-4.973954503419907
 30
0.0
 10
3.75260587580689
 20
-4.955863192674695
 30
0.0
 10
3.681166560733435
 20
-4.897195968112875
 30
0.0
 10
3.6153297216863827
 20
-4.8382914849543015
 30
0.0
 10
3.5550560487721237
 20
-4.779401741799754
 30
0.0
 10
3.5002969085272277
 20
-4.7207764444778135
 30
0.0
 10
3.4509944388913705
 20
-4.662662691433656
 30
0.0
 10
3.407081654239427
 20
-4.605304662567811
 30
0.0
 10
3.368482560358968
 20
-4.548943311832265
 30
0.0
 10
3.3351122792329564
 20
-4.493816063905398
 30
0.0
 10
3.306877183495991
 20
-4.440156515240703
 30
0.0
 10
3.2836750405717545
 20
-4.388194139651088
 30
0.0
 10
3.2653949818450583
 20
-4.338154153266786
 30
0.0
 10
3.2519185852836614
 20
-4.290256459995804
 30
0.0
 10
3.243118194144433
 20
-4.244716923536311
 30
0.0
 10
3.2388589888497634
 20
-4.201745514626824
 30
0.0
 10
3.238998197779579
 20
-4.161546861743576
 30
0.0
 10
3.243385462431302
 20
-4.124319843110132
 30
0.0
 10
3.2518631269717693
 20
-4.090257276228302
 30
0.0
 10
3.2642663902816267
 20
-4.059545714645982
 30
0.0
 10
3.2804235430124415
 20
-4.032365197467653
 30
0.0
 10
3.300156197226912
 20
-4.008889016949666
 30
0.0
 10
3.4233946456908004
 20
-3.90363343846822
 30
0.0
 10
3.5244067445334406
 20
-3.8126817360916885
 30
0.0
 10
3.623003391099048
 20
-3.7191170121000927
 30
0.0
 10
3.7191170120999955
 20
-3.6230033910989023
 30
0.0
 10
3.8126817360751684
 20
-3.52440674454626
 30
0.0
 10
3.903633438186132
 20
-3.4233946454153266
 30
0.0
 10
4.008889016949394
 20
-3.3001561972274627
 30
0.0
 10
4.032365197452411
 20
-3.2804235430411692
 30
0.0
 10
4.059545714645458
 20
-3.2642663902825446
 30
0.0
 10
4.090257276228303
 20
-3.2518631269717764
 30
0.0
 10
4.124319843110186
 20
-3.2433854624312133
 30
0.0
 10
4.161546861764005
 20
-3.2389981977492277
 30
0.0
 10
4.201745503935914
 20
-3.238859003869297
 30
0.0
 10
4.24471691346938
 20
-3.243118207531243
 30
0.0
 10
4.290256459995804
 20
-3.2519185852836703
 30
0.0
 10
4.3381539992375
 20
-3.265395165779567
 30
0.0
 10
4.3881941396623905
 20
-3.2836750405589856
 30
0.0
 10
4.440156515223423
 20
-3.306877183514568
 30
0.0
 10
4.49381606391033
 20
-3.335112279227955
 30
0.0
 10
4.54894331183512
 20
-3.368482560356225
 30
0.0
 10
4.605304662567829
 20
-3.407081654239405
 30
0.0
 10
4.662662691433677
 20
-3.4509944388913567
 30
0.0
 10
4.720776444477835
 20
-3.5002969085272104
 30
0.0
 10
4.779401741799761
 20
-3.555056048772118
 30
0.0
 10
4.838291484954273
 20
-3.6153297216864058
 30
0.0
 10
4.897195968112866
 20
-3.681166560733446
 30
0.0
 10
4.955863192674704
 20
-3.7526058758069283
 30
0.0
 10
4.973954503369441
 20
-3.7798801483515305
 30
0.0
 10
4.981430129397929
 20
-3.7838455192147036
 30
0.0
 10
5.008849934843723
 20
-3.79748261562776
 30
0.0
 10
5.04044601912801
 20
-3.8121780584461584
 30
0.0
 10
5.076288783338824
 20
-3.8277207529981676
 30
0.0
 10
5.11644278897
 20
-3.8438977925575655
 30
0.0
 10
5.160962719432902
 20
-3.8604928856653666
 30
0.0
 10
5.209895269614578
 20
-3.8772875353890837
 30
0.0
 10
5.263278661895278
 20
-3.8940611579723097
 30
0.0
 10
5.32114257077361
 20
-3.910591377300498
 30
0.0
 10
5.38350805711662
 20
-3.9266543218330745
 30
0.0
 10
5.450387512113337
 20
-3.942024923700039
 30
0.0
 10
5.521784610996391
 20
-3.9564772196575664
 30
0.0
 10
5.59769427659093
 20
-3.9697846535962427
 30
0.0
 10
5.6781026527384615
 20
-3.981720380293251
 30
0.0
 10
5.762987087634143
 20
-3.9920575700985363
 30
0.0
 10
5.852316127107437
 20
-4.0005697142439764
 30
0.0
 10
5.946049517866005
 20
-4.007030930463574
 30
0.0
 10
6.044138220712377
 20
-4.011216268612075
 30
0.0
 10
6.146524433734944
 20
-4.012902015969295
 30
0.0
 10
6.227734262216873
 20
-4.012112888792881
 30
0.0
 10
6.28703533354357
 20
-3.9187390873484973
 30
0.0
 10
6.352324032412161
 20
-3.811995370823148
 30
0.0
  0
LWPOLYLINE
  8
OpenJsCad
  90
361
  70
1
 10
0.05541139043837515
 20
-3.174516432121542
 30
0.0
 10
0
 20
-3.175
 30
0.0
 10
-0.0554113904383783
 20
-3.174516432121542
 30
0.0
 10
-0.11080590203043993
 20
-3.1730658757856287
 30
0.0
 10
-0.16616666107134856
 20
-3.1706487728457713
 30
0.0
 10
-0.22147680413759593
 20
-3.1672658595749414
 30
0.0
 10
-0.2767194832238153
 20
-3.1629181664412918
 30
0.0
 10
-0.33187787087479975
 20
-3.1576070177942674
 30
0.0
 10
-0.3869351653113451
 20
-3.151334031461197
 30
0.0
 10
-0.44187459554820896
 20
-3.144101118254486
 30
0.0
 10
-0.4966794265027336
 20
-3.1359104813895624
 30
0.0
 10
-0.5513329640925069
 20
-3.12676461581376
 30
0.0
 10
-0.6058185603205292
 20
-3.116666307446333
 30
0.0
 10
-0.6601196183463878
 20
-3.1056186323298327
 30
0.0
 10
-0.7142195975417726
 20
-3.0936249556931212
 30
0.0
 10
-0.7681020185289457
 20
-3.080688930926289
 30
0.0
 10
-0.8217504682005035
 20
-3.066814498467792
 30
0.0
 10
-0.875148604718974
 20
-3.052005884604162
 30
0.0
 10
-0.9282801624946879
 20
-3.036267600182638
 30
0.0
 10
-0.9811289571404584
 20
-3.0196044392371117
 30
0.0
 10
-1.0336788904014755
 20
-3.0020214775278293
 30
0.0
 10
-1.0859139550589976
 20
-2.983524070995259
 30
0.0
 10
-1.1378182398063301
 20
-2.964117854128615
 30
0.0
 10
-1.189375934095522
 20
-2.9438087382495493
 30
0.0
 10
-1.2405713329534471
 20
-2.9226029097114967
 30
0.0
 10
-1.2913888417656656
 20
-2.9005068280152577
 30
0.0
 10
-1.3418129810267223
 20
-2.8775272238413625
 30
0.0
 10
-1.3918283910553195
 20
-2.853671096999856
 30
0.0
 10
-1.4414198366730613
 20
-2.8289457142980674
 30
0.0
 10
-1.4905722118452032
 20
-2.803358607327093
 30
0.0
 10
-1.5392705442821195
 20
-2.7769175701675817
 30
0.0
 10
-1.5875000000000017
 20
-2.7496306570155915
 30
0.0
 10
-1.635245887839423
 20
-2.721506179729206
 30
0.0
 10
-1.6824936639404282
 20
-2.6925527052966505
 30
0.0
 10
-1.729228936172711
 20
-2.6627790532267213
 30
0.0
 10
-1.7754374685196228
 20
-2.6321942928622564
 30
0.0
 10
-1.8211051854145721
 20
-2.6008077406175483
 30
0.0
 10
-1.8662181760286025
 20
-2.5686289571404575
 30
0.0
 10
-1.910762698507753
 20
-2.5356677444001545
 30
0.0
 10
-1.954725184158967
 20
-2.501934142701341
 30
0.0
 10
-1.9980922415832354
 20
-2.4674384276258814
 30
0.0
 10
-2.0408506607547627
 20
-2.4321911069027546
 30
0.0
 10
-2.0829874170448606
 20
-2.3962029172073005
 30
0.0
 10
-2.1244896751893747
 20
-2.359484820890727
 30
0.0
 10
-2.165344793198432
 20
-2.3220480026408667
 30
0.0
 10
-2.2055403262073177
 20
-2.2839038660752164
 30
0.0
 10
-2.2450640302672884
 20
-2.2450640302672875
 30
0.0
 10
-2.283903866075219
 20
-2.2055403262073145
 30
0.0
 10
-2.3220480026408676
 20
-2.1653447931984307
 30
0.0
 10
-2.3594848208907275
 20
-2.124489675189374
 30
0.0
 10
-2.396202917207302
 20
-2.0829874170448597
 30
0.0
 10
-2.4321911069027555
 20
-2.040850660754762
 30
0.0
 10
-2.4674384276258823
 20
-1.9980922415832343
 30
0.0
 10
-2.5019341427013413
 20
-1.9547251841589657
 30
0.0
 10
-2.5356677444001554
 20
-1.9107626985077522
 30
0.0
 10
-2.5686289571404584
 20
-1.8662181760286014
 30
0.0
 10
-2.6008077406175487
 20
-1.821105185414571
 30
0.0
 10
-2.6321942928622586
 20
-1.7754374685196195
 30
0.0
 10
-2.6627790532267217
 20
-1.7292289361727096
 30
0.0
 10
-2.6925527052966527
 20
-1.6824936639404247
 30
0.0
 10
-2.7215061797292064
 20
-1.6352458878394218
 30
0.0
 10
-2.749630657015593
 20
-1.5875000000000004
 30
0.0
 10
-2.776917570167582
 20
-1.5392705442821184
 30
0.0
 10
-2.803358607327093
 20
-1.4905722118452023
 30
0.0
 10
-2.828945714298068
 20
-1.4414198366730602
 30
0.0
 10
-2.853671096999855
 20
-1.3918283910553206
 30
0.0
 10
-2.877527223841363
 20
-1.3418129810267214
 30
0.0
 10
-2.900506828015257
 20
-1.291388841765667
 30
0.0
 10
-2.9226029097114985
 20
-1.2405713329534434
 30
0.0
 10
-2.9438087382495497
 20
-1.1893759340955206
 30
0.0
 10
-2.964117854128616
 20
-1.137818239806326
 30
0.0
 10
-2.9835240709952595
 20
-1.0859139550589962
 30
0.0
 10
-3.0020214775278307
 20
-1.0336788904014713
 30
0.0
 10
-3.019604439237112
 20
-0.9811289571404576
 30
0.0
 10
-3.0362676001826374
 20
-0.9282801624946894
 30
0.0
 10
-3.052005884604162
 20
-0.8751486047189732
 30
0.0
 10
-3.066814498467792
 20
-0.8217504682005049
 30
0.0
 10
-3.080688930926289
 20
-0.768102018528944
 30
0.0
 10
-3.0936249556931217
 20
-0.7142195975417711
 30
0.0
 10
-3.105618632329833
 20
-0.6601196183463834
 30
0.0
 10
-3.116666307446333
 20
-0.6058185603205279
 30
0.0
 10
-3.12676461581376
 20
-0.5513329640925025
 30
0.0
 10
-3.1359104813895624
 20
-0.4966794265027323
 30
0.0
 10
-3.144101118254486
 20
-0.44187459554820774
 30
0.0
 10
-3.151334031461197
 20
-0.3869351653113439
 30
0.0
 10
-3.1576070177942674
 20
-0.3318778708747983
 30
0.0
 10
-3.1629181664412918
 20
-0.27671948322381373
 30
0.0
 10
-3.1672658595749414
 20
-0.22147680413759757
 30
0.0
 10
-3.1706487728457717
 20
-0.16616666107134703
 30
0.0
 10
-3.1730658757856287
 20
-0.11080590203044156
 30
0.0
 10
-3.174516432121542
 20
-0.05541139043837393
 30
0.0
 10
-3.175
 20
5.832380372807017e-16
 30
0.0
 10
-3.174516432121542
 20
0.05541139043837515
 30
0.0
 10
-3.1730658757856287
 20
0.1108059020304431
 30
0.0
 10
-3.1706487728457713
 20
0.16616666107134856
 30
0.0
 10
-3.1672658595749414
 20
0.22147680413759907
 30
0.0
 10
-3.1629181664412918
 20
0.2767194832238153
 30
0.0
 10
-3.1576070177942674
 20
0.33187787087479975
 30
0.0
 10
-3.151334031461197
 20
0.3869351653113426
 30
0.0
 10
-3.1441011182544862
 20
0.4418745955482065
 30
0.0
 10
-3.1359104813895624
 20
0.4966794265027336
 30
0.0
 10
-3.12676461581376
 20
0.5513329640925038
 30
0.0
 10
-3.1166663074463328
 20
0.6058185603205323
 30
0.0
 10
-3.1056186323298327
 20
0.6601196183463878
 30
0.0
 10
-3.0936249556931212
 20
0.7142195975417726
 30
0.0
 10
-3.080688930926289
 20
0.7681020185289457
 30
0.0
 10
-3.066814498467792
 20
0.8217504682005035
 30
0.0
 10
-3.0520058846041622
 20
0.8751486047189717
 30
0.0
 10
-3.036267600182637
 20
0.9282801624946905
 30
0.0
 10
-3.0196044392371117
 20
0.9811289571404584
 30
0.0
 10
-3.0020214775278307
 20
1.0336788904014724
 30
0.0
 10
-2.983524070995258
 20
1.0859139550590005
 30
0.0
 10
-2.964117854128615
 20
1.1378182398063301
 30
0.0
 10
-2.9438087382495493
 20
1.189375934095522
 30
0.0
 10
-2.9226029097114976
 20
1.240571332953445
 30
0.0
 10
-2.9005068280152577
 20
1.2913888417656656
 30
0.0
 10
-2.8775272238413625
 20
1.3418129810267223
 30
0.0
 10
-2.8536710969998547
 20
1.391828391055322
 30
0.0
 10
-2.8289457142980674
 20
1.4414198366730613
 30
0.0
 10
-2.803358607327093
 20
1.4905722118452032
 30
0.0
 10
-2.7769175701675817
 20
1.5392705442821195
 30
0.0
 10
-2.7496306570155915
 20
1.5875000000000017
 30
0.0
 10
-2.721506179729206
 20
1.635245887839423
 30
0.0
 10
-2.692552705296652
 20
1.6824936639404262
 30
0.0
 10
-2.6627790532267217
 20
1.7292289361727105
 30
0.0
 10
-2.6321942928622564
 20
1.7754374685196228
 30
0.0
 10
-2.6008077406175483
 20
1.8211051854145721
 30
0.0
 10
-2.5686289571404575
 20
1.8662181760286025
 30
0.0
 10
-2.5356677444001545
 20
1.910762698507753
 30
0.0
 10
-2.5019341427013426
 20
1.9547251841589643
 30
0.0
 10
-2.4674384276258836
 20
1.998092241583233
 30
0.0
 10
-2.4321911069027546
 20
2.0408506607547627
 30
0.0
 10
-2.3962029172073
 20
2.0829874170448615
 30
0.0
 10
-2.3594848208907258
 20
2.1244896751893756
 30
0.0
 10
-2.3220480026408645
 20
2.1653447931984338
 30
0.0
 10
-2.2839038660752164
 20
2.205540326207317
 30
0.0
 10
-2.2450640302672875
 20
2.2450640302672884
 30
0.0
 10
-2.2055403262073168
 20
2.283903866075217
 30
0.0
 10
-2.165344793198432
 20
2.3220480026408663
 30
0.0
 10
-2.1244896751893747
 20
2.3594848208907266
 30
0.0
 10
-2.082987417044861
 20
2.3962029172073005
 30
0.0
 10
-2.040850660754762
 20
2.432191106902755
 30
0.0
 10
-1.9980922415832343
 20
2.467438427625882
 30
0.0
 10
-1.954725184158964
 20
2.501934142701343
 30
0.0
 10
-1.9107626985077524
 20
2.5356677444001554
 30
0.0
 10
-1.8662181760286018
 20
2.568628957140458
 30
0.0
 10
-1.8211051854145701
 20
2.6008077406175496
 30
0.0
 10
-1.775437468519621
 20
2.6321942928622577
 30
0.0
 10
-1.729228936172711
 20
2.6627790532267213
 30
0.0
 10
-1.682493663940425
 20
2.6925527052966527
 30
0.0
 10
-1.6352458878394218
 20
2.7215061797292064
 30
0.0
 10
-1.5875000000000006
 20
2.7496306570155924
 30
0.0
 10
-1.5392705442821197
 20
2.7769175701675812
 30
0.0
 10
-1.4905722118452036
 20
2.803358607327093
 30
0.0
 10
-1.441419836673059
 20
2.8289457142980687
 30
0.0
 10
-1.3918283910553195
 20
2.853671096999856
 30
0.0
 10
-1.3418129810267203
 20
2.877527223841364
 30
0.0
 10
-1.2913888417656643
 20
2.9005068280152577
 30
0.0
 10
-1.2405713329534436
 20
2.9226029097114985
 30
0.0
 10
-1.1893759340955208
 20
2.9438087382495497
 30
0.0
 10
-1.1378182398063288
 20
2.964117854128615
 30
0.0
 10
-1.085913955058998
 20
2.9835240709952586
 30
0.0
 10
-1.033678890401473
 20
3.0020214775278307
 30
0.0
 10
-0.981128957140459
 20
3.0196044392371117
 30
0.0
 10
-0.9282801624946881
 20
3.036267600182638
 30
0.0
 10
-0.8751486047189717
 20
3.0520058846041622
 30
0.0
 10
-0.8217504682005022
 20
3.066814498467792
 30
0.0
 10
-0.7681020185289443
 20
3.080688930926289
 30
0.0
 10
-0.7142195975417713
 20
3.0936249556931217
 30
0.0
 10
-0.6601196183463851
 20
3.105618632329833
 30
0.0
 10
-0.6058185603205296
 20
3.1166663074463328
 30
0.0
 10
-0.5513329640925041
 20
3.12676461581376
 30
0.0
 10
-0.4966794265027326
 20
3.1359104813895624
 30
0.0
 10
-0.4418745955482079
 20
3.144101118254486
 30
0.0
 10
-0.3869351653113441
 20
3.151334031461197
 30
0.0
 10
-0.3318778708747984
 20
3.1576070177942674
 30
0.0
 10
-0.27671948322381396
 20
3.1629181664412918
 30
0.0
 10
-0.22147680413759632
 20
3.1672658595749414
 30
0.0
 10
-0.1661666610713458
 20
3.1706487728457717
 30
0.0
 10
-0.11080590203044033
 20
3.1730658757856287
 30
0.0
 10
-0.055411390438374133
 20
3.174516432121542
 30
0.0
 10
3.8882535862485086e-16
 20
3.175
 30
0.0
 10
0.055411390438374515
 20
3.174516432121542
 30
0.0
 10
0.11080590203043932
 20
3.1730658757856287
 30
0.0
 10
0.16616666107134603
 20
3.1706487728457717
 30
0.0
 10
0.22147680413759843
 20
3.1672658595749414
 30
0.0
 10
0.2767194832238159
 20
3.1629181664412918
 30
0.0
 10
0.33187787087480036
 20
3.1576070177942674
 30
0.0
 10
0.3869351653113432
 20
3.151334031461197
 30
0.0
 10
0.44187459554820835
 20
3.144101118254486
 30
0.0
 10
0.496679426502733
 20
3.1359104813895624
 30
0.0
 10
0.5513329640925031
 20
3.12676461581376
 30
0.0
 10
0.6058185603205298
 20
3.1166663074463328
 30
0.0
 10
0.6601196183463852
 20
3.105618632329833
 30
0.0
 10
0.7142195975417701
 20
3.093624955693122
 30
0.0
 10
0.768102018528945
 20
3.080688930926289
 30
0.0
 10
0.8217504682005042
 20
3.066814498467792
 30
0.0
 10
0.8751486047189735
 20
3.052005884604162
 30
0.0
 10
0.9282801624946897
 20
3.036267600182637
 30
0.0
 10
0.9811289571404579
 20
3.019604439237112
 30
0.0
 10
1.033678890401473
 20
3.0020214775278307
 30
0.0
 10
1.085913955058998
 20
2.9835240709952586
 30
0.0
 10
1.1378182398063277
 20
2.9641178541286157
 30
0.0
 10
1.1893759340955214
 20
2.9438087382495497
 30
0.0
 10
1.2405713329534451
 20
2.9226029097114976
 30
0.0
 10
1.291388841765666
 20
2.9005068280152573
 30
0.0
 10
1.3418129810267208
 20
2.8775272238413634
 30
0.0
 10
1.39182839105532
 20
2.8536710969998555
 30
0.0
 10
1.4414198366730608
 20
2.8289457142980674
 30
0.0
 10
1.4905722118452038
 20
2.8033586073270924
 30
0.0
 10
1.5392705442821202
 20
2.7769175701675812
 30
0.0
 10
1.5874999999999995
 20
2.7496306570155933
 30
0.0
 10
1.6352458878394223
 20
2.7215061797292064
 30
0.0
 10
1.6824936639404255
 20
2.6925527052966522
 30
0.0
 10
1.7292289361727105
 20
2.6627790532267217
 30
0.0
 10
1.7754374685196213
 20
2.6321942928622573
 30
0.0
 10
1.8211051854145721
 20
2.6008077406175483
 30
0.0
 10
1.8662181760286025
 20
2.5686289571404575
 30
0.0
 10
1.910762698507753
 20
2.5356677444001545
 30
0.0
 10
1.9547251841589652
 20
2.5019341427013417
 30
0.0
 10
1.9980922415832347
 20
2.467438427625882
 30
0.0
 10
2.0408506607547627
 20
2.4321911069027546
 30
0.0
 10
2.0829874170448606
 20
2.396202917207301
 30
0.0
 10
2.1244896751893756
 20
2.3594848208907258
 30
0.0
 10
2.165344793198433
 20
2.322048002640866
 30
0.0
 10
2.2055403262073163
 20
2.283903866075217
 30
0.0
 10
2.2450640302672884
 20
2.2450640302672875
 30
0.0
 10
2.2839038660752182
 20
2.205540326207316
 30
0.0
 10
2.3220480026408663
 20
2.165344793198432
 30
0.0
 10
2.3594848208907266
 20
2.1244896751893747
 30
0.0
 10
2.3962029172073005
 20
2.082987417044861
 30
0.0
 10
2.432191106902755
 20
2.040850660754762
 30
0.0
 10
2.467438427625883
 20
1.9980922415832332
 30
0.0
 10
2.501934142701342
 20
1.954725184158965
 30
0.0
 10
2.5356677444001545
 20
1.9107626985077535
 30
0.0
 10
2.568628957140458
 20
1.8662181760286018
 30
0.0
 10
2.6008077406175496
 20
1.8211051854145701
 30
0.0
 10
2.6321942928622577
 20
1.775437468519621
 30
0.0
 10
2.6627790532267213
 20
1.729228936172711
 30
0.0
 10
2.6925527052966527
 20
1.682493663940425
 30
0.0
 10
2.7215061797292064
 20
1.6352458878394218
 30
0.0
 10
2.7496306570155933
 20
1.587499999999999
 30
0.0
 10
2.7769175701675812
 20
1.5392705442821197
 30
0.0
 10
2.803358607327093
 20
1.4905722118452025
 30
0.0
 10
2.8289457142980674
 20
1.4414198366730604
 30
0.0
 10
2.853671096999855
 20
1.3918283910553209
 30
0.0
 10
2.8775272238413634
 20
1.3418129810267203
 30
0.0
 10
2.9005068280152577
 20
1.2913888417656652
 30
0.0
 10
2.9226029097114985
 20
1.2405713329534438
 30
0.0
 10
2.9438087382495497
 20
1.1893759340955208
 30
0.0
 10
2.9641178541286153
 20
1.1378182398063283
 30
0.0
 10
2.9835240709952586
 20
1.085913955058998
 30
0.0
 10
3.0020214775278307
 20
1.0336788904014718
 30
0.0
 10
3.019604439237112
 20
0.9811289571404579
 30
0.0
 10
3.0362676001826374
 20
0.9282801624946888
 30
0.0
 10
3.0520058846041622
 20
0.8751486047189719
 30
0.0
 10
3.066814498467792
 20
0.8217504682005038
 30
0.0
 10
3.080688930926289
 20
0.7681020185289452
 30
0.0
 10
3.0936249556931217
 20
0.7142195975417708
 30
0.0
 10
3.105618632329833
 20
0.6601196183463852
 30
0.0
 10
3.1166663074463328
 20
0.6058185603205298
 30
0.0
 10
3.12676461581376
 20
0.5513329640925037
 30
0.0
 10
3.1359104813895624
 20
0.4966794265027336
 30
0.0
 10
3.144101118254486
 20
0.44187459554820746
 30
0.0
 10
3.151334031461197
 20
0.3869351653113429
 30
0.0
 10
3.1576070177942674
 20
0.33187787087479936
 30
0.0
 10
3.1629181664412918
 20
0.2767194832238149
 30
0.0
 10
3.1672658595749414
 20
0.22147680413759796
 30
0.0
 10
3.1706487728457717
 20
0.166166661071346
 30
0.0
 10
3.1730658757856287
 20
0.11080590203043982
 30
0.0
 10
3.174516432121542
 20
0.055411390438375036
 30
0.0
 10
3.175
 20
0
 30
0.0
 10
3.174516432121542
 20
-0.055411390438374515
 30
0.0
 10
3.1730658757856287
 20
-0.11080590203044056
 30
0.0
 10
3.1706487728457717
 20
-0.16616666107134667
 30
0.0
 10
3.1672658595749414
 20
-0.22147680413759843
 30
0.0
 10
3.1629181664412918
 20
-0.2767194832238147
 30
0.0
 10
3.1576070177942674
 20
-0.33187787087479975
 30
0.0
 10
3.151334031461197
 20
-0.3869351653113432
 30
0.0
 10
3.144101118254486
 20
-0.44187459554820835
 30
0.0
 10
3.1359104813895624
 20
-0.496679426502733
 30
0.0
 10
3.12676461581376
 20
-0.5513329640925038
 30
0.0
 10
3.1166663074463328
 20
-0.6058185603205298
 30
0.0
 10
3.1056186323298327
 20
-0.6601196183463859
 30
0.0
 10
3.0936249556931217
 20
-0.7142195975417708
 30
0.0
 10
3.080688930926289
 20
-0.7681020185289457
 30
0.0
 10
3.066814498467792
 20
-0.8217504682005035
 30
0.0
 10
3.0520058846041622
 20
-0.8751486047189723
 30
0.0
 10
3.0362676001826374
 20
-0.9282801624946891
 30
0.0
 10
3.019604439237112
 20
-0.9811289571404579
 30
0.0
 10
3.0020214775278307
 20
-1.0336788904014724
 30
0.0
 10
2.9835240709952586
 20
-1.085913955058998
 30
0.0
 10
2.9641178541286153
 20
-1.1378182398063283
 30
0.0
 10
2.94380873824955
 20
-1.1893759340955203
 30
0.0
 10
2.9226029097114976
 20
-1.240571332953445
 30
0.0
 10
2.9005068280152577
 20
-1.2913888417656656
 30
0.0
 10
2.8775272238413634
 20
-1.3418129810267208
 30
0.0
 10
2.853671096999855
 20
-1.3918283910553206
 30
0.0
 10
2.8289457142980674
 20
-1.4414198366730608
 30
0.0
 10
2.803358607327093
 20
-1.4905722118452032
 30
0.0
 10
2.7769175701675812
 20
-1.5392705442821202
 30
0.0
 10
2.749630657015593
 20
-1.5875
 30
0.0
 10
2.7215061797292064
 20
-1.6352458878394223
 30
0.0
 10
2.6925527052966522
 20
-1.6824936639404255
 30
0.0
 10
2.6627790532267213
 20
-1.729228936172711
 30
0.0
 10
2.6321942928622573
 20
-1.7754374685196213
 30
0.0
 10
2.6008077406175487
 20
-1.821105185414571
 30
0.0
 10
2.568628957140458
 20
-1.866218176028602
 30
0.0
 10
2.5356677444001545
 20
-1.910762698507753
 30
0.0
 10
2.501934142701342
 20
-1.954725184158965
 30
0.0
 10
2.4674384276258823
 20
-1.9980922415832343
 30
0.0
 10
2.432191106902755
 20
-2.040850660754762
 30
0.0
 10
2.396202917207301
 20
-2.0829874170448606
 30
0.0
 10
2.3594848208907266
 20
-2.1244896751893747
 30
0.0
 10
2.322048002640866
 20
-2.1653447931984324
 30
0.0
 10
2.283903866075217
 20
-2.2055403262073168
 30
0.0
 10
2.245064030267288
 20
-2.245064030267288
 30
0.0
 10
2.2055403262073163
 20
-2.283903866075217
 30
0.0
 10
2.1653447931984324
 20
-2.3220480026408663
 30
0.0
 10
2.1244896751893747
 20
-2.3594848208907266
 30
0.0
 10
2.08298741704486
 20
-2.396202917207301
 30
0.0
 10
2.040850660754762
 20
-2.432191106902755
 30
0.0
 10
1.998092241583234
 20
-2.4674384276258823
 30
0.0
 10
1.954725184158965
 20
-2.501934142701342
 30
0.0
 10
1.910762698507753
 20
-2.5356677444001545
 30
0.0
 10
1.866218176028602
 20
-2.568628957140458
 30
0.0
 10
1.821105185414571
 20
-2.6008077406175487
 30
0.0
 10
1.7754374685196213
 20
-2.6321942928622573
 30
0.0
 10
1.729228936172711
 20
-2.6627790532267213
 30
0.0
 10
1.6824936639404255
 20
-2.6925527052966522
 30
0.0
 10
1.6352458878394218
 20
-2.7215061797292064
 30
0.0
 10
1.5875
 20
-2.749630657015593
 30
0.0
 10
1.5392705442821202
 20
-2.7769175701675812
 30
0.0
 10
1.4905722118452032
 20
-2.803358607327093
 30
0.0
 10
1.4414198366730608
 20
-2.8289457142980674
 30
0.0
 10
1.3918283910553206
 20
-2.853671096999855
 30
0.0
 10
1.3418129810267208
 20
-2.8775272238413634
 30
0.0
 10
1.2913888417656656
 20
-2.9005068280152577
 30
0.0
 10
1.240571332953444
 20
-2.922602909711498
 30
0.0
 10
1.1893759340955208
 20
-2.9438087382495497
 30
0.0
 10
1.1378182398063283
 20
-2.9641178541286153
 30
0.0
 10
1.085913955058998
 20
-2.9835240709952586
 30
0.0
 10
1.0336788904014724
 20
-3.0020214775278307
 30
0.0
 10
0.9811289571404579
 20
-3.019604439237112
 30
0.0
 10
0.9282801624946894
 20
-3.0362676001826374
 30
0.0
 10
0.8751486047189723
 20
-3.0520058846041622
 30
0.0
 10
0.8217504682005035
 20
-3.066814498467792
 30
0.0
 10
0.768102018528945
 20
-3.080688930926289
 30
0.0
 10
0.7142195975417713
 20
-3.0936249556931217
 30
0.0
 10
0.6601196183463859
 20
-3.1056186323298327
 30
0.0
 10
0.6058185603205298
 20
-3.1166663074463328
 30
0.0
 10
0.5513329640925038
 20
-3.12676461581376
 30
0.0
 10
0.496679426502733
 20
-3.1359104813895624
 30
0.0
 10
0.44187459554820774
 20
-3.144101118254486
 30
0.0
 10
0.3869351653113432
 20
-3.151334031461197
 30
0.0
 10
0.33187787087479975
 20
-3.1576070177942674
 30
0.0
 10
0.2767194832238147
 20
-3.1629181664412918
 30
0.0
 10
0.22147680413759782
 20
-3.1672658595749414
 30
0.0
 10
0.16616666107134667
 20
-3.1706487728457717
 30
0.0
 10
0.11080590203044056
 20
-3.1730658757856287
 30
0.0
 10
0.05541139043837515
 20
-3.174516432121542
 30
0.0
  0
ENDSEC
  0
EOF
