999
DXF generated by OpenJsCad
  0
SECTION
  2
HEADER
  0
ENDSEC
  0
SECTION
  2
TABLES
  0
TABLE
  2
LTYPE
  70
1
  0
LTYPE
  2
CONTINUOUS
  3
Solid Line
  72
65
  73
0
  40
0.0
  0
ENDTAB
  0
TABLE
  2
LAYER
  70
1
  0
LAYER
  2
OpenJsCad
  62
7
  6
continuous
  0
ENDTAB
  0
TABLE
  2
STYLE
  70
0
  0
ENDTAB
  0
TABLE
  2
VIEW
  70
0
  0
ENDTAB
  0
ENDSEC
  0
SECTION
  2
BLOCKS
  0
ENDSEC
  0
SECTION
  2
ENTITIES
  0
LWPOLYLINE
  8
OpenJsCad
  90
1705
  70
1
 10
13.17372153191884
 20
-3.966424598297431
 30
0.0
 10
13.289520599775113
 20
-3.560916312506511
 30
0.0
 10
13.391989808172482
 20
-3.1518363016383577
 30
0.0
 10
13.32175382422
 20
-3.093821323145706
 30
0.0
 10
13.202679878880424
 20
-3.000600538318877
 30
0.0
 10
13.087989509841302
 20
-2.9155582541592953
 30
0.0
 10
12.978024637411767
 20
-2.838397637485378
 30
0.0
 10
12.873114557172155
 20
-2.768809682261703
 30
0.0
 10
12.773575540259474
 20
-2.706473669396293
 30
0.0
 10
12.67971044912271
 20
-2.651057639031045
 30
0.0
 10
12.59180836918819
 20
-2.602218874864873
 30
0.0
 10
12.510144256610197
 20
-2.559604399893267
 30
0.0
 10
12.434978602753961
 20
-2.522851483217109
 30
0.0
 10
12.366557115488128
 20
-2.491588157247621
 30
0.0
 10
12.305110417658508
 20
-2.4654337448083794
 30
0.0
 10
12.250853763150975
 20
-2.4439993956272144
 30
0.0
 10
12.203986770686265
 20
-2.4268886316150518
 30
0.0
 10
12.164693175709676
 20
-2.4136979003580668
 30
0.0
 10
12.13314059235711
 20
-2.404017164648373
 30
0.0
 10
12.109478974814726
 20
-2.397430069845169
 30
0.0
 10
12.102592156697813
 20
-2.3957057283467016
 30
0.0
 10
12.06443484610706
 20
-2.392329320865704
 30
0.0
 10
11.954278783613288
 20
-2.3776790719536005
 30
0.0
 10
11.853187822570126
 20
-2.359127226114517
 30
0.0
 10
11.761284807250531
 20
-2.3371390373433174
 30
0.0
 10
11.678674420511449
 20
-2.312183361737244
 30
0.0
 10
11.60544308347228
 20
-2.2847320251629686
 30
0.0
 10
11.541658865699748
 20
-2.2552592288255724
 30
0.0
 10
11.487371442915505
 20
-2.2242408320889235
 30
0.0
 10
11.442612117860786
 20
-2.1921535395403358
 30
0.0
 10
11.407393614383539
 20
-2.1594749156594895
 30
0.0
 10
11.381710268137933
 20
-2.1266820587600783
 30
0.0
 10
11.365537994991024
 20
-2.0942511945526934
 30
0.0
 10
11.358834316822675
 20
-2.0626570896448544
 30
0.0
 10
11.361538438683075
 20
-2.0323723793691664
 30
0.0
 10
11.375926439907028
 20
-1.9547416716840884
 30
0.0
 10
11.423197365724553
 20
-1.6562847921610935
 30
0.0
 10
11.462639402675094
 20
-1.356692777776166
 30
0.0
 10
11.494225519058165
 20
-1.0561709539200657
 30
0.0
 10
11.500420082819828
 20
-0.9774615597192731
 30
0.0
 10
11.505646361474694
 20
-0.9475088977006818
 30
0.0
 10
11.520298773410449
 20
-0.9187263753851298
 30
0.0
 10
11.544313715018042
 20
-0.8915862583620372
 30
0.0
 10
11.577609338329674
 20
-0.8665581294456558
 30
0.0
 10
11.620085651928026
 20
-0.8441082577656996
 30
0.0
 10
11.671624642365025
 20
-0.8246989714079836
 30
0.0
 10
11.732090415972266
 20
-0.8087880342461705
 30
0.0
 10
11.801329360921548
 20
-0.7968280276013117
 30
0.0
 10
11.879170329380296
 20
-0.7892657373621096
 30
0.0
 10
11.965424839581553
 20
-0.7865415471930935
 30
0.0
 10
12.05988729761388
 20
-0.7890888384527289
 30
0.0
 10
12.162335238714823
 20
-0.7973333974371276
 30
0.0
 10
12.272529587833807
 20
-0.8116928305582304
 30
0.0
 10
12.310260982768193
 20
-0.8183073774880629
 30
0.0
 10
12.317360434698635
 20
-0.8184242670767673
 30
0.0
 10
12.341919279651147
 20
-0.818185625371246
 30
0.0
 10
12.374902293026144
 20
-0.8170011328536421
 30
0.0
 10
12.416271003700835
 20
-0.8144297956283034
 30
0.0
 10
12.465969633725512
 20
-0.8100321369985085
 30
0.0
 10
12.523925155349895
 20
-0.8033708010648172
 30
0.0
 10
12.590047367769387
 20
-0.7940111542277419
 30
0.0
 10
12.664228991079664
 20
-0.7815218694957832
 30
0.0
 10
12.746345808264547
 20
-0.7654755926254119
 30
0.0
 10
12.83625670782211
 20
-0.7454494013380215
 30
0.0
 10
12.933803999331168
 20
-0.7210255100944839
 30
0.0
 10
13.038813439099263
 20
-0.6917918084336423
 30
0.0
 10
13.151094493583859
 20
-0.657342437006873
 30
0.0
 10
13.270440537647108
 20
-0.6172783606468835
 30
0.0
 10
13.39662908503844
 20
-0.5712079315061893
 30
0.0
 10
13.529422037299414
 20
-0.5187474447070197
 30
0.0
 10
13.668565950853605
 20
-0.4595216859252398
 30
0.0
 10
13.751424083023286
 20
-0.4216619301859801
 30
0.0
 10
13.758324126016296
 20
0
 30
0.0
 10
13.751424083023286
 20
0.4216619301859805
 30
0.0
 10
13.668565950853647
 20
0.4595216859252207
 30
0.0
 10
13.529422037299431
 20
0.518747444707012
 30
0.0
 10
13.396629085038398
 20
0.5712079315062044
 30
0.0
 10
13.270440537647064
 20
0.6172783606468992
 30
0.0
 10
13.151094493583935
 20
0.6573424370068488
 30
0.0
 10
13.038813439099227
 20
0.6917918084336523
 30
0.0
 10
12.933803999320746
 20
0.7210255100973861
 30
0.0
 10
12.836256707821992
 20
0.7454494013383548
 30
0.0
 10
12.746345794682233
 20
0.7654755956505968
 30
0.0
 10
12.664228993573735
 20
0.7815218843039711
 30
0.0
 10
12.590047367776405
 20
0.7940111542749562
 30
0.0
 10
12.523925155349852
 20
0.80337080106447
 30
0.0
 10
12.465969633725521
 20
0.8100321369981582
 30
0.0
 10
12.41627100370076
 20
0.8144297956285005
 30
0.0
 10
12.374902293036993
 20
0.8170011328867748
 30
0.0
 10
12.34191927911834
 20
0.8181855960324182
 30
0.0
 10
12.31735904605541
 20
0.8184241637651457
 30
0.0
 10
12.310260598155265
 20
0.818307310063044
 30
0.0
 10
12.272529587833814
 20
0.8116928305582363
 30
0.0
 10
12.162335238714823
 20
0.7973333974371086
 30
0.0
 10
12.059887297613889
 20
0.789088838452725
 30
0.0
 10
11.965424839581557
 20
0.7865415471930861
 30
0.0
 10
11.879170329380297
 20
0.7892657373621259
 30
0.0
 10
11.801329360921544
 20
0.7968280276013138
 30
0.0
 10
11.732090416660862
 20
0.808787992420064
 30
0.0
 10
11.671624641126899
 20
0.8246988439919791
 30
0.0
 10
11.620085650671927
 20
0.8441082227902572
 30
0.0
 10
11.577609338371898
 20
0.8665581301244325
 30
0.0
 10
11.544313715018852
 20
0.8915862583710501
 30
0.0
 10
11.520298773410447
 20
0.9187263753848169
 30
0.0
 10
11.505646361473394
 20
0.9475088976915782
 30
0.0
 10
11.500420082821027
 20
0.9774615597262968
 30
0.0
 10
11.494225519158237
 20
1.0561709539301278
 30
0.0
 10
11.462639402675558
 20
1.3566927777762379
 30
0.0
 10
11.423197365724086
 20
1.6562847921610429
 30
0.0
 10
11.375926439807763
 20
1.954741671667908
 30
0.0
 10
11.3615384386801
 20
2.0323723793756403
 30
0.0
 10
11.358834316826288
 20
2.0626570896363976
 30
0.0
 10
11.365537994991108
 20
2.094251194552392
 30
0.0
 10
11.381710268134817
 20
2.1266820587685746
 30
0.0
 10
11.407393614167075
 20
2.1594749163042093
 30
0.0
 10
11.442612128126397
 20
2.1921535060817554
 30
0.0
 10
11.487371477089134
 20
2.2242407093349654
 30
0.0
 10
11.541658875860008
 20
2.255259188246434
 30
0.0
 10
11.605443083472286
 20
2.2847320251629712
 30
0.0
 10
11.678674420511443
 20
2.312183361737259
 30
0.0
 10
11.761284807250531
 20
2.3371390373433094
 30
0.0
 10
11.853187822570119
 20
2.359127226114511
 30
0.0
 10
11.954278783613294
 20
2.3776790719535823
 30
0.0
 10
12.064434846107053
 20
2.3923293208657075
 30
0.0
 10
12.102592545656254
 20
2.3957057627642855
 30
0.0
 10
12.109480342880097
 20
2.3974303294611197
 30
0.0
 10
12.133140600465213
 20
2.404017136447142
 30
0.0
 10
12.164693175690621
 20
2.4136979003872625
 30
0.0
 10
12.203986770686287
 20
2.426888631615262
 30
0.0
 10
12.250853763151058
 20
2.443999395626874
 30
0.0
 10
12.305110417658637
 20
2.4654337448080548
 30
0.0
 10
12.36655711546913
 20
2.4915881572914094
 30
0.0
 10
12.434978596512234
 20
2.522851496875207
 30
0.0
 10
12.51014426894673
 20
2.5596044063307337
 30
0.0
 10
12.591808369188222
 20
2.602218874865226
 30
0.0
 10
12.679710449132028
 20
2.651057639036546
 30
0.0
 10
12.773575540259506
 20
2.7064736693963116
 30
0.0
 10
12.873114557172087
 20
2.76880968226166
 30
0.0
 10
12.978024637411806
 20
2.838397637485405
 30
0.0
 10
13.087989509841337
 20
2.9155582541593206
 30
0.0
 10
13.20267987888041
 20
3.000600538318865
 30
0.0
 10
13.321753824219964
 20
3.093821323145676
 30
0.0
 10
13.391989808172482
 20
3.151836301638358
 30
0.0
 10
13.289520599775113
 20
3.5609163125065106
 30
0.0
 10
13.173721531918842
 20
3.9664245982974307
 30
0.0
 10
13.083887896309868
 20
3.9815490514958336
 30
0.0
 10
12.934156442303543
 20
4.0027436466468025
 30
0.0
 10
12.792310527066459
 20
4.019047240605294
 30
0.0
 10
12.658497845681609
 20
4.030887858601813
 30
0.0
 10
12.532849073469203
 20
4.038697755503122
 30
0.0
 10
12.415477749722386
 20
4.042912817758861
 30
0.0
 10
12.306480181086785
 20
4.043971962263674
 30
0.0
 10
12.205935364734914
 20
4.042316532753755
 30
0.0
 10
12.113904931179055
 20
4.038389694359106
 30
0.0
 10
12.03043310710941
 20
4.032635826935714
 30
0.0
 10
11.955546697987739
 20
4.025499917799167
 30
0.0
 10
11.889255090469002
 20
4.017426954477797
 30
0.0
 10
11.83155027475054
 20
4.008861318128504
 30
0.0
 10
11.782406886671048
 20
4.000246178208844
 30
0.0
 10
11.74178226958681
 20
3.992022889083591
 30
0.0
 10
11.709616562993617
 20
3.9846303604592266
 30
0.0
 10
11.685831453705678
 20
3.9785041431247454
 30
0.0
 10
11.679005123515955
 20
3.9765540576087615
 30
0.0
 10
11.64427171946377
 20
3.960399456965457
 30
0.0
 10
11.541548646507247
 20
3.918008913448218
 30
0.0
 10
11.444725383231344
 20
3.8835298027103757
 30
0.0
 10
11.354140942894585
 20
3.856620625109645
 30
0.0
 10
11.270120411559045
 20
3.836927680783567
 30
0.0
 10
11.192974545042887
 20
3.824085567105142
 30
0.0
 10
11.122999393922658
 20
3.8177176485676263
 30
0.0
 10
11.060475908317192
 20
3.8174366567341065
 30
0.0
 10
11.005669549489266
 20
3.8228454046924876
 30
0.0
 10
10.958830118854276
 20
3.833536671395393
 30
0.0
 10
10.920191260101685
 20
3.8490944454101483
 30
0.0
 10
10.889970228615828
 20
3.869094261106973
 30
0.0
 10
10.868367620569323
 20
3.8931037194828173
 30
0.0
 10
10.855567103657515
 20
3.9206831088580145
 30
0.0
 10
10.8292121243846
 20
3.9951072744390324
 30
0.0
 10
10.720921507241489
 20
4.27721397694894
 30
0.0
 10
10.6052833060252
 20
4.556389290652511
 30
0.0
 10
10.482376773291781
 20
4.832441882695062
 30
0.0
 10
10.448386725774347
 20
4.903703499470263
 30
0.0
 10
10.437936484847421
 20
4.932256405016766
 30
0.0
 10
10.436234584652723
 20
4.964509006494904
 30
0.0
 10
10.443462075643751
 20
5.000020508102381
 30
0.0
 10
10.459782866808274
 20
5.038343315208975
 30
0.0
 10
10.485343497603582
 20
5.079023631194694
 30
0.0
 10
10.520272929428566
 20
5.121602061468302
 30
0.0
 10
10.56468235685101
 20
5.165614224052071
 30
0.0
 10
10.61866503878589
 20
5.21059136611059
 30
0.0
 10
10.68229614980675
 20
5.256060985797904
 30
0.0
 10
10.755632651747513
 20
5.30154745878964
 30
0.0
 10
10.838713185737248
 20
5.3465726688641215
 30
0.0
 10
10.931557984788276
 20
5.390656641891105
 30
0.0
 10
11.034168807039359
 20
5.433318182583778
 30
0.0
 10
11.070152427037677
 20
5.446455514375212
 30
0.0
 10
11.07635917755674
 20
5.449904010987177
 30
0.0
 10
11.097508440320457
 20
5.462390103242817
 30
0.0
 10
11.125480321537763
 20
5.479907410541153
 30
0.0
 10
11.160021007291185
 20
5.502818609237338
 30
0.0
 10
11.200862454110942
 20
5.531476408340251
 30
0.0
 10
11.24772274016039
 20
5.566223055294161
 30
0.0
 10
11.300306432451563
 20
5.607389853435265
 30
0.0
 10
11.358304960366253
 20
5.655296702943377
 30
0.0
 10
11.421397071691096
 20
5.7102515949417185
 30
0.0
 10
11.489249099141364
 20
5.7725502351164275
 30
0.0
 10
11.561515586036805
 20
5.842475591147128
 30
0.0
 10
11.637839577682726
 20
5.920297439316119
 30
0.0
 10
11.717853137516705
 20
6.006271997358406
 30
0.0
 10
11.801177805336662
 20
6.10064152729694
 30
0.0
 10
11.887425078473866
 20
6.203633962991698
 30
0.0
 10
11.976196905175819
 20
6.3154625533851645
 30
0.0
 10
12.067086189704844
 20
6.43632552182569
 30
0.0
 10
12.119913559204287
 20
6.510542098161804
 30
0.0
 10
11.915058206630444
 20
6.879162063008145
 30
0.0
 10
11.698251629018305
 20
7.240881984861482
 30
0.0
 10
11.607564503779649
 20
7.232240429027918
 30
0.0
 10
11.457449460468816
 20
7.213959483914251
 30
0.0
 10
11.316217146967631
 20
7.192995122046732
 30
0.0
 10
11.18389944468973
 20
7.169799010350159
 30
0.0
 10
11.060510700509909
 20
7.144822496225469
 30
0.0
 10
10.946047769249047
 20
7.118515999783133
 30
0.0
 10
10.840490075931841
 20
7.091328408181341
 30
0.0
 10
10.74379969780307
 20
7.06370647270591
 30
0.0
 10
10.655921465790463
 20
7.036094209151558
 30
0.0
 10
10.576783085626301
 20
7.008932302207588
 30
0.0
 10
10.506295278206291
 20
6.982657514378519
 30
0.0
 10
10.444351939095709
 20
6.957702100055411
 30
0.0
 10
10.390830317112615
 20
6.93449322538496
 30
0.0
 10
10.345591211662718
 20
6.913452394463629
 30
0.0
 10
10.30847918867695
 20
6.894994882519109
 30
0.0
 10
10.279322829157197
 20
6.879529150733754
 30
0.0
 10
10.257933759535472
 20
6.867455639919357
 30
0.0
 10
10.251844750177556
 20
6.863805217694738
 30
0.0
 10
10.222475976481132
 20
6.839211405250037
 30
0.0
 10
10.134224587351156
 20
6.771678596823701
 30
0.0
 10
10.049624347284526
 20
6.7133146287497585
 30
0.0
 10
9.969091104554426
 20
6.663877380791907
 30
0.0
 10
9.89303041244463
 20
6.6231093435824056
 30
0.0
 10
9.821837011184574
 20
6.590737994810955
 30
0.0
 10
9.755894344114232
 20
6.566476156042021
 30
0.0
 10
9.695574020656336
 20
6.550022469932162
 30
0.0
 10
9.641235256237788
 20
6.541061989815661
 30
0.0
 10
9.593224737059792
 20
6.539266023729646
 30
0.0
 10
9.55187581727791
 20
6.5442932069238715
 30
0.0
 10
9.517508209267747
 20
6.555789766915273
 30
0.0
 10
9.490427587150162
 20
6.573389956449392
 30
0.0
 10
9.470925166052597
 20
6.596716583356246
 30
0.0
 10
9.426205819453344
 20
6.661783636421851
 30
0.0
 10
9.248590528249396
 20
6.906250112022875
 30
0.0
 10
9.064636715080017
 20
7.145983388775335
 30
0.0
 10
8.874470452622635
 20
7.38081916540435
 30
0.0
 10
8.823194724282532
 20
7.440855329829177
 30
0.0
 10
8.805710530931826
 20
7.46573059733434
 30
0.0
 10
8.795719034063357
 20
7.49644373388383
 30
0.0
 10
8.79350920133466
 20
7.532615822733584
 30
0.0
 10
8.799355202684962
 20
7.5738569434382566
 30
0.0
 10
8.813516035568497
 20
7.619766689325121
 30
0.0
 10
8.836235167200478
 20
7.669934696960166
 30
0.0
 10
8.867740194185696
 20
7.723941187069688
 30
0.0
 10
8.90824251987992
 20
7.781357516367142
 30
0.0
 10
8.957937049821787
 20
7.841746739727891
 30
0.0
 10
9.017001905551268
 20
7.904664182140877
 30
0.0
 10
9.085598157116822
 20
7.969658019859741
 30
0.0
 10
9.16386957455366
 20
8.036269870165055
 30
0.0
 10
9.251942398598057
 20
8.1040353891416
 30
0.0
 10
9.28329971480835
 20
8.126038323374772
 30
0.0
 10
9.288402438831897
 20
8.130975740556673
 30
0.0
 10
9.30559941946768
 20
8.14851021152895
 30
0.0
 10
9.328084369197644
 20
8.17267028664184
 30
0.0
 10
9.355518255055907
 20
8.203740592477613
 30
0.0
 10
9.387550879123566
 20
8.241992445022216
 30
0.0
 10
9.423821345660896
 20
8.287683463180494
 30
0.0
 10
9.46395854070177
 20
8.341057197717381
 30
0.0
 10
9.507581611657756
 20
8.402342784525644
 30
0.0
 10
9.554300538750805
 20
8.471754573994364
 30
0.0
 10
9.603716489869889
 20
8.549491836434754
 30
0.0
 10
9.655422542061055
 20
8.635738486868457
 30
0.0
 10
9.70900408032611
 20
8.730662722500643
 30
0.0
 10
9.764039391207461
 20
8.834416801668961
 30
0.0
 10
9.82010020819625
 20
8.947136778809996
 30
0.0
 10
9.876752272907181
 20
9.068942269236045
 30
0.0
 10
9.933555903984656
 20
9.199936232233602
 30
0.0
 10
9.990066573164146
 20
9.340204772724121
 30
0.0
 10
10.02188523028048
 20
9.425565209875051
 30
0.0
 10
9.728604287268602
 20
9.728604287268602
 30
0.0
 10
9.425565209875051
 20
10.021885230280484
 30
0.0
 10
9.340204772724167
 20
9.990066573164164
 30
0.0
 10
9.199936232233622
 20
9.933555903984665
 30
0.0
 10
9.068942269236008
 20
9.876752272907165
 30
0.0
 10
8.947136778809956
 20
9.82010020819623
 30
0.0
 10
8.834416801669033
 20
9.764039391207499
 30
0.0
 10
8.730662722500613
 20
9.709004080326094
 30
0.0
 10
8.635738486859037
 20
9.65542254205574
 30
0.0
 10
8.549491836434434
 20
9.60371648987004
 30
0.0
 10
8.47175456225109
 20
9.554300531285788
 30
0.0
 10
8.402342775818248
 20
9.5075816238923
 30
0.0
 10
8.341057197688961
 20
9.46395854074012
 30
0.0
 10
8.287683463180711
 20
9.423821345660622
 30
0.0
 10
8.24199244502247
 20
9.387550879123324
 30
0.0
 10
8.203740592477422
 20
9.355518255055994
 30
0.0
 10
8.172670286626085
 20
9.328084369228744
 30
0.0
 10
8.148510231897884
 20
9.305599398345244
 30
0.0
 10
8.130974831689981
 20
9.28840138386051
 30
0.0
 10
8.126038099089051
 20
9.283299395169253
 30
0.0
 10
8.104035389141604
 20
9.251942398598068
 30
0.0
 10
8.036269870165071
 20
9.163869574553646
 30
0.0
 10
7.96965801985975
 20
9.085598157116827
 30
0.0
 10
7.904664182140886
 20
9.017001905551268
 30
0.0
 10
7.841746739727881
 20
8.957937049821801
 30
0.0
 10
7.781357516367139
 20
8.90824251987992
 30
0.0
 10
7.723941217132122
 20
8.867740165097086
 30
0.0
 10
7.669934786181399
 20
8.836235076228268
 30
0.0
 10
7.619766713168299
 20
8.81351600994893
 30
0.0
 10
7.5738569429881455
 20
8.799355203194786
 30
0.0
 10
7.532615822727784
 20
8.793509201341607
 30
0.0
 10
7.4964437338840515
 20
8.795719034063135
 30
0.0
 10
7.465730597339857
 20
8.805710530924468
 30
0.0
 10
7.440855329825061
 20
8.823194724288348
 30
0.0
 10
7.3808191654679955
 20
8.87447045270051
 30
0.0
 10
7.145983388775613
 20
9.064636715080397
 30
0.0
 10
6.906250112022583
 20
9.248590528249032
 30
0.0
 10
6.661783636363103
 20
9.426205819371715
 30
0.0
 10
6.596716583349565
 20
9.470925166055073
 30
0.0
 10
6.573389956457929
 20
9.490427587146739
 30
0.0
 10
6.555789766915545
 20
9.517508209267593
 30
0.0
 10
6.544293206915661
 20
9.551875817281715
 30
0.0
 10
6.5392660231207
 20
9.593224737362616
 30
0.0
 10
6.541062020733332
 20
9.641235239837881
 30
0.0
 10
6.550022580896723
 20
9.695573958020583
 30
0.0
 10
6.566476191920195
 20
9.75589432260484
 30
0.0
 10
6.590737994810958
 20
9.821837011184579
 30
0.0
 10
6.623109343582391
 20
9.893030412444638
 30
0.0
 10
6.663877380791913
 20
9.96909110455442
 30
0.0
 10
6.7133146287497585
 20
10.04962434728452
 30
0.0
 10
6.771678596823718
 20
10.134224587351147
 30
0.0
 10
6.839211405250029
 20
10.22247597648113
 30
0.0
 10
6.8638054683929814
 20
10.251845049549615
 30
0.0
 10
6.867456423711459
 20
10.257934910479971
 30
0.0
 10
6.87952917640833
 20
10.27932281494921
 30
0.0
 10
6.894994882484991
 20
10.308479188684123
 30
0.0
 10
6.913452394463497
 20
10.345591211662882
 30
0.0
 10
6.934493225385261
 20
10.390830317112433
 30
0.0
 10
6.957702100055734
 20
10.444351939095574
 30
0.0
 10
6.982657514334122
 20
10.50629527822382
 30
0.0
 10
7.008932288136287
 20
10.57678309087047
 30
0.0
 10
7.036094213322828
 20
10.655921479065686
 30
0.0
 10
7.063706472705683
 20
10.743799697803343
 30
0.0
 10
7.09132840818404
 20
10.84049007594232
 30
0.0
 10
7.118515999783144
 20
10.946047769249084
 30
0.0
 10
7.144822496225453
 20
11.060510700509834
 30
0.0
 10
7.169799010350168
 20
11.18389944468978
 30
0.0
 10
7.192995122046741
 20
11.316217146967675
 30
0.0
 10
7.213959483914249
 20
11.457449460468798
 30
0.0
 10
7.2322404290279145
 20
11.607564503779605
 30
0.0
 10
7.240881984861482
 20
11.698251629018307
 30
0.0
 10
6.879162063008148
 20
11.915058206630446
 30
0.0
 10
6.510542098161805
 20
12.119913559204287
 30
0.0
 10
6.436325521825729
 20
12.06708618970487
 30
0.0
 10
6.3154625533851805
 20
11.976196905175827
 30
0.0
 10
6.203633962991665
 20
11.887425078473836
 30
0.0
 10
6.100641527296906
 20
11.80117780533663
 30
0.0
 10
6.006271997358466
 20
11.71785313751676
 30
0.0
 10
5.920297439316094
 20
11.6378395776827
 30
0.0
 10
5.842475591139404
 20
11.561515586029229
 30
0.0
 10
5.7725502351160785
 20
11.489249099141425
 30
0.0
 10
5.710251585530675
 20
11.421397061441061
 30
0.0
 10
5.655296691366146
 20
11.358304969930275
 30
0.0
 10
5.607389853397887
 20
11.300306432481248
 30
0.0
 10
5.566223055294442
 20
11.24772274016018
 30
0.0
 10
5.531476408340559
 20
11.200862454110773
 30
0.0
 10
5.5028186092371305
 20
11.160021007291217
 30
0.0
 10
5.479907410517884
 20
11.125480321563725
 30
0.0
 10
5.462390128384584
 20
11.097508425189616
 30
0.0
 10
5.449903406136054
 20
11.076357923300618
 30
0.0
 10
5.446455380460527
 20
11.0701520602406
 30
0.0
 10
5.433318182583777
 20
11.034168807039366
 30
0.0
 10
5.3906566418911215
 20
10.931557984788265
 30
0.0
 10
5.34657266886413
 20
10.838713185737253
 30
0.0
 10
5.301547458789649
 20
10.755632651747513
 30
0.0
 10
5.256060985797891
 20
10.682296149806756
 30
0.0
 10
5.210591366110587
 20
10.618665038785887
 30
0.0
 10
5.16561426061884
 20
10.564682336534299
 30
0.0
 10
5.121602171194736
 20
10.520272864648314
 30
0.0
 10
5.079023660856267
 20
10.485343479028044
 30
0.0
 10
5.038343314642249
 20
10.459782867184225
 30
0.0
 10
5.000020508094981
 20
10.44346207564896
 30
0.0
 10
4.964509006495175
 20
10.436234584652565
 30
0.0
 10
4.932256405024
 20
10.43793648484174
 30
0.0
 10
4.903703499464781
 20
10.448386725778896
 30
0.0
 10
4.832441882736384
 20
10.482376773383473
 30
0.0
 10
4.556389290652682
 20
10.605283306025635
 30
0.0
 10
4.277213976948752
 20
10.720921507241059
 30
0.0
 10
3.9951072744034137
 20
10.829212124290542
 30
0.0
 10
3.920683108850921
 20
10.855567103658174
 30
0.0
 10
3.8931037194919487
 20
10.868367620568224
 30
0.0
 10
3.869094261107276
 20
10.889970228615748
 30
0.0
 10
3.8490944454012332
 20
10.920191260103234
 30
0.0
 10
3.8335366707288183
 20
10.958830118989171
 30
0.0
 10
3.8228454388012736
 20
11.005669541650255
 30
0.0
 10
3.817436780128968
 20
11.060475876535442
 30
0.0
 10
3.8177176887903217
 20
11.12299938243213
 30
0.0
 10
3.8240855671051426
 20
11.192974545042892
 30
0.0
 10
3.8369276807835524
 20
11.270120411559047
 30
0.0
 10
3.8566206251096515
 20
11.35414094289458
 30
0.0
 10
3.8835298027103775
 20
11.444725383231335
 30
0.0
 10
3.9180089134482374
 20
11.541548646507241
 30
0.0
 10
3.96039945696545
 20
11.644271719463765
 30
0.0
 10
3.976554222281481
 20
11.679005477572638
 30
0.0
 10
3.978504602323423
 20
11.685832768293018
 30
0.0
 10
3.98463038893626
 20
11.709616555914822
 30
0.0
 10
3.9920228890487808
 20
11.741782269584908
 30
0.0
 10
4.000246178208673
 20
11.78240688667117
 30
0.0
 10
4.008861318128842
 20
11.831550274750443
 30
0.0
 10
4.017426954478143
 20
11.889255090468952
 30
0.0
 10
4.0254999177517465
 20
11.95554669799318
 30
0.0
 10
4.032635811986591
 20
12.030433108532964
 30
0.0
 10
4.038389694952364
 20
12.113904945081538
 30
0.0
 10
4.042316532753466
 20
12.205935364735115
 30
0.0
 10
4.043971962263568
 20
12.306480181097601
 30
0.0
 10
4.042912817758861
 20
12.415477749722422
 30
0.0
 10
4.038697755503128
 20
12.532849073469123
 30
0.0
 10
4.03088785860181
 20
12.658497845681655
 30
0.0
 10
4.019047240605292
 20
12.792310527066503
 30
0.0
 10
4.002743646646806
 20
12.934156442303522
 30
0.0
 10
3.981549051495842
 20
13.083887896309822
 30
0.0
 10
3.966424598297431
 20
13.17372153191884
 30
0.0
 10
3.560916312506511
 20
13.289520599775113
 30
0.0
 10
3.1518363016383577
 20
13.391989808172482
 30
0.0
 10
3.093821323145706
 20
13.32175382422
 30
0.0
 10
3.000600538318877
 20
13.202679878880424
 30
0.0
 10
2.9155582541592953
 20
13.087989509841302
 30
0.0
 10
2.838397637485378
 20
12.978024637411767
 30
0.0
 10
2.768809682261703
 20
12.873114557172155
 30
0.0
 10
2.706473669396293
 20
12.773575540259474
 30
0.0
 10
2.651057639031045
 20
12.67971044912271
 30
0.0
 10
2.602218874864873
 20
12.59180836918819
 30
0.0
 10
2.559604399893267
 20
12.510144256610197
 30
0.0
 10
2.522851483217109
 20
12.434978602753961
 30
0.0
 10
2.491588157247621
 20
12.366557115488128
 30
0.0
 10
2.4654337448083794
 20
12.305110417658508
 30
0.0
 10
2.4439993956272144
 20
12.250853763150975
 30
0.0
 10
2.4268886316150518
 20
12.203986770686265
 30
0.0
 10
2.4136979003580668
 20
12.164693175709676
 30
0.0
 10
2.404017164648373
 20
12.13314059235711
 30
0.0
 10
2.397430069845169
 20
12.109478974814726
 30
0.0
 10
2.3957057283467016
 20
12.102592156697813
 30
0.0
 10
2.392329320865704
 20
12.06443484610706
 30
0.0
 10
2.3776790719536005
 20
11.954278783613288
 30
0.0
 10
2.359127226114517
 20
11.853187822570126
 30
0.0
 10
2.3371390373433174
 20
11.761284807250531
 30
0.0
 10
2.312183361737244
 20
11.678674420511449
 30
0.0
 10
2.2847320251629686
 20
11.60544308347228
 30
0.0
 10
2.2552592288255724
 20
11.541658865699748
 30
0.0
 10
2.2242408320889235
 20
11.487371442915505
 30
0.0
 10
2.1921535395403358
 20
11.442612117860786
 30
0.0
 10
2.1594749156594895
 20
11.407393614383539
 30
0.0
 10
2.1266820587600783
 20
11.381710268137933
 30
0.0
 10
2.0942511945526934
 20
11.365537994991024
 30
0.0
 10
2.0626570896448544
 20
11.358834316822675
 30
0.0
 10
2.0323723793691664
 20
11.361538438683075
 30
0.0
 10
1.9547416716840884
 20
11.375926439907028
 30
0.0
 10
1.6562847921610935
 20
11.423197365724553
 30
0.0
 10
1.356692777776166
 20
11.462639402675094
 30
0.0
 10
1.0561709539200657
 20
11.494225519058165
 30
0.0
 10
0.9774615597192731
 20
11.500420082819828
 30
0.0
 10
0.9475088977006818
 20
11.505646361474694
 30
0.0
 10
0.9187263753851298
 20
11.520298773410449
 30
0.0
 10
0.8915862583620372
 20
11.544313715018042
 30
0.0
 10
0.8665581294456558
 20
11.577609338329674
 30
0.0
 10
0.8441082577656996
 20
11.620085651928026
 30
0.0
 10
0.8246989714079836
 20
11.671624642365025
 30
0.0
 10
0.8087880342461705
 20
11.732090415972266
 30
0.0
 10
0.7968280276013117
 20
11.801329360921548
 30
0.0
 10
0.7892657373621096
 20
11.879170329380296
 30
0.0
 10
0.7865415471930935
 20
11.965424839581553
 30
0.0
 10
0.7890888384527289
 20
12.05988729761388
 30
0.0
 10
0.7973333974371276
 20
12.162335238714823
 30
0.0
 10
0.8116928305582304
 20
12.272529587833807
 30
0.0
 10
0.8183073774880629
 20
12.310260982768193
 30
0.0
 10
0.8184242670767673
 20
12.317360434698635
 30
0.0
 10
0.818185625371246
 20
12.341919279651147
 30
0.0
 10
0.8170011328536421
 20
12.374902293026144
 30
0.0
 10
0.8144297956283034
 20
12.416271003700835
 30
0.0
 10
0.8100321369985085
 20
12.465969633725512
 30
0.0
 10
0.8033708010648172
 20
12.523925155349895
 30
0.0
 10
0.7940111542277419
 20
12.590047367769387
 30
0.0
 10
0.7815218694957832
 20
12.664228991079664
 30
0.0
 10
0.7654755926254119
 20
12.746345808264547
 30
0.0
 10
0.7454494013380215
 20
12.83625670782211
 30
0.0
 10
0.7210255100944839
 20
12.933803999331168
 30
0.0
 10
0.6917918084336423
 20
13.038813439099263
 30
0.0
 10
0.657342437006873
 20
13.151094493583859
 30
0.0
 10
0.6172783606468835
 20
13.270440537647108
 30
0.0
 10
0.5712079315061893
 20
13.39662908503844
 30
0.0
 10
0.5187474447070197
 20
13.529422037299414
 30
0.0
 10
0.4595216859252398
 20
13.668565950853605
 30
0.0
 10
0.4216619301859801
 20
13.751424083023286
 30
0.0
 10
-1.7763568394002505e-15
 20
13.758324126016296
 30
0.0
 10
-0.42166193018598186
 20
13.751424083023288
 30
0.0
 10
-0.459521685925222
 20
13.668565950853647
 30
0.0
 10
-0.5187474447070137
 20
13.529422037299431
 30
0.0
 10
-0.5712079315062057
 20
13.396629085038398
 30
0.0
 10
-0.6172783606469006
 20
13.270440537647064
 30
0.0
 10
-0.6573424370068501
 20
13.151094493583937
 30
0.0
 10
-0.6917918084336536
 20
13.038813439099227
 30
0.0
 10
-0.7210255100973875
 20
12.933803999320746
 30
0.0
 10
-0.7454494013383561
 20
12.836256707821992
 30
0.0
 10
-0.7654755956505981
 20
12.746345794682233
 30
0.0
 10
-0.7815218843039724
 20
12.664228993573737
 30
0.0
 10
-0.7940111542749575
 20
12.590047367776405
 30
0.0
 10
-0.8033708010644713
 20
12.523925155349852
 30
0.0
 10
-0.8100321369981596
 20
12.465969633725521
 30
0.0
 10
-0.8144297956285018
 20
12.41627100370076
 30
0.0
 10
-0.8170011328867761
 20
12.374902293036993
 30
0.0
 10
-0.8181855960324196
 20
12.34191927911834
 30
0.0
 10
-0.818424163765147
 20
12.31735904605541
 30
0.0
 10
-0.8183073100630454
 20
12.310260598155265
 30
0.0
 10
-0.8116928305582376
 20
12.272529587833814
 30
0.0
 10
-0.79733339743711
 20
12.162335238714823
 30
0.0
 10
-0.7890888384527264
 20
12.059887297613889
 30
0.0
 10
-0.7865415471930874
 20
11.965424839581557
 30
0.0
 10
-0.7892657373621272
 20
11.879170329380297
 30
0.0
 10
-0.7968280276013147
 20
11.801329360921544
 30
0.0
 10
-0.8087879924200654
 20
11.732090416660862
 30
0.0
 10
-0.8246988439919805
 20
11.671624641126899
 30
0.0
 10
-0.8441082227902585
 20
11.620085650671927
 30
0.0
 10
-0.8665581301244338
 20
11.577609338371898
 30
0.0
 10
-0.8915862583710514
 20
11.544313715018852
 30
0.0
 10
-0.9187263753848183
 20
11.520298773410449
 30
0.0
 10
-0.9475088976915795
 20
11.505646361473394
 30
0.0
 10
-0.9774615597262981
 20
11.500420082821027
 30
0.0
 10
-1.0561709539301292
 20
11.494225519158237
 30
0.0
 10
-1.3566927777762392
 20
11.462639402675558
 30
0.0
 10
-1.6562847921610442
 20
11.423197365724086
 30
0.0
 10
-1.9547416716679094
 20
11.375926439807763
 30
0.0
 10
-2.0323723793756416
 20
11.3615384386801
 30
0.0
 10
-2.062657089636399
 20
11.358834316826288
 30
0.0
 10
-2.0942511945523927
 20
11.365537994991108
 30
0.0
 10
-2.1266820587685755
 20
11.381710268134817
 30
0.0
 10
-2.1594749163042106
 20
11.407393614167075
 30
0.0
 10
-2.1921535060817563
 20
11.442612128126397
 30
0.0
 10
-2.2242407093349663
 20
11.487371477089134
 30
0.0
 10
-2.255259188246436
 20
11.541658875860008
 30
0.0
 10
-2.284732025162973
 20
11.605443083472286
 30
0.0
 10
-2.3121833617372607
 20
11.678674420511443
 30
0.0
 10
-2.3371390373433107
 20
11.761284807250531
 30
0.0
 10
-2.3591272261145124
 20
11.853187822570119
 30
0.0
 10
-2.3776790719535836
 20
11.954278783613294
 30
0.0
 10
-2.3923293208657093
 20
12.064434846107053
 30
0.0
 10
-2.395705762764287
 20
12.102592545656254
 30
0.0
 10
-2.3974303294611214
 20
12.109480342880097
 30
0.0
 10
-2.404017136447144
 20
12.133140600465213
 30
0.0
 10
-2.413697900387264
 20
12.164693175690623
 30
0.0
 10
-2.426888631615263
 20
12.203986770686287
 30
0.0
 10
-2.443999395626875
 20
12.250853763151058
 30
0.0
 10
-2.465433744808056
 20
12.305110417658637
 30
0.0
 10
-2.491588157291411
 20
12.36655711546913
 30
0.0
 10
-2.5228514968752087
 20
12.434978596512234
 30
0.0
 10
-2.5596044063307346
 20
12.51014426894673
 30
0.0
 10
-2.6022188748652275
 20
12.591808369188222
 30
0.0
 10
-2.651057639036548
 20
12.679710449132028
 30
0.0
 10
-2.7064736693963134
 20
12.773575540259506
 30
0.0
 10
-2.7688096822616615
 20
12.873114557172087
 30
0.0
 10
-2.8383976374854063
 20
12.978024637411806
 30
0.0
 10
-2.915558254159322
 20
13.087989509841337
 30
0.0
 10
-3.0006005383188663
 20
13.20267987888041
 30
0.0
 10
-3.093821323145678
 20
13.321753824219964
 30
0.0
 10
-3.15183630163836
 20
13.391989808172482
 30
0.0
 10
-3.560916312506506
 20
13.289520599775116
 30
0.0
 10
-3.966424598297426
 20
13.173721531918842
 30
0.0
 10
-3.981549051495829
 20
13.083887896309871
 30
0.0
 10
-4.002743646646799
 20
12.934156442303545
 30
0.0
 10
-4.01904724060529
 20
12.79231052706646
 30
0.0
 10
-4.030887858601808
 20
12.65849784568161
 30
0.0
 10
-4.038697755503119
 20
12.532849073469205
 30
0.0
 10
-4.0429128177588565
 20
12.41547774972239
 30
0.0
 10
-4.04397196226367
 20
12.306480181086787
 30
0.0
 10
-4.042316532753752
 20
12.205935364734914
 30
0.0
 10
-4.038389694359101
 20
12.113904931179059
 30
0.0
 10
-4.03263582693571
 20
12.030433107109411
 30
0.0
 10
-4.025499917799163
 20
11.955546697987742
 30
0.0
 10
-4.017426954477792
 20
11.889255090469005
 30
0.0
 10
-4.008861318128501
 20
11.831550274750542
 30
0.0
 10
-4.000246178208839
 20
11.78240688667105
 30
0.0
 10
-3.992022889083587
 20
11.741782269586814
 30
0.0
 10
-3.9846303604592226
 20
11.709616562993618
 30
0.0
 10
-3.9785041431247414
 20
11.685831453705681
 30
0.0
 10
-3.9765540576087575
 20
11.679005123515958
 30
0.0
 10
-3.960399456965453
 20
11.644271719463774
 30
0.0
 10
-3.918008913448214
 20
11.541548646507248
 30
0.0
 10
-3.8835298027103717
 20
11.444725383231345
 30
0.0
 10
-3.856620625109641
 20
11.354140942894587
 30
0.0
 10
-3.836927680783563
 20
11.270120411559049
 30
0.0
 10
-3.824085567105138
 20
11.192974545042889
 30
0.0
 10
-3.817717648567622
 20
11.12299939392266
 30
0.0
 10
-3.8174366567341025
 20
11.060475908317194
 30
0.0
 10
-3.822845404692483
 20
11.00566954948927
 30
0.0
 10
-3.833536671395389
 20
10.958830118854278
 30
0.0
 10
-3.8490944454101443
 20
10.920191260101687
 30
0.0
 10
-3.8690942611069685
 20
10.88997022861583
 30
0.0
 10
-3.893103719482813
 20
10.868367620569323
 30
0.0
 10
-3.920683108858011
 20
10.855567103657515
 30
0.0
 10
-3.995107274439029
 20
10.829212124384602
 30
0.0
 10
-4.277213976948937
 20
10.72092150724149
 30
0.0
 10
-4.556389290652508
 20
10.6052833060252
 30
0.0
 10
-4.832441882695059
 20
10.482376773291783
 30
0.0
 10
-4.903703499470259
 20
10.448386725774348
 30
0.0
 10
-4.932256405016762
 20
10.437936484847423
 30
0.0
 10
-4.9645090064949
 20
10.436234584652725
 30
0.0
 10
-5.000020508102377
 20
10.443462075643755
 30
0.0
 10
-5.038343315208971
 20
10.459782866808274
 30
0.0
 10
-5.07902363119469
 20
10.485343497603584
 30
0.0
 10
-5.121602061468298
 20
10.52027292942857
 30
0.0
 10
-5.165614224052067
 20
10.564682356851012
 30
0.0
 10
-5.210591366110586
 20
10.618665038785894
 30
0.0
 10
-5.2560609857979
 20
10.682296149806751
 30
0.0
 10
-5.301547458789637
 20
10.755632651747517
 30
0.0
 10
-5.346572668864118
 20
10.83871318573725
 30
0.0
 10
-5.390656641891101
 20
10.93155798478828
 30
0.0
 10
-5.433318182583775
 20
11.03416880703936
 30
0.0
 10
-5.4464555143752085
 20
11.07015242703768
 30
0.0
 10
-5.449904010987173
 20
11.076359177556741
 30
0.0
 10
-5.4623901032428135
 20
11.09750844032046
 30
0.0
 10
-5.479907410541149
 20
11.125480321537767
 30
0.0
 10
-5.502818609237335
 20
11.160021007291189
 30
0.0
 10
-5.5314764083402475
 20
11.200862454110945
 30
0.0
 10
-5.566223055294158
 20
11.247722740160393
 30
0.0
 10
-5.6073898534352615
 20
11.300306432451567
 30
0.0
 10
-5.655296702943374
 20
11.358304960366256
 30
0.0
 10
-5.710251594941715
 20
11.4213970716911
 30
0.0
 10
-5.772550235116423
 20
11.489249099141366
 30
0.0
 10
-5.8424755911471244
 20
11.561515586036808
 30
0.0
 10
-5.920297439316116
 20
11.63783957768273
 30
0.0
 10
-6.006271997358402
 20
11.717853137516709
 30
0.0
 10
-6.100641527296936
 20
11.801177805336664
 30
0.0
 10
-6.203633962991694
 20
11.887425078473868
 30
0.0
 10
-6.315462553385161
 20
11.976196905175822
 30
0.0
 10
-6.436325521825687
 20
12.067086189704845
 30
0.0
 10
-6.5105420981618005
 20
12.119913559204289
 30
0.0
 10
-6.879162063008145
 20
11.915058206630444
 30
0.0
 10
-7.240881984861479
 20
11.698251629018305
 30
0.0
 10
-7.232240429027916
 20
11.60756450377965
 30
0.0
 10
-7.213959483914248
 20
11.457449460468817
 30
0.0
 10
-7.192995122046732
 20
11.316217146967631
 30
0.0
 10
-7.1697990103501565
 20
11.183899444689732
 30
0.0
 10
-7.144822496225468
 20
11.06051070050991
 30
0.0
 10
-7.118515999783133
 20
10.946047769249049
 30
0.0
 10
-7.091328408181339
 20
10.840490075931843
 30
0.0
 10
-7.06370647270591
 20
10.743799697803071
 30
0.0
 10
-7.036094209151555
 20
10.655921465790463
 30
0.0
 10
-7.008932302207586
 20
10.576783085626303
 30
0.0
 10
-6.982657514378517
 20
10.506295278206291
 30
0.0
 10
-6.95770210005541
 20
10.44435193909571
 30
0.0
 10
-6.9344932253849585
 20
10.390830317112616
 30
0.0
 10
-6.9134523944636275
 20
10.345591211662718
 30
0.0
 10
-6.894994882519107
 20
10.308479188676952
 30
0.0
 10
-6.879529150733752
 20
10.279322829157199
 30
0.0
 10
-6.8674556399193545
 20
10.25793375953547
 30
0.0
 10
-6.863805217694735
 20
10.251844750177556
 30
0.0
 10
-6.839211405250035
 20
10.222475976481132
 30
0.0
 10
-6.7716785968236985
 20
10.134224587351158
 30
0.0
 10
-6.713314628749758
 20
10.049624347284528
 30
0.0
 10
-6.663877380791905
 20
9.969091104554426
 30
0.0
 10
-6.623109343582404
 20
9.89303041244463
 30
0.0
 10
-6.590737994810955
 20
9.821837011184574
 30
0.0
 10
-6.566476156042021
 20
9.755894344114234
 30
0.0
 10
-6.550022469932159
 20
9.695574020656334
 30
0.0
 10
-6.541061989815658
 20
9.641235256237788
 30
0.0
 10
-6.539266023729645
 20
9.593224737059792
 30
0.0
 10
-6.54429320692387
 20
9.55187581727791
 30
0.0
 10
-6.555789766915272
 20
9.517508209267747
 30
0.0
 10
-6.5733899564493905
 20
9.490427587150164
 30
0.0
 10
-6.596716583356243
 20
9.470925166052599
 30
0.0
 10
-6.661783636421851
 20
9.426205819453346
 30
0.0
 10
-6.906250112022875
 20
9.248590528249398
 30
0.0
 10
-7.145983388775333
 20
9.064636715080017
 30
0.0
 10
-7.380819165404348
 20
8.874470452622635
 30
0.0
 10
-7.440855329829177
 20
8.823194724282533
 30
0.0
 10
-7.465730597334338
 20
8.805710530931828
 30
0.0
 10
-7.49644373388383
 20
8.795719034063357
 30
0.0
 10
-7.532615822733582
 20
8.79350920133466
 30
0.0
 10
-7.573856943438255
 20
8.799355202684964
 30
0.0
 10
-7.619766689325121
 20
8.8135160355685
 30
0.0
 10
-7.669934696960164
 20
8.836235167200478
 30
0.0
 10
-7.723941187069685
 20
8.867740194185696
 30
0.0
 10
-7.78135751636714
 20
8.908242519879922
 30
0.0
 10
-7.841746739727889
 20
8.957937049821789
 30
0.0
 10
-7.904664182140877
 20
9.01700190555127
 30
0.0
 10
-7.969658019859739
 20
9.085598157116822
 30
0.0
 10
-8.036269870165054
 20
9.163869574553662
 30
0.0
 10
-8.104035389141599
 20
9.25194239859806
 30
0.0
 10
-8.126038323374772
 20
9.283299714808352
 30
0.0
 10
-8.130975740556671
 20
9.288402438831898
 30
0.0
 10
-8.148510211528949
 20
9.305599419467681
 30
0.0
 10
-8.17267028664184
 20
9.328084369197645
 30
0.0
 10
-8.203740592477612
 20
9.355518255055909
 30
0.0
 10
-8.241992445022213
 20
9.387550879123568
 30
0.0
 10
-8.287683463180494
 20
9.423821345660897
 30
0.0
 10
-8.34105719771738
 20
9.463958540701771
 30
0.0
 10
-8.402342784525642
 20
9.507581611657756
 30
0.0
 10
-8.471754573994364
 20
9.554300538750805
 30
0.0
 10
-8.549491836434752
 20
9.60371648986989
 30
0.0
 10
-8.635738486868457
 20
9.655422542061057
 30
0.0
 10
-8.730662722500641
 20
9.709004080326112
 30
0.0
 10
-8.834416801668958
 20
9.764039391207461
 30
0.0
 10
-8.947136778809995
 20
9.820100208196251
 30
0.0
 10
-9.068942269236043
 20
9.876752272907183
 30
0.0
 10
-9.1999362322336
 20
9.933555903984658
 30
0.0
 10
-9.34020477272412
 20
9.990066573164148
 30
0.0
 10
-9.42556520987505
 20
10.021885230280482
 30
0.0
 10
-9.728604287268604
 20
9.7286042872686
 30
0.0
 10
-10.021885230280484
 20
9.42556520987505
 30
0.0
 10
-9.990066573164166
 20
9.340204772724165
 30
0.0
 10
-9.933555903984669
 20
9.19993623223362
 30
0.0
 10
-9.876752272907167
 20
9.068942269236006
 30
0.0
 10
-9.820100208196234
 20
8.947136778809954
 30
0.0
 10
-9.7640393912075
 20
8.83441680166903
 30
0.0
 10
-9.709004080326096
 20
8.730662722500611
 30
0.0
 10
-9.65542254205574
 20
8.635738486859037
 30
0.0
 10
-9.603716489870042
 20
8.549491836434433
 30
0.0
 10
-9.55430053128579
 20
8.471754562251089
 30
0.0
 10
-9.507581623892303
 20
8.402342775818246
 30
0.0
 10
-9.463958540740121
 20
8.341057197688958
 30
0.0
 10
-9.423821345660624
 20
8.28768346318071
 30
0.0
 10
-9.387550879123328
 20
8.241992445022468
 30
0.0
 10
-9.355518255055998
 20
8.20374059247742
 30
0.0
 10
-9.328084369228746
 20
8.172670286626083
 30
0.0
 10
-9.305599398345246
 20
8.148510231897882
 30
0.0
 10
-9.288401383860512
 20
8.13097483168998
 30
0.0
 10
-9.283299395169255
 20
8.126038099089051
 30
0.0
 10
-9.25194239859807
 20
8.104035389141602
 30
0.0
 10
-9.163869574553647
 20
8.03626987016507
 30
0.0
 10
-9.085598157116829
 20
7.969658019859748
 30
0.0
 10
-9.017001905551268
 20
7.904664182140885
 30
0.0
 10
-8.957937049821803
 20
7.84174673972788
 30
0.0
 10
-8.908242519879922
 20
7.781357516367137
 30
0.0
 10
-8.867740165097086
 20
7.723941217132121
 30
0.0
 10
-8.83623507622827
 20
7.669934786181397
 30
0.0
 10
-8.813516009948932
 20
7.619766713168298
 30
0.0
 10
-8.79935520319479
 20
7.573856942988144
 30
0.0
 10
-8.793509201341609
 20
7.5326158227277835
 30
0.0
 10
-8.795719034063136
 20
7.49644373388405
 30
0.0
 10
-8.80571053092447
 20
7.4657305973398564
 30
0.0
 10
-8.823194724288351
 20
7.440855329825059
 30
0.0
 10
-8.874470452700514
 20
7.380819165467994
 30
0.0
 10
-9.064636715080399
 20
7.145983388775611
 30
0.0
 10
-9.248590528249036
 20
6.906250112022581
 30
0.0
 10
-9.426205819371715
 20
6.661783636363102
 30
0.0
 10
-9.470925166055073
 20
6.596716583349563
 30
0.0
 10
-9.49042758714674
 20
6.573389956457927
 30
0.0
 10
-9.517508209267595
 20
6.555789766915543
 30
0.0
 10
-9.551875817281717
 20
6.544293206915659
 30
0.0
 10
-9.593224737362618
 20
6.539266023120698
 30
0.0
 10
-9.641235239837883
 20
6.54106202073333
 30
0.0
 10
-9.695573958020585
 20
6.550022580896721
 30
0.0
 10
-9.755894322604842
 20
6.566476191920193
 30
0.0
 10
-9.82183701118458
 20
6.590737994810956
 30
0.0
 10
-9.893030412444642
 20
6.62310934358239
 30
0.0
 10
-9.969091104554423
 20
6.663877380791911
 30
0.0
 10
-10.04962434728452
 20
6.713314628749757
 30
0.0
 10
-10.134224587351149
 20
6.771678596823716
 30
0.0
 10
-10.22247597648113
 20
6.839211405250027
 30
0.0
 10
-10.251845049549617
 20
6.86380546839298
 30
0.0
 10
-10.257934910479973
 20
6.867456423711457
 30
0.0
 10
-10.279322814949213
 20
6.879529176408329
 30
0.0
 10
-10.308479188684124
 20
6.89499488248499
 30
0.0
 10
-10.345591211662883
 20
6.913452394463495
 30
0.0
 10
-10.390830317112435
 20
6.93449322538526
 30
0.0
 10
-10.444351939095576
 20
6.957702100055732
 30
0.0
 10
-10.506295278223822
 20
6.98265751433412
 30
0.0
 10
-10.576783090870471
 20
7.008932288136285
 30
0.0
 10
-10.655921479065688
 20
7.036094213322826
 30
0.0
 10
-10.743799697803345
 20
7.0637064727056815
 30
0.0
 10
-10.840490075942322
 20
7.091328408184038
 30
0.0
 10
-10.946047769249086
 20
7.118515999783142
 30
0.0
 10
-11.060510700509836
 20
7.144822496225451
 30
0.0
 10
-11.18389944468978
 20
7.169799010350166
 30
0.0
 10
-11.316217146967677
 20
7.192995122046739
 30
0.0
 10
-11.4574494604688
 20
7.2139594839142465
 30
0.0
 10
-11.607564503779606
 20
7.232240429027912
 30
0.0
 10
-11.698251629018309
 20
7.240881984861479
 30
0.0
 10
-11.915058206630446
 20
6.879162063008151
 30
0.0
 10
-12.119913559204285
 20
6.510542098161808
 30
0.0
 10
-12.067086189704868
 20
6.436325521825733
 30
0.0
 10
-11.976196905175827
 20
6.315462553385183
 30
0.0
 10
-11.887425078473836
 20
6.203633962991669
 30
0.0
 10
-11.80117780533663
 20
6.100641527296908
 30
0.0
 10
-11.717853137516759
 20
6.006271997358468
 30
0.0
 10
-11.6378395776827
 20
5.920297439316097
 30
0.0
 10
-11.561515586029229
 20
5.842475591139406
 30
0.0
 10
-11.489249099141425
 20
5.772550235116082
 30
0.0
 10
-11.42139706144106
 20
5.710251585530678
 30
0.0
 10
-11.358304969930273
 20
5.655296691366149
 30
0.0
 10
-11.300306432481248
 20
5.607389853397889
 30
0.0
 10
-11.247722740160178
 20
5.5662230552944445
 30
0.0
 10
-11.200862454110773
 20
5.531476408340562
 30
0.0
 10
-11.160021007291217
 20
5.502818609237133
 30
0.0
 10
-11.125480321563725
 20
5.479907410517887
 30
0.0
 10
-11.097508425189616
 20
5.462390128384586
 30
0.0
 10
-11.076357923300616
 20
5.449903406136056
 30
0.0
 10
-11.0701520602406
 20
5.446455380460531
 30
0.0
 10
-11.034168807039366
 20
5.43331818258378
 30
0.0
 10
-10.931557984788265
 20
5.390656641891125
 30
0.0
 10
-10.838713185737253
 20
5.346572668864132
 30
0.0
 10
-10.755632651747513
 20
5.301547458789652
 30
0.0
 10
-10.682296149806756
 20
5.256060985797895
 30
0.0
 10
-10.618665038785887
 20
5.21059136611059
 30
0.0
 10
-10.564682336534297
 20
5.165614260618843
 30
0.0
 10
-10.520272864648314
 20
5.121602171194738
 30
0.0
 10
-10.485343479028044
 20
5.079023660856269
 30
0.0
 10
-10.459782867184225
 20
5.038343314642251
 30
0.0
 10
-10.44346207564896
 20
5.000020508094984
 30
0.0
 10
-10.436234584652563
 20
4.964509006495177
 30
0.0
 10
-10.43793648484174
 20
4.932256405024002
 30
0.0
 10
-10.448386725778896
 20
4.903703499464783
 30
0.0
 10
-10.482376773383473
 20
4.832441882736386
 30
0.0
 10
-10.605283306025635
 20
4.556389290652684
 30
0.0
 10
-10.720921507241059
 20
4.2772139769487545
 30
0.0
 10
-10.829212124290542
 20
3.9951072744034164
 30
0.0
 10
-10.855567103658174
 20
3.9206831088509237
 30
0.0
 10
-10.868367620568224
 20
3.8931037194919513
 30
0.0
 10
-10.889970228615748
 20
3.8690942611072785
 30
0.0
 10
-10.920191260103234
 20
3.849094445401236
 30
0.0
 10
-10.958830118989171
 20
3.833536670728821
 30
0.0
 10
-11.005669541650255
 20
3.8228454388012763
 30
0.0
 10
-11.060475876535442
 20
3.81743678012897
 30
0.0
 10
-11.12299938243213
 20
3.8177176887903244
 30
0.0
 10
-11.192974545042892
 20
3.8240855671051452
 30
0.0
 10
-11.270120411559047
 20
3.836927680783555
 30
0.0
 10
-11.35414094289458
 20
3.856620625109654
 30
0.0
 10
-11.444725383231335
 20
3.88352980271038
 30
0.0
 10
-11.541548646507241
 20
3.91800891344824
 30
0.0
 10
-11.644271719463765
 20
3.9603994569654533
 30
0.0
 10
-11.679005477572638
 20
3.9765542222814836
 30
0.0
 10
-11.685832768293018
 20
3.978504602323426
 30
0.0
 10
-11.709616555914822
 20
3.984630388936263
 30
0.0
 10
-11.741782269584906
 20
3.9920228890487834
 30
0.0
 10
-11.78240688667117
 20
4.000246178208677
 30
0.0
 10
-11.831550274750443
 20
4.008861318128845
 30
0.0
 10
-11.889255090468952
 20
4.017426954478146
 30
0.0
 10
-11.95554669799318
 20
4.025499917751749
 30
0.0
 10
-12.030433108532964
 20
4.0326358119865935
 30
0.0
 10
-12.113904945081538
 20
4.038389694952366
 30
0.0
 10
-12.205935364735115
 20
4.0423165327534685
 30
0.0
 10
-12.306480181097601
 20
4.043971962263572
 30
0.0
 10
-12.415477749722422
 20
4.0429128177588645
 30
0.0
 10
-12.532849073469123
 20
4.03869775550313
 30
0.0
 10
-12.658497845681655
 20
4.030887858601813
 30
0.0
 10
-12.792310527066501
 20
4.019047240605294
 30
0.0
 10
-12.934156442303522
 20
4.00274364664681
 30
0.0
 10
-13.083887896309822
 20
3.981549051495845
 30
0.0
 10
-13.17372153191884
 20
3.9664245982974338
 30
0.0
 10
-13.289520599775113
 20
3.560916312506513
 30
0.0
 10
-13.391989808172482
 20
3.1518363016383595
 30
0.0
 10
-13.32175382422
 20
3.0938213231457077
 30
0.0
 10
-13.202679878880424
 20
3.0006005383188787
 30
0.0
 10
-13.087989509841302
 20
2.915558254159297
 30
0.0
 10
-12.978024637411767
 20
2.8383976374853797
 30
0.0
 10
-12.873114557172155
 20
2.768809682261705
 30
0.0
 10
-12.773575540259474
 20
2.7064736693962947
 30
0.0
 10
-12.67971044912271
 20
2.6510576390310465
 30
0.0
 10
-12.59180836918819
 20
2.6022188748648745
 30
0.0
 10
-12.510144256610197
 20
2.5596043998932685
 30
0.0
 10
-12.434978602753961
 20
2.5228514832171105
 30
0.0
 10
-12.366557115488128
 20
2.491588157247622
 30
0.0
 10
-12.305110417658508
 20
2.4654337448083807
 30
0.0
 10
-12.250853763150975
 20
2.4439993956272157
 30
0.0
 10
-12.203986770686265
 20
2.426888631615053
 30
0.0
 10
-12.164693175709676
 20
2.413697900358068
 30
0.0
 10
-12.13314059235711
 20
2.404017164648374
 30
0.0
 10
-12.109478974814726
 20
2.3974300698451705
 30
0.0
 10
-12.102592156697813
 20
2.395705728346703
 30
0.0
 10
-12.06443484610706
 20
2.3923293208657053
 30
0.0
 10
-11.954278783613288
 20
2.377679071953602
 30
0.0
 10
-11.853187822570126
 20
2.359127226114518
 30
0.0
 10
-11.761284807250531
 20
2.3371390373433187
 30
0.0
 10
-11.678674420511449
 20
2.312183361737245
 30
0.0
 10
-11.60544308347228
 20
2.28473202516297
 30
0.0
 10
-11.541658865699748
 20
2.2552592288255737
 30
0.0
 10
-11.487371442915505
 20
2.224240832088925
 30
0.0
 10
-11.442612117860786
 20
2.192153539540337
 30
0.0
 10
-11.407393614383539
 20
2.159474915659491
 30
0.0
 10
-11.381710268137933
 20
2.1266820587600797
 30
0.0
 10
-11.365537994991024
 20
2.0942511945526947
 30
0.0
 10
-11.358834316822675
 20
2.0626570896448557
 30
0.0
 10
-11.361538438683075
 20
2.0323723793691677
 30
0.0
 10
-11.375926439907028
 20
1.9547416716840897
 30
0.0
 10
-11.423197365724553
 20
1.6562847921610948
 30
0.0
 10
-11.462639402675094
 20
1.3566927777761673
 30
0.0
 10
-11.494225519058165
 20
1.056170953920067
 30
0.0
 10
-11.500420082819828
 20
0.9774615597192745
 30
0.0
 10
-11.505646361474694
 20
0.9475088977006833
 30
0.0
 10
-11.520298773410449
 20
0.9187263753851312
 30
0.0
 10
-11.544313715018042
 20
0.8915862583620386
 30
0.0
 10
-11.577609338329674
 20
0.8665581294456572
 30
0.0
 10
-11.620085651928026
 20
0.8441082577657011
 30
0.0
 10
-11.671624642365025
 20
0.8246989714079851
 30
0.0
 10
-11.732090415972266
 20
0.808788034246172
 30
0.0
 10
-11.801329360921548
 20
0.7968280276013131
 30
0.0
 10
-11.879170329380296
 20
0.789265737362111
 30
0.0
 10
-11.965424839581553
 20
0.786541547193095
 30
0.0
 10
-12.05988729761388
 20
0.7890888384527304
 30
0.0
 10
-12.162335238714823
 20
0.797333397437129
 30
0.0
 10
-12.272529587833807
 20
0.8116928305582319
 30
0.0
 10
-12.310260982768193
 20
0.8183073774880645
 30
0.0
 10
-12.317360434698635
 20
0.8184242670767689
 30
0.0
 10
-12.341919279651147
 20
0.8181856253712475
 30
0.0
 10
-12.374902293026144
 20
0.8170011328536436
 30
0.0
 10
-12.416271003700835
 20
0.814429795628305
 30
0.0
 10
-12.465969633725512
 20
0.8100321369985101
 30
0.0
 10
-12.523925155349895
 20
0.8033708010648187
 30
0.0
 10
-12.590047367769387
 20
0.7940111542277435
 30
0.0
 10
-12.664228991079664
 20
0.7815218694957847
 30
0.0
 10
-12.746345808264547
 20
0.7654755926254134
 30
0.0
 10
-12.83625670782211
 20
0.7454494013380231
 30
0.0
 10
-12.933803999331168
 20
0.7210255100944855
 30
0.0
 10
-13.038813439099263
 20
0.6917918084336439
 30
0.0
 10
-13.151094493583859
 20
0.6573424370068747
 30
0.0
 10
-13.270440537647108
 20
0.6172783606468851
 30
0.0
 10
-13.39662908503844
 20
0.571207931506191
 30
0.0
 10
-13.529422037299414
 20
0.5187474447070214
 30
0.0
 10
-13.668565950853605
 20
0.45952168592524145
 30
0.0
 10
-13.751424083023286
 20
0.42166193018598175
 30
0.0
 10
-13.758324126016296
 20
-8.881784197001252e-16
 30
0.0
 10
-13.751424083023288
 20
-0.4216619301859814
 30
0.0
 10
-13.668565950853647
 20
-0.45952168592522113
 30
0.0
 10
-13.529422037299431
 20
-0.5187474447070128
 30
0.0
 10
-13.396629085038398
 20
-0.5712079315062053
 30
0.0
 10
-13.270440537647064
 20
-0.6172783606468997
 30
0.0
 10
-13.151094493583937
 20
-0.6573424370068492
 30
0.0
 10
-13.038813439099227
 20
-0.6917918084336532
 30
0.0
 10
-12.933803999320746
 20
-0.721025510097387
 30
0.0
 10
-12.836256707821992
 20
-0.7454494013383557
 30
0.0
 10
-12.746345794682233
 20
-0.7654755956505976
 30
0.0
 10
-12.664228993573735
 20
-0.7815218843039715
 30
0.0
 10
-12.590047367776405
 20
-0.7940111542749566
 30
0.0
 10
-12.523925155349852
 20
-0.8033708010644705
 30
0.0
 10
-12.465969633725521
 20
-0.8100321369981591
 30
0.0
 10
-12.41627100370076
 20
-0.8144297956285014
 30
0.0
 10
-12.374902293036993
 20
-0.8170011328867752
 30
0.0
 10
-12.34191927911834
 20
-0.8181855960324187
 30
0.0
 10
-12.31735904605541
 20
-0.8184241637651466
 30
0.0
 10
-12.310260598155265
 20
-0.8183073100630445
 30
0.0
 10
-12.272529587833814
 20
-0.8116928305582367
 30
0.0
 10
-12.162335238714823
 20
-0.7973333974371091
 30
0.0
 10
-12.059887297613889
 20
-0.7890888384527259
 30
0.0
 10
-11.965424839581557
 20
-0.786541547193087
 30
0.0
 10
-11.879170329380297
 20
-0.7892657373621264
 30
0.0
 10
-11.801329360921544
 20
-0.7968280276013142
 30
0.0
 10
-11.732090416660862
 20
-0.8087879924200649
 30
0.0
 10
-11.671624641126899
 20
-0.8246988439919796
 30
0.0
 10
-11.620085650671927
 20
-0.8441082227902581
 30
0.0
 10
-11.577609338371898
 20
-0.866558130124433
 30
0.0
 10
-11.544313715018852
 20
-0.891586258371051
 30
0.0
 10
-11.520298773410447
 20
-0.9187263753848174
 30
0.0
 10
-11.505646361473394
 20
-0.9475088976915786
 30
0.0
 10
-11.500420082821027
 20
-0.9774615597262972
 30
0.0
 10
-11.494225519158237
 20
-1.0561709539301287
 30
0.0
 10
-11.462639402675558
 20
-1.3566927777762383
 30
0.0
 10
-11.423197365724086
 20
-1.6562847921610433
 30
0.0
 10
-11.375926439807763
 20
-1.9547416716679085
 30
0.0
 10
-11.3615384386801
 20
-2.032372379375641
 30
0.0
 10
-11.358834316826288
 20
-2.062657089636398
 30
0.0
 10
-11.365537994991108
 20
-2.0942511945523927
 30
0.0
 10
-11.381710268134817
 20
-2.1266820587685755
 30
0.0
 10
-11.407393614167075
 20
-2.15947491630421
 30
0.0
 10
-11.442612128126397
 20
-2.1921535060817554
 30
0.0
 10
-11.487371477089134
 20
-2.224240709334966
 30
0.0
 10
-11.541658875860008
 20
-2.255259188246435
 30
0.0
 10
-11.605443083472286
 20
-2.284732025162972
 30
0.0
 10
-11.678674420511443
 20
-2.31218336173726
 30
0.0
 10
-11.761284807250531
 20
-2.3371390373433103
 30
0.0
 10
-11.853187822570119
 20
-2.359127226114512
 30
0.0
 10
-11.954278783613294
 20
-2.3776790719535827
 30
0.0
 10
-12.064434846107053
 20
-2.3923293208657084
 30
0.0
 10
-12.102592545656254
 20
-2.395705762764286
 30
0.0
 10
-12.109480342880097
 20
-2.3974303294611206
 30
0.0
 10
-12.133140600465213
 20
-2.404017136447143
 30
0.0
 10
-12.164693175690623
 20
-2.4136979003872634
 30
0.0
 10
-12.203986770686287
 20
-2.4268886316152622
 30
0.0
 10
-12.250853763151058
 20
-2.443999395626874
 30
0.0
 10
-12.305110417658637
 20
-2.4654337448080557
 30
0.0
 10
-12.36655711546913
 20
-2.4915881572914103
 30
0.0
 10
-12.434978596512234
 20
-2.522851496875208
 30
0.0
 10
-12.51014426894673
 20
-2.5596044063307337
 30
0.0
 10
-12.591808369188222
 20
-2.602218874865227
 30
0.0
 10
-12.679710449132028
 20
-2.651057639036547
 30
0.0
 10
-12.773575540259506
 20
-2.7064736693963125
 30
0.0
 10
-12.873114557172087
 20
-2.768809682261661
 30
0.0
 10
-12.978024637411806
 20
-2.8383976374854054
 30
0.0
 10
-13.087989509841337
 20
-2.915558254159321
 30
0.0
 10
-13.20267987888041
 20
-3.000600538318866
 30
0.0
 10
-13.321753824219964
 20
-3.093821323145677
 30
0.0
 10
-13.391989808172482
 20
-3.151836301638359
 30
0.0
 10
-13.289520599775113
 20
-3.5609163125065137
 30
0.0
 10
-13.17372153191884
 20
-3.9664245982974333
 30
0.0
 10
-13.083887896309868
 20
-3.9815490514958367
 30
0.0
 10
-12.934156442303541
 20
-4.002743646646806
 30
0.0
 10
-12.792310527066459
 20
-4.019047240605297
 30
0.0
 10
-12.658497845681607
 20
-4.030887858601815
 30
0.0
 10
-12.532849073469201
 20
-4.038697755503126
 30
0.0
 10
-12.415477749722386
 20
-4.042912817758864
 30
0.0
 10
-12.306480181086783
 20
-4.043971962263677
 30
0.0
 10
-12.205935364734913
 20
-4.042316532753759
 30
0.0
 10
-12.113904931179054
 20
-4.038389694359108
 30
0.0
 10
-12.030433107109408
 20
-4.032635826935717
 30
0.0
 10
-11.95554669798774
 20
-4.02549991779917
 30
0.0
 10
-11.889255090469002
 20
-4.017426954477799
 30
0.0
 10
-11.83155027475054
 20
-4.008861318128508
 30
0.0
 10
-11.782406886671046
 20
-4.0002461782088465
 30
0.0
 10
-11.74178226958681
 20
-3.9920228890835943
 30
0.0
 10
-11.709616562993615
 20
-3.9846303604592292
 30
0.0
 10
-11.685831453705678
 20
-3.978504143124748
 30
0.0
 10
-11.679005123515955
 20
-3.9765540576087646
 30
0.0
 10
-11.644271719463772
 20
-3.96039945696546
 30
0.0
 10
-11.541548646507247
 20
-3.9180089134482206
 30
0.0
 10
-11.444725383231342
 20
-3.8835298027103784
 30
0.0
 10
-11.354140942894585
 20
-3.8566206251096475
 30
0.0
 10
-11.270120411559043
 20
-3.8369276807835697
 30
0.0
 10
-11.192974545042887
 20
-3.8240855671051452
 30
0.0
 10
-11.122999393922656
 20
-3.817717648567629
 30
0.0
 10
-11.06047590831719
 20
-3.8174366567341096
 30
0.0
 10
-11.005669549489266
 20
-3.8228454046924902
 30
0.0
 10
-10.958830118854276
 20
-3.8335366713953962
 30
0.0
 10
-10.920191260101683
 20
-3.8490944454101514
 30
0.0
 10
-10.889970228615827
 20
-3.8690942611069756
 30
0.0
 10
-10.868367620569321
 20
-3.89310371948282
 30
0.0
 10
-10.855567103657513
 20
-3.9206831088580176
 30
0.0
 10
-10.8292121243846
 20
-3.9951072744390355
 30
0.0
 10
-10.720921507241489
 20
-4.277213976948943
 30
0.0
 10
-10.605283306025198
 20
-4.556389290652514
 30
0.0
 10
-10.48237677329178
 20
-4.832441882695065
 30
0.0
 10
-10.448386725774345
 20
-4.903703499470266
 30
0.0
 10
-10.43793648484742
 20
-4.932256405016768
 30
0.0
 10
-10.436234584652722
 20
-4.9645090064949065
 30
0.0
 10
-10.44346207564375
 20
-5.000020508102383
 30
0.0
 10
-10.459782866808272
 20
-5.038343315208978
 30
0.0
 10
-10.48534349760358
 20
-5.079023631194697
 30
0.0
 10
-10.520272929428566
 20
-5.121602061468304
 30
0.0
 10
-10.564682356851009
 20
-5.1656142240520735
 30
0.0
 10
-10.61866503878589
 20
-5.2105913661105925
 30
0.0
 10
-10.68229614980675
 20
-5.256060985797907
 30
0.0
 10
-10.755632651747511
 20
-5.301547458789644
 30
0.0
 10
-10.838713185737248
 20
-5.346572668864124
 30
0.0
 10
-10.931557984788276
 20
-5.390656641891107
 30
0.0
 10
-11.034168807039357
 20
-5.433318182583781
 30
0.0
 10
-11.070152427037677
 20
-5.446455514375215
 30
0.0
 10
-11.076359177556737
 20
-5.449904010987179
 30
0.0
 10
-11.097508440320455
 20
-5.46239010324282
 30
0.0
 10
-11.125480321537763
 20
-5.479907410541156
 30
0.0
 10
-11.160021007291185
 20
-5.502818609237341
 30
0.0
 10
-11.200862454110942
 20
-5.531476408340254
 30
0.0
 10
-11.24772274016039
 20
-5.566223055294164
 30
0.0
 10
-11.300306432451563
 20
-5.607389853435268
 30
0.0
 10
-11.358304960366251
 20
-5.65529670294338
 30
0.0
 10
-11.421397071691096
 20
-5.710251594941721
 30
0.0
 10
-11.489249099141363
 20
-5.77255023511643
 30
0.0
 10
-11.561515586036805
 20
-5.842475591147131
 30
0.0
 10
-11.637839577682724
 20
-5.920297439316122
 30
0.0
 10
-11.717853137516705
 20
-6.006271997358408
 30
0.0
 10
-11.80117780533666
 20
-6.100641527296943
 30
0.0
 10
-11.887425078473864
 20
-6.203633962991701
 30
0.0
 10
-11.976196905175817
 20
-6.315462553385167
 30
0.0
 10
-12.067086189704842
 20
-6.436325521825693
 30
0.0
 10
-12.119913559204285
 20
-6.510542098161807
 30
0.0
 10
-11.915058206630444
 20
-6.879162063008145
 30
0.0
 10
-11.698251629018305
 20
-7.240881984861479
 30
0.0
 10
-11.60756450377965
 20
-7.232240429027916
 30
0.0
 10
-11.457449460468817
 20
-7.213959483914248
 30
0.0
 10
-11.316217146967631
 20
-7.192995122046732
 30
0.0
 10
-11.183899444689732
 20
-7.1697990103501565
 30
0.0
 10
-11.06051070050991
 20
-7.144822496225468
 30
0.0
 10
-10.946047769249049
 20
-7.118515999783133
 30
0.0
 10
-10.840490075931843
 20
-7.091328408181339
 30
0.0
 10
-10.743799697803071
 20
-7.06370647270591
 30
0.0
 10
-10.655921465790463
 20
-7.036094209151555
 30
0.0
 10
-10.576783085626303
 20
-7.008932302207586
 30
0.0
 10
-10.506295278206291
 20
-6.982657514378517
 30
0.0
 10
-10.44435193909571
 20
-6.95770210005541
 30
0.0
 10
-10.390830317112616
 20
-6.9344932253849585
 30
0.0
 10
-10.345591211662718
 20
-6.9134523944636275
 30
0.0
 10
-10.308479188676952
 20
-6.894994882519107
 30
0.0
 10
-10.279322829157199
 20
-6.879529150733752
 30
0.0
 10
-10.25793375953547
 20
-6.8674556399193545
 30
0.0
 10
-10.251844750177556
 20
-6.863805217694735
 30
0.0
 10
-10.222475976481132
 20
-6.839211405250035
 30
0.0
 10
-10.134224587351158
 20
-6.7716785968236985
 30
0.0
 10
-10.049624347284528
 20
-6.713314628749758
 30
0.0
 10
-9.969091104554426
 20
-6.663877380791905
 30
0.0
 10
-9.89303041244463
 20
-6.623109343582404
 30
0.0
 10
-9.821837011184574
 20
-6.590737994810955
 30
0.0
 10
-9.755894344114234
 20
-6.566476156042021
 30
0.0
 10
-9.695574020656334
 20
-6.550022469932159
 30
0.0
 10
-9.641235256237788
 20
-6.541061989815658
 30
0.0
 10
-9.593224737059792
 20
-6.539266023729645
 30
0.0
 10
-9.55187581727791
 20
-6.54429320692387
 30
0.0
 10
-9.517508209267747
 20
-6.555789766915272
 30
0.0
 10
-9.490427587150164
 20
-6.5733899564493905
 30
0.0
 10
-9.470925166052599
 20
-6.596716583356243
 30
0.0
 10
-9.426205819453346
 20
-6.661783636421851
 30
0.0
 10
-9.248590528249398
 20
-6.906250112022875
 30
0.0
 10
-9.064636715080017
 20
-7.145983388775333
 30
0.0
 10
-8.874470452622635
 20
-7.380819165404348
 30
0.0
 10
-8.823194724282533
 20
-7.440855329829177
 30
0.0
 10
-8.805710530931828
 20
-7.465730597334338
 30
0.0
 10
-8.795719034063357
 20
-7.49644373388383
 30
0.0
 10
-8.79350920133466
 20
-7.532615822733582
 30
0.0
 10
-8.799355202684964
 20
-7.573856943438255
 30
0.0
 10
-8.8135160355685
 20
-7.619766689325121
 30
0.0
 10
-8.836235167200478
 20
-7.669934696960164
 30
0.0
 10
-8.867740194185696
 20
-7.723941187069685
 30
0.0
 10
-8.908242519879922
 20
-7.78135751636714
 30
0.0
 10
-8.957937049821789
 20
-7.841746739727889
 30
0.0
 10
-9.01700190555127
 20
-7.904664182140877
 30
0.0
 10
-9.085598157116822
 20
-7.969658019859739
 30
0.0
 10
-9.163869574553662
 20
-8.036269870165054
 30
0.0
 10
-9.25194239859806
 20
-8.104035389141599
 30
0.0
 10
-9.283299714808352
 20
-8.126038323374772
 30
0.0
 10
-9.288402438831898
 20
-8.130975740556671
 30
0.0
 10
-9.305599419467681
 20
-8.148510211528949
 30
0.0
 10
-9.328084369197645
 20
-8.17267028664184
 30
0.0
 10
-9.355518255055909
 20
-8.203740592477612
 30
0.0
 10
-9.387550879123568
 20
-8.241992445022213
 30
0.0
 10
-9.423821345660897
 20
-8.287683463180494
 30
0.0
 10
-9.463958540701771
 20
-8.34105719771738
 30
0.0
 10
-9.507581611657756
 20
-8.402342784525642
 30
0.0
 10
-9.554300538750805
 20
-8.471754573994364
 30
0.0
 10
-9.60371648986989
 20
-8.549491836434752
 30
0.0
 10
-9.655422542061057
 20
-8.635738486868457
 30
0.0
 10
-9.709004080326112
 20
-8.730662722500641
 30
0.0
 10
-9.764039391207461
 20
-8.834416801668958
 30
0.0
 10
-9.820100208196251
 20
-8.947136778809995
 30
0.0
 10
-9.876752272907183
 20
-9.068942269236043
 30
0.0
 10
-9.933555903984658
 20
-9.1999362322336
 30
0.0
 10
-9.990066573164148
 20
-9.34020477272412
 30
0.0
 10
-10.021885230280482
 20
-9.42556520987505
 30
0.0
 10
-9.728604287268608
 20
-9.728604287268597
 30
0.0
 10
-9.425565209875058
 20
-10.021885230280477
 30
0.0
 10
-9.340204772724173
 20
-9.990066573164157
 30
0.0
 10
-9.199936232233629
 20
-9.933555903984658
 30
0.0
 10
-9.068942269236015
 20
-9.876752272907158
 30
0.0
 10
-8.947136778809961
 20
-9.820100208196225
 30
0.0
 10
-8.83441680166904
 20
-9.764039391207493
 30
0.0
 10
-8.730662722500618
 20
-9.709004080326089
 30
0.0
 10
-8.635738486859044
 20
-9.655422542055733
 30
0.0
 10
-8.549491836434441
 20
-9.603716489870035
 30
0.0
 10
-8.471754562251096
 20
-9.554300531285783
 30
0.0
 10
-8.402342775818255
 20
-9.507581623892296
 30
0.0
 10
-8.341057197688967
 20
-9.463958540740114
 30
0.0
 10
-8.287683463180718
 20
-9.423821345660617
 30
0.0
 10
-8.241992445022476
 20
-9.38755087912332
 30
0.0
 10
-8.203740592477429
 20
-9.35551825505599
 30
0.0
 10
-8.17267028662609
 20
-9.328084369228739
 30
0.0
 10
-8.14851023189789
 20
-9.305599398345239
 30
0.0
 10
-8.130974831689986
 20
-9.288401383860505
 30
0.0
 10
-8.126038099089058
 20
-9.283299395169248
 30
0.0
 10
-8.10403538914161
 20
-9.251942398598063
 30
0.0
 10
-8.036269870165075
 20
-9.16386957455364
 30
0.0
 10
-7.9696580198597555
 20
-9.085598157116822
 30
0.0
 10
-7.904664182140892
 20
-9.017001905551261
 30
0.0
 10
-7.8417467397278875
 20
-8.957937049821796
 30
0.0
 10
-7.7813575163671445
 20
-8.908242519879915
 30
0.0
 10
-7.723941217132127
 20
-8.86774016509708
 30
0.0
 10
-7.669934786181404
 20
-8.836235076228263
 30
0.0
 10
-7.619766713168304
 20
-8.813516009948925
 30
0.0
 10
-7.573856942988151
 20
-8.799355203194782
 30
0.0
 10
-7.532615822727791
 20
-8.793509201341601
 30
0.0
 10
-7.496443733884057
 20
-8.79571903406313
 30
0.0
 10
-7.4657305973398636
 20
-8.805710530924465
 30
0.0
 10
-7.440855329825066
 20
-8.823194724288344
 30
0.0
 10
-7.380819165468001
 20
-8.874470452700507
 30
0.0
 10
-7.145983388775618
 20
-9.064636715080391
 30
0.0
 10
-6.9062501120225885
 20
-9.248590528249029
 30
0.0
 10
-6.6617836363631096
 20
-9.42620581937171
 30
0.0
 10
-6.59671658334957
 20
-9.470925166055068
 30
0.0
 10
-6.573389956457935
 20
-9.490427587146735
 30
0.0
 10
-6.555789766915551
 20
-9.51750820926759
 30
0.0
 10
-6.544293206915667
 20
-9.55187581728171
 30
0.0
 10
-6.539266023120705
 20
-9.593224737362611
 30
0.0
 10
-6.541062020733338
 20
-9.641235239837878
 30
0.0
 10
-6.550022580896728
 20
-9.69557395802058
 30
0.0
 10
-6.566476191920201
 20
-9.755894322604837
 30
0.0
 10
-6.590737994810963
 20
-9.821837011184575
 30
0.0
 10
-6.623109343582398
 20
-9.893030412444634
 30
0.0
 10
-6.663877380791918
 20
-9.969091104554415
 30
0.0
 10
-6.713314628749766
 20
-10.049624347284514
 30
0.0
 10
-6.771678596823725
 20
-10.134224587351143
 30
0.0
 10
-6.839211405250036
 20
-10.222475976481123
 30
0.0
 10
-6.8638054683929886
 20
-10.25184504954961
 30
0.0
 10
-6.867456423711465
 20
-10.257934910479968
 30
0.0
 10
-6.8795291764083375
 20
-10.279322814949207
 30
0.0
 10
-6.8949948824849985
 20
-10.308479188684117
 30
0.0
 10
-6.913452394463504
 20
-10.345591211662878
 30
0.0
 10
-6.9344932253852685
 20
-10.39083031711243
 30
0.0
 10
-6.957702100055741
 20
-10.444351939095569
 30
0.0
 10
-6.982657514334129
 20
-10.506295278223817
 30
0.0
 10
-7.008932288136294
 20
-10.576783090870466
 30
0.0
 10
-7.036094213322835
 20
-10.65592147906568
 30
0.0
 10
-7.06370647270569
 20
-10.743799697803338
 30
0.0
 10
-7.091328408184047
 20
-10.840490075942316
 30
0.0
 10
-7.118515999783151
 20
-10.94604776924908
 30
0.0
 10
-7.14482249622546
 20
-11.060510700509829
 30
0.0
 10
-7.169799010350174
 20
-11.183899444689773
 30
0.0
 10
-7.1929951220467485
 20
-11.31621714696767
 30
0.0
 10
-7.213959483914256
 20
-11.457449460468792
 30
0.0
 10
-7.232240429027922
 20
-11.6075645037796
 30
0.0
 10
-7.24088198486149
 20
-11.698251629018301
 30
0.0
 10
-6.879162063008148
 20
-11.915058206630446
 30
0.0
 10
-6.510542098161805
 20
-12.119913559204287
 30
0.0
 10
-6.436325521825729
 20
-12.06708618970487
 30
0.0
 10
-6.3154625533851805
 20
-11.976196905175827
 30
0.0
 10
-6.203633962991665
 20
-11.887425078473836
 30
0.0
 10
-6.100641527296906
 20
-11.80117780533663
 30
0.0
 10
-6.006271997358466
 20
-11.71785313751676
 30
0.0
 10
-5.920297439316094
 20
-11.6378395776827
 30
0.0
 10
-5.842475591139404
 20
-11.561515586029229
 30
0.0
 10
-5.7725502351160785
 20
-11.489249099141425
 30
0.0
 10
-5.710251585530675
 20
-11.421397061441061
 30
0.0
 10
-5.655296691366146
 20
-11.358304969930275
 30
0.0
 10
-5.607389853397887
 20
-11.300306432481248
 30
0.0
 10
-5.566223055294442
 20
-11.24772274016018
 30
0.0
 10
-5.531476408340559
 20
-11.200862454110773
 30
0.0
 10
-5.5028186092371305
 20
-11.160021007291217
 30
0.0
 10
-5.479907410517884
 20
-11.125480321563725
 30
0.0
 10
-5.462390128384584
 20
-11.097508425189616
 30
0.0
 10
-5.449903406136054
 20
-11.076357923300618
 30
0.0
 10
-5.446455380460527
 20
-11.0701520602406
 30
0.0
 10
-5.433318182583777
 20
-11.034168807039366
 30
0.0
 10
-5.3906566418911215
 20
-10.931557984788265
 30
0.0
 10
-5.34657266886413
 20
-10.838713185737253
 30
0.0
 10
-5.301547458789649
 20
-10.755632651747513
 30
0.0
 10
-5.256060985797891
 20
-10.682296149806756
 30
0.0
 10
-5.210591366110587
 20
-10.618665038785887
 30
0.0
 10
-5.16561426061884
 20
-10.564682336534299
 30
0.0
 10
-5.121602171194736
 20
-10.520272864648314
 30
0.0
 10
-5.079023660856267
 20
-10.485343479028044
 30
0.0
 10
-5.038343314642249
 20
-10.459782867184225
 30
0.0
 10
-5.000020508094981
 20
-10.44346207564896
 30
0.0
 10
-4.964509006495175
 20
-10.436234584652565
 30
0.0
 10
-4.932256405024
 20
-10.43793648484174
 30
0.0
 10
-4.903703499464781
 20
-10.448386725778896
 30
0.0
 10
-4.832441882736384
 20
-10.482376773383473
 30
0.0
 10
-4.556389290652682
 20
-10.605283306025635
 30
0.0
 10
-4.277213976948752
 20
-10.720921507241059
 30
0.0
 10
-3.9951072744034137
 20
-10.829212124290542
 30
0.0
 10
-3.920683108850921
 20
-10.855567103658174
 30
0.0
 10
-3.8931037194919487
 20
-10.868367620568224
 30
0.0
 10
-3.869094261107276
 20
-10.889970228615748
 30
0.0
 10
-3.8490944454012332
 20
-10.920191260103234
 30
0.0
 10
-3.8335366707288183
 20
-10.958830118989171
 30
0.0
 10
-3.8228454388012736
 20
-11.005669541650255
 30
0.0
 10
-3.817436780128968
 20
-11.060475876535442
 30
0.0
 10
-3.8177176887903217
 20
-11.12299938243213
 30
0.0
 10
-3.8240855671051426
 20
-11.192974545042892
 30
0.0
 10
-3.8369276807835524
 20
-11.270120411559047
 30
0.0
 10
-3.8566206251096515
 20
-11.35414094289458
 30
0.0
 10
-3.8835298027103775
 20
-11.444725383231335
 30
0.0
 10
-3.9180089134482374
 20
-11.541548646507241
 30
0.0
 10
-3.96039945696545
 20
-11.644271719463765
 30
0.0
 10
-3.976554222281481
 20
-11.679005477572638
 30
0.0
 10
-3.978504602323423
 20
-11.685832768293018
 30
0.0
 10
-3.98463038893626
 20
-11.709616555914822
 30
0.0
 10
-3.9920228890487808
 20
-11.741782269584908
 30
0.0
 10
-4.000246178208673
 20
-11.78240688667117
 30
0.0
 10
-4.008861318128842
 20
-11.831550274750443
 30
0.0
 10
-4.017426954478143
 20
-11.889255090468952
 30
0.0
 10
-4.0254999177517465
 20
-11.95554669799318
 30
0.0
 10
-4.032635811986591
 20
-12.030433108532964
 30
0.0
 10
-4.038389694952364
 20
-12.113904945081538
 30
0.0
 10
-4.042316532753466
 20
-12.205935364735115
 30
0.0
 10
-4.043971962263568
 20
-12.306480181097601
 30
0.0
 10
-4.042912817758861
 20
-12.415477749722422
 30
0.0
 10
-4.038697755503128
 20
-12.532849073469123
 30
0.0
 10
-4.03088785860181
 20
-12.658497845681655
 30
0.0
 10
-4.019047240605292
 20
-12.792310527066503
 30
0.0
 10
-4.002743646646806
 20
-12.934156442303522
 30
0.0
 10
-3.981549051495842
 20
-13.083887896309822
 30
0.0
 10
-3.966424598297431
 20
-13.17372153191884
 30
0.0
 10
-3.5609163125065133
 20
-13.289520599775113
 30
0.0
 10
-3.1518363016383604
 20
-13.391989808172482
 30
0.0
 10
-3.0938213231457086
 20
-13.32175382422
 30
0.0
 10
-3.000600538318879
 20
-13.202679878880424
 30
0.0
 10
-2.9155582541592975
 20
-13.087989509841302
 30
0.0
 10
-2.83839763748538
 20
-12.978024637411767
 30
0.0
 10
-2.7688096822617054
 20
-12.873114557172155
 30
0.0
 10
-2.706473669396295
 20
-12.773575540259474
 30
0.0
 10
-2.6510576390310474
 20
-12.67971044912271
 30
0.0
 10
-2.6022188748648754
 20
-12.59180836918819
 30
0.0
 10
-2.5596043998932694
 20
-12.510144256610197
 30
0.0
 10
-2.5228514832171114
 20
-12.434978602753961
 30
0.0
 10
-2.491588157247623
 20
-12.366557115488128
 30
0.0
 10
-2.4654337448083816
 20
-12.305110417658508
 30
0.0
 10
-2.4439993956272166
 20
-12.250853763150975
 30
0.0
 10
-2.426888631615054
 20
-12.203986770686265
 30
0.0
 10
-2.413697900358069
 20
-12.164693175709676
 30
0.0
 10
-2.404017164648375
 20
-12.13314059235711
 30
0.0
 10
-2.3974300698451714
 20
-12.109478974814726
 30
0.0
 10
-2.395705728346704
 20
-12.102592156697813
 30
0.0
 10
-2.392329320865706
 20
-12.06443484610706
 30
0.0
 10
-2.3776790719536027
 20
-11.954278783613288
 30
0.0
 10
-2.359127226114519
 20
-11.853187822570126
 30
0.0
 10
-2.3371390373433196
 20
-11.761284807250531
 30
0.0
 10
-2.312183361737246
 20
-11.678674420511449
 30
0.0
 10
-2.284732025162971
 20
-11.60544308347228
 30
0.0
 10
-2.2552592288255746
 20
-11.541658865699748
 30
0.0
 10
-2.2242408320889258
 20
-11.487371442915505
 30
0.0
 10
-2.192153539540338
 20
-11.442612117860786
 30
0.0
 10
-2.1594749156594917
 20
-11.407393614383539
 30
0.0
 10
-2.1266820587600805
 20
-11.381710268137933
 30
0.0
 10
-2.0942511945526956
 20
-11.365537994991024
 30
0.0
 10
-2.0626570896448566
 20
-11.358834316822675
 30
0.0
 10
-2.0323723793691686
 20
-11.361538438683075
 30
0.0
 10
-1.9547416716840904
 20
-11.375926439907028
 30
0.0
 10
-1.6562847921610955
 20
-11.423197365724553
 30
0.0
 10
-1.356692777776168
 20
-11.462639402675094
 30
0.0
 10
-1.0561709539200679
 20
-11.494225519058165
 30
0.0
 10
-0.9774615597192752
 20
-11.500420082819828
 30
0.0
 10
-0.9475088977006839
 20
-11.505646361474694
 30
0.0
 10
-0.9187263753851319
 20
-11.520298773410449
 30
0.0
 10
-0.8915862583620393
 20
-11.544313715018042
 30
0.0
 10
-0.8665581294456579
 20
-11.577609338329674
 30
0.0
 10
-0.8441082577657018
 20
-11.620085651928026
 30
0.0
 10
-0.8246989714079858
 20
-11.671624642365025
 30
0.0
 10
-0.8087880342461726
 20
-11.732090415972266
 30
0.0
 10
-0.7968280276013139
 20
-11.801329360921548
 30
0.0
 10
-0.7892657373621118
 20
-11.879170329380296
 30
0.0
 10
-0.7865415471930958
 20
-11.965424839581553
 30
0.0
 10
-0.7890888384527311
 20
-12.05988729761388
 30
0.0
 10
-0.7973333974371298
 20
-12.162335238714823
 30
0.0
 10
-0.8116928305582326
 20
-12.272529587833807
 30
0.0
 10
-0.8183073774880651
 20
-12.310260982768193
 30
0.0
 10
-0.8184242670767695
 20
-12.317360434698635
 30
0.0
 10
-0.8181856253712482
 20
-12.341919279651147
 30
0.0
 10
-0.8170011328536443
 20
-12.374902293026144
 30
0.0
 10
-0.8144297956283058
 20
-12.416271003700835
 30
0.0
 10
-0.8100321369985108
 20
-12.465969633725512
 30
0.0
 10
-0.8033708010648195
 20
-12.523925155349895
 30
0.0
 10
-0.7940111542277443
 20
-12.590047367769387
 30
0.0
 10
-0.7815218694957855
 20
-12.664228991079664
 30
0.0
 10
-0.7654755926254142
 20
-12.746345808264547
 30
0.0
 10
-0.7454494013380238
 20
-12.83625670782211
 30
0.0
 10
-0.7210255100944862
 20
-12.933803999331168
 30
0.0
 10
-0.6917918084336447
 20
-13.038813439099263
 30
0.0
 10
-0.6573424370068754
 20
-13.151094493583859
 30
0.0
 10
-0.6172783606468859
 20
-13.270440537647108
 30
0.0
 10
-0.5712079315061918
 20
-13.39662908503844
 30
0.0
 10
-0.5187474447070222
 20
-13.529422037299414
 30
0.0
 10
-0.4595216859252423
 20
-13.668565950853605
 30
0.0
 10
-0.42166193018598264
 20
-13.751424083023286
 30
0.0
 10
5.773159728050814e-15
 20
-13.758324126016298
 30
0.0
 10
0.4216619301859863
 20
-13.751424083023288
 30
0.0
 10
0.45952168592522646
 20
-13.66856595085365
 30
0.0
 10
0.5187474447070177
 20
-13.529422037299433
 30
0.0
 10
0.5712079315062102
 20
-13.3966290850384
 30
0.0
 10
0.617278360646905
 20
-13.270440537647065
 30
0.0
 10
0.6573424370068541
 20
-13.151094493583937
 30
0.0
 10
0.6917918084336581
 20
-13.03881343909923
 30
0.0
 10
0.7210255100973919
 20
-12.933803999320746
 30
0.0
 10
0.7454494013383606
 20
-12.836256707821992
 30
0.0
 10
0.7654755956506025
 20
-12.746345794682234
 30
0.0
 10
0.7815218843039764
 20
-12.664228993573737
 30
0.0
 10
0.7940111542749615
 20
-12.590047367776407
 30
0.0
 10
0.8033708010644753
 20
-12.523925155349854
 30
0.0
 10
0.8100321369981636
 20
-12.465969633725521
 30
0.0
 10
0.8144297956285063
 20
-12.41627100370076
 30
0.0
 10
0.8170011328867801
 20
-12.374902293036994
 30
0.0
 10
0.8181855960324236
 20
-12.34191927911834
 30
0.0
 10
0.8184241637651515
 20
-12.317359046055412
 30
0.0
 10
0.8183073100630494
 20
-12.310260598155267
 30
0.0
 10
0.8116928305582416
 20
-12.272529587833814
 30
0.0
 10
0.797333397437114
 20
-12.162335238714824
 30
0.0
 10
0.7890888384527304
 20
-12.05988729761389
 30
0.0
 10
0.7865415471930914
 20
-11.965424839581559
 30
0.0
 10
0.7892657373621308
 20
-11.879170329380297
 30
0.0
 10
0.7968280276013187
 20
-11.801329360921544
 30
0.0
 10
0.8087879924200694
 20
-11.732090416660863
 30
0.0
 10
0.824698843991984
 20
-11.671624641126899
 30
0.0
 10
0.8441082227902625
 20
-11.620085650671927
 30
0.0
 10
0.8665581301244374
 20
-11.577609338371898
 30
0.0
 10
0.8915862583710554
 20
-11.544313715018854
 30
0.0
 10
0.9187263753848218
 20
-11.520298773410449
 30
0.0
 10
0.9475088976915831
 20
-11.505646361473394
 30
0.0
 10
0.9774615597263017
 20
-11.500420082821028
 30
0.0
 10
1.0561709539301332
 20
-11.494225519158237
 30
0.0
 10
1.3566927777762428
 20
-11.462639402675558
 30
0.0
 10
1.6562847921610477
 20
-11.423197365724086
 30
0.0
 10
1.954741671667913
 20
-11.375926439807763
 30
0.0
 10
2.0323723793756456
 20
-11.3615384386801
 30
0.0
 10
2.062657089636403
 20
-11.358834316826288
 30
0.0
 10
2.094251194552397
 20
-11.365537994991108
 30
0.0
 10
2.12668205876858
 20
-11.381710268134817
 30
0.0
 10
2.1594749163042146
 20
-11.407393614167075
 30
0.0
 10
2.1921535060817607
 20
-11.442612128126397
 30
0.0
 10
2.2242407093349703
 20
-11.487371477089134
 30
0.0
 10
2.2552591882464395
 20
-11.541658875860008
 30
0.0
 10
2.2847320251629766
 20
-11.605443083472286
 30
0.0
 10
2.3121833617372642
 20
-11.678674420511443
 30
0.0
 10
2.3371390373433147
 20
-11.761284807250531
 30
0.0
 10
2.3591272261145164
 20
-11.85318782257012
 30
0.0
 10
2.3776790719535876
 20
-11.954278783613294
 30
0.0
 10
2.3923293208657133
 20
-12.064434846107053
 30
0.0
 10
2.395705762764291
 20
-12.102592545656254
 30
0.0
 10
2.397430329461125
 20
-12.109480342880097
 30
0.0
 10
2.4040171364471483
 20
-12.133140600465213
 30
0.0
 10
2.413697900387268
 20
-12.164693175690623
 30
0.0
 10
2.426888631615267
 20
-12.203986770686287
 30
0.0
 10
2.4439993956268795
 20
-12.25085376315106
 30
0.0
 10
2.4654337448080605
 20
-12.305110417658637
 30
0.0
 10
2.491588157291415
 20
-12.36655711546913
 30
0.0
 10
2.522851496875213
 20
-12.434978596512234
 30
0.0
 10
2.559604406330739
 20
-12.51014426894673
 30
0.0
 10
2.602218874865232
 20
-12.591808369188222
 30
0.0
 10
2.6510576390365514
 20
-12.679710449132028
 30
0.0
 10
2.7064736693963174
 20
-12.773575540259506
 30
0.0
 10
2.768809682261666
 20
-12.873114557172087
 30
0.0
 10
2.8383976374854107
 20
-12.978024637411806
 30
0.0
 10
2.9155582541593263
 20
-13.08798950984134
 30
0.0
 10
3.0006005383188707
 20
-13.20267987888041
 30
0.0
 10
3.0938213231456824
 20
-13.321753824219964
 30
0.0
 10
3.1518363016383644
 20
-13.391989808172482
 30
0.0
 10
3.5609163125065124
 20
-13.289520599775113
 30
0.0
 10
3.9664245982974324
 20
-13.173721531918842
 30
0.0
 10
3.9815490514958354
 20
-13.08388789630987
 30
0.0
 10
4.002743646646804
 20
-12.934156442303543
 30
0.0
 10
4.019047240605296
 20
-12.79231052706646
 30
0.0
 10
4.030887858601814
 20
-12.658497845681609
 30
0.0
 10
4.038697755503124
 20
-12.532849073469203
 30
0.0
 10
4.042912817758863
 20
-12.415477749722386
 30
0.0
 10
4.043971962263676
 20
-12.306480181086785
 30
0.0
 10
4.042316532753757
 20
-12.205935364734914
 30
0.0
 10
4.0383896943591076
 20
-12.113904931179055
 30
0.0
 10
4.032635826935715
 20
-12.03043310710941
 30
0.0
 10
4.025499917799169
 20
-11.955546697987739
 30
0.0
 10
4.0174269544777985
 20
-11.889255090469002
 30
0.0
 10
4.008861318128506
 20
-11.83155027475054
 30
0.0
 10
4.000246178208846
 20
-11.782406886671048
 30
0.0
 10
3.992022889083593
 20
-11.74178226958681
 30
0.0
 10
3.9846303604592284
 20
-11.709616562993617
 30
0.0
 10
3.978504143124747
 20
-11.685831453705678
 30
0.0
 10
3.9765540576087632
 20
-11.679005123515955
 30
0.0
 10
3.9603994569654586
 20
-11.644271719463772
 30
0.0
 10
3.9180089134482188
 20
-11.541548646507247
 30
0.0
 10
3.8835298027103766
 20
-11.444725383231344
 30
0.0
 10
3.8566206251096458
 20
-11.354140942894585
 30
0.0
 10
3.836927680783568
 20
-11.270120411559045
 30
0.0
 10
3.824085567105143
 20
-11.192974545042889
 30
0.0
 10
3.817717648567627
 20
-11.122999393922658
 30
0.0
 10
3.8174366567341074
 20
-11.060475908317192
 30
0.0
 10
3.8228454046924885
 20
-11.005669549489266
 30
0.0
 10
3.833536671395394
 20
-10.958830118854276
 30
0.0
 10
3.8490944454101492
 20
-10.920191260101685
 30
0.0
 10
3.869094261106974
 20
-10.889970228615828
 30
0.0
 10
3.893103719482818
 20
-10.868367620569323
 30
0.0
 10
3.9206831088580154
 20
-10.855567103657515
 30
0.0
 10
3.9951072744390332
 20
-10.8292121243846
 30
0.0
 10
4.277213976948941
 20
-10.72092150724149
 30
0.0
 10
4.556389290652512
 20
-10.6052833060252
 30
0.0
 10
4.832441882695063
 20
-10.482376773291781
 30
0.0
 10
4.903703499470264
 20
-10.448386725774347
 30
0.0
 10
4.9322564050167665
 20
-10.437936484847421
 30
0.0
 10
4.964509006494905
 20
-10.436234584652723
 30
0.0
 10
5.000020508102382
 20
-10.443462075643751
 30
0.0
 10
5.0383433152089765
 20
-10.459782866808274
 30
0.0
 10
5.079023631194695
 20
-10.485343497603582
 30
0.0
 10
5.121602061468303
 20
-10.520272929428566
 30
0.0
 10
5.165614224052072
 20
-10.56468235685101
 30
0.0
 10
5.210591366110591
 20
-10.61866503878589
 30
0.0
 10
5.256060985797905
 20
-10.68229614980675
 30
0.0
 10
5.301547458789641
 20
-10.755632651747513
 30
0.0
 10
5.346572668864123
 20
-10.83871318573725
 30
0.0
 10
5.390656641891106
 20
-10.931557984788276
 30
0.0
 10
5.43331818258378
 20
-11.034168807039359
 30
0.0
 10
5.446455514375214
 20
-11.070152427037678
 30
0.0
 10
5.449904010987178
 20
-11.07635917755674
 30
0.0
 10
5.462390103242819
 20
-11.097508440320457
 30
0.0
 10
5.479907410541155
 20
-11.125480321537765
 30
0.0
 10
5.50281860923734
 20
-11.160021007291185
 30
0.0
 10
5.531476408340253
 20
-11.200862454110942
 30
0.0
 10
5.566223055294163
 20
-11.247722740160391
 30
0.0
 10
5.607389853435267
 20
-11.300306432451563
 30
0.0
 10
5.655296702943379
 20
-11.358304960366253
 30
0.0
 10
5.71025159494172
 20
-11.421397071691096
 30
0.0
 10
5.772550235116429
 20
-11.489249099141364
 30
0.0
 10
5.84247559114713
 20
-11.561515586036805
 30
0.0
 10
5.920297439316121
 20
-11.637839577682726
 30
0.0
 10
6.006271997358407
 20
-11.717853137516705
 30
0.0
 10
6.100641527296942
 20
-11.801177805336662
 30
0.0
 10
6.2036339629917
 20
-11.887425078473866
 30
0.0
 10
6.315462553385166
 20
-11.976196905175819
 30
0.0
 10
6.436325521825692
 20
-12.067086189704844
 30
0.0
 10
6.510542098161806
 20
-12.119913559204287
 30
0.0
 10
6.879162063008155
 20
-11.915058206630437
 30
0.0
 10
7.240881984861488
 20
-11.698251629018298
 30
0.0
 10
7.232240429027925
 20
-11.607564503779644
 30
0.0
 10
7.213959483914258
 20
-11.45744946046881
 30
0.0
 10
7.1929951220467405
 20
-11.316217146967624
 30
0.0
 10
7.169799010350165
 20
-11.183899444689725
 30
0.0
 10
7.144822496225477
 20
-11.060510700509903
 30
0.0
 10
7.11851599978314
 20
-10.946047769249041
 30
0.0
 10
7.091328408181348
 20
-10.840490075931836
 30
0.0
 10
7.063706472705917
 20
-10.743799697803063
 30
0.0
 10
7.036094209151564
 20
-10.655921465790456
 30
0.0
 10
7.008932302207595
 20
-10.576783085626296
 30
0.0
 10
6.982657514378526
 20
-10.506295278206286
 30
0.0
 10
6.9577021000554184
 20
-10.444351939095704
 30
0.0
 10
6.934493225384967
 20
-10.39083031711261
 30
0.0
 10
6.913452394463636
 20
-10.345591211662711
 30
0.0
 10
6.894994882519115
 20
-10.308479188676944
 30
0.0
 10
6.879529150733761
 20
-10.279322829157191
 30
0.0
 10
6.867455639919363
 20
-10.257933759535465
 30
0.0
 10
6.863805217694744
 20
-10.25184475017755
 30
0.0
 10
6.839211405250044
 20
-10.222475976481125
 30
0.0
 10
6.771678596823707
 20
-10.13422458735115
 30
0.0
 10
6.713314628749765
 20
-10.049624347284523
 30
0.0
 10
6.663877380791913
 20
-9.96909110455442
 30
0.0
 10
6.623109343582412
 20
-9.893030412444626
 30
0.0
 10
6.5907379948109615
 20
-9.821837011184568
 30
0.0
 10
6.566476156042027
 20
-9.755894344114228
 30
0.0
 10
6.550022469932168
 20
-9.695574020656329
 30
0.0
 10
6.541061989815667
 20
-9.641235256237781
 30
0.0
 10
6.5392660237296525
 20
-9.593224737059787
 30
0.0
 10
6.544293206923877
 20
-9.551875817277903
 30
0.0
 10
6.555789766915278
 20
-9.517508209267742
 30
0.0
 10
6.573389956449399
 20
-9.490427587150156
 30
0.0
 10
6.596716583356252
 20
-9.470925166052591
 30
0.0
 10
6.661783636421857
 20
-9.42620581945334
 30
0.0
 10
6.906250112022882
 20
-9.248590528249393
 30
0.0
 10
7.145983388775339
 20
-9.06463671508001
 30
0.0
 10
7.380819165404356
 20
-8.87447045262263
 30
0.0
 10
7.4408553298291835
 20
-8.823194724282528
 30
0.0
 10
7.465730597334345
 20
-8.805710530931819
 30
0.0
 10
7.496443733883836
 20
-8.795719034063351
 30
0.0
 10
7.5326158227335895
 20
-8.793509201334652
 30
0.0
 10
7.573856943438262
 20
-8.799355202684955
 30
0.0
 10
7.619766689325127
 20
-8.813516035568494
 30
0.0
 10
7.66993469696017
 20
-8.83623516720047
 30
0.0
 10
7.723941187069693
 20
-8.86774019418569
 30
0.0
 10
7.781357516367147
 20
-8.908242519879915
 30
0.0
 10
7.841746739727897
 20
-8.957937049821782
 30
0.0
 10
7.904664182140883
 20
-9.017001905551263
 30
0.0
 10
7.969658019859747
 20
-9.085598157116815
 30
0.0
 10
8.036269870165063
 20
-9.163869574553653
 30
0.0
 10
8.104035389141607
 20
-9.25194239859805
 30
0.0
 10
8.126038323374777
 20
-9.283299714808344
 30
0.0
 10
8.130975740556678
 20
-9.28840243883189
 30
0.0
 10
8.148510211528956
 20
-9.305599419467672
 30
0.0
 10
8.172670286641848
 20
-9.328084369197638
 30
0.0
 10
8.203740592477619
 20
-9.355518255055902
 30
0.0
 10
8.241992445022222
 20
-9.38755087912356
 30
0.0
 10
8.2876834631805
 20
-9.423821345660889
 30
0.0
 10
8.341057197717387
 20
-9.463958540701762
 30
0.0
 10
8.402342784525649
 20
-9.507581611657749
 30
0.0
 10
8.471754573994373
 20
-9.554300538750798
 30
0.0
 10
8.54949183643476
 20
-9.603716489869882
 30
0.0
 10
8.635738486868464
 20
-9.655422542061048
 30
0.0
 10
8.730662722500648
 20
-9.709004080326103
 30
0.0
 10
8.834416801668967
 20
-9.764039391207456
 30
0.0
 10
8.947136778810002
 20
-9.820100208196243
 30
0.0
 10
9.068942269236054
 20
-9.876752272907174
 30
0.0
 10
9.19993623223361
 20
-9.933555903984649
 30
0.0
 10
9.340204772724126
 20
-9.990066573164137
 30
0.0
 10
9.425565209875057
 20
-10.021885230280473
 30
0.0
 10
9.728604287268597
 20
-9.728604287268608
 30
0.0
 10
10.021885230280477
 20
-9.425565209875058
 30
0.0
 10
9.990066573164157
 20
-9.340204772724173
 30
0.0
 10
9.933555903984658
 20
-9.199936232233629
 30
0.0
 10
9.876752272907158
 20
-9.068942269236015
 30
0.0
 10
9.820100208196225
 20
-8.947136778809961
 30
0.0
 10
9.764039391207493
 20
-8.83441680166904
 30
0.0
 10
9.709004080326089
 20
-8.730662722500618
 30
0.0
 10
9.655422542055733
 20
-8.635738486859044
 30
0.0
 10
9.603716489870035
 20
-8.549491836434441
 30
0.0
 10
9.554300531285783
 20
-8.471754562251096
 30
0.0
 10
9.507581623892296
 20
-8.402342775818255
 30
0.0
 10
9.463958540740114
 20
-8.341057197688967
 30
0.0
 10
9.423821345660617
 20
-8.287683463180718
 30
0.0
 10
9.38755087912332
 20
-8.241992445022476
 30
0.0
 10
9.35551825505599
 20
-8.203740592477429
 30
0.0
 10
9.328084369228739
 20
-8.17267028662609
 30
0.0
 10
9.305599398345239
 20
-8.14851023189789
 30
0.0
 10
9.288401383860505
 20
-8.130974831689986
 30
0.0
 10
9.283299395169248
 20
-8.126038099089058
 30
0.0
 10
9.251942398598063
 20
-8.10403538914161
 30
0.0
 10
9.16386957455364
 20
-8.036269870165075
 30
0.0
 10
9.085598157116822
 20
-7.9696580198597555
 30
0.0
 10
9.017001905551261
 20
-7.904664182140892
 30
0.0
 10
8.957937049821796
 20
-7.8417467397278875
 30
0.0
 10
8.908242519879915
 20
-7.7813575163671445
 30
0.0
 10
8.86774016509708
 20
-7.723941217132127
 30
0.0
 10
8.836235076228263
 20
-7.669934786181404
 30
0.0
 10
8.813516009948925
 20
-7.619766713168304
 30
0.0
 10
8.799355203194782
 20
-7.573856942988151
 30
0.0
 10
8.793509201341601
 20
-7.532615822727791
 30
0.0
 10
8.79571903406313
 20
-7.496443733884057
 30
0.0
 10
8.805710530924465
 20
-7.4657305973398636
 30
0.0
 10
8.823194724288344
 20
-7.440855329825066
 30
0.0
 10
8.874470452700507
 20
-7.380819165468001
 30
0.0
 10
9.064636715080391
 20
-7.145983388775618
 30
0.0
 10
9.248590528249029
 20
-6.9062501120225885
 30
0.0
 10
9.42620581937171
 20
-6.6617836363631096
 30
0.0
 10
9.470925166055068
 20
-6.59671658334957
 30
0.0
 10
9.490427587146735
 20
-6.573389956457935
 30
0.0
 10
9.51750820926759
 20
-6.555789766915551
 30
0.0
 10
9.55187581728171
 20
-6.544293206915667
 30
0.0
 10
9.593224737362611
 20
-6.539266023120705
 30
0.0
 10
9.641235239837878
 20
-6.541062020733338
 30
0.0
 10
9.69557395802058
 20
-6.550022580896728
 30
0.0
 10
9.755894322604837
 20
-6.566476191920201
 30
0.0
 10
9.821837011184575
 20
-6.590737994810963
 30
0.0
 10
9.893030412444634
 20
-6.623109343582398
 30
0.0
 10
9.969091104554415
 20
-6.663877380791918
 30
0.0
 10
10.049624347284514
 20
-6.713314628749766
 30
0.0
 10
10.134224587351143
 20
-6.771678596823725
 30
0.0
 10
10.222475976481123
 20
-6.839211405250036
 30
0.0
 10
10.25184504954961
 20
-6.8638054683929886
 30
0.0
 10
10.257934910479968
 20
-6.867456423711465
 30
0.0
 10
10.279322814949207
 20
-6.8795291764083375
 30
0.0
 10
10.308479188684117
 20
-6.8949948824849985
 30
0.0
 10
10.345591211662878
 20
-6.913452394463504
 30
0.0
 10
10.39083031711243
 20
-6.9344932253852685
 30
0.0
 10
10.444351939095569
 20
-6.957702100055741
 30
0.0
 10
10.506295278223817
 20
-6.982657514334129
 30
0.0
 10
10.576783090870466
 20
-7.008932288136294
 30
0.0
 10
10.65592147906568
 20
-7.036094213322835
 30
0.0
 10
10.743799697803338
 20
-7.06370647270569
 30
0.0
 10
10.840490075942316
 20
-7.091328408184047
 30
0.0
 10
10.94604776924908
 20
-7.118515999783151
 30
0.0
 10
11.060510700509829
 20
-7.14482249622546
 30
0.0
 10
11.183899444689773
 20
-7.169799010350174
 30
0.0
 10
11.31621714696767
 20
-7.1929951220467485
 30
0.0
 10
11.457449460468792
 20
-7.213959483914256
 30
0.0
 10
11.6075645037796
 20
-7.232240429027922
 30
0.0
 10
11.698251629018301
 20
-7.24088198486149
 30
0.0
 10
11.915058206630446
 20
-6.879162063008148
 30
0.0
 10
12.119913559204287
 20
-6.510542098161805
 30
0.0
 10
12.06708618970487
 20
-6.436325521825729
 30
0.0
 10
11.976196905175827
 20
-6.3154625533851805
 30
0.0
 10
11.887425078473836
 20
-6.203633962991665
 30
0.0
 10
11.80117780533663
 20
-6.100641527296906
 30
0.0
 10
11.71785313751676
 20
-6.006271997358466
 30
0.0
 10
11.6378395776827
 20
-5.920297439316094
 30
0.0
 10
11.561515586029229
 20
-5.842475591139404
 30
0.0
 10
11.489249099141425
 20
-5.7725502351160785
 30
0.0
 10
11.421397061441061
 20
-5.710251585530675
 30
0.0
 10
11.358304969930275
 20
-5.655296691366146
 30
0.0
 10
11.300306432481248
 20
-5.607389853397887
 30
0.0
 10
11.24772274016018
 20
-5.566223055294442
 30
0.0
 10
11.200862454110773
 20
-5.531476408340559
 30
0.0
 10
11.160021007291217
 20
-5.5028186092371305
 30
0.0
 10
11.125480321563725
 20
-5.479907410517884
 30
0.0
 10
11.097508425189616
 20
-5.462390128384584
 30
0.0
 10
11.076357923300618
 20
-5.449903406136054
 30
0.0
 10
11.0701520602406
 20
-5.446455380460527
 30
0.0
 10
11.034168807039366
 20
-5.433318182583777
 30
0.0
 10
10.931557984788265
 20
-5.3906566418911215
 30
0.0
 10
10.838713185737253
 20
-5.34657266886413
 30
0.0
 10
10.755632651747513
 20
-5.301547458789649
 30
0.0
 10
10.682296149806756
 20
-5.256060985797891
 30
0.0
 10
10.618665038785887
 20
-5.210591366110587
 30
0.0
 10
10.564682336534299
 20
-5.16561426061884
 30
0.0
 10
10.520272864648314
 20
-5.121602171194736
 30
0.0
 10
10.485343479028044
 20
-5.079023660856267
 30
0.0
 10
10.459782867184225
 20
-5.038343314642249
 30
0.0
 10
10.44346207564896
 20
-5.000020508094981
 30
0.0
 10
10.436234584652565
 20
-4.964509006495175
 30
0.0
 10
10.43793648484174
 20
-4.932256405024
 30
0.0
 10
10.448386725778896
 20
-4.903703499464781
 30
0.0
 10
10.482376773383473
 20
-4.832441882736384
 30
0.0
 10
10.605283306025635
 20
-4.556389290652682
 30
0.0
 10
10.720921507241059
 20
-4.277213976948752
 30
0.0
 10
10.829212124290542
 20
-3.9951072744034137
 30
0.0
 10
10.855567103658174
 20
-3.920683108850921
 30
0.0
 10
10.868367620568224
 20
-3.8931037194919487
 30
0.0
 10
10.889970228615748
 20
-3.869094261107276
 30
0.0
 10
10.920191260103234
 20
-3.8490944454012332
 30
0.0
 10
10.958830118989171
 20
-3.8335366707288183
 30
0.0
 10
11.005669541650255
 20
-3.8228454388012736
 30
0.0
 10
11.060475876535442
 20
-3.817436780128968
 30
0.0
 10
11.12299938243213
 20
-3.8177176887903217
 30
0.0
 10
11.192974545042892
 20
-3.8240855671051426
 30
0.0
 10
11.270120411559047
 20
-3.8369276807835524
 30
0.0
 10
11.35414094289458
 20
-3.8566206251096515
 30
0.0
 10
11.444725383231335
 20
-3.8835298027103775
 30
0.0
 10
11.541548646507241
 20
-3.9180089134482374
 30
0.0
 10
11.644271719463765
 20
-3.96039945696545
 30
0.0
 10
11.679005477572638
 20
-3.976554222281481
 30
0.0
 10
11.685832768293018
 20
-3.978504602323423
 30
0.0
 10
11.709616555914822
 20
-3.98463038893626
 30
0.0
 10
11.741782269584908
 20
-3.9920228890487808
 30
0.0
 10
11.78240688667117
 20
-4.000246178208673
 30
0.0
 10
11.831550274750443
 20
-4.008861318128842
 30
0.0
 10
11.889255090468952
 20
-4.017426954478143
 30
0.0
 10
11.95554669799318
 20
-4.0254999177517465
 30
0.0
 10
12.030433108532964
 20
-4.032635811986591
 30
0.0
 10
12.113904945081538
 20
-4.038389694952364
 30
0.0
 10
12.205935364735115
 20
-4.042316532753466
 30
0.0
 10
12.306480181097601
 20
-4.043971962263568
 30
0.0
 10
12.415477749722422
 20
-4.042912817758861
 30
0.0
 10
12.532849073469123
 20
-4.038697755503128
 30
0.0
 10
12.658497845681655
 20
-4.03088785860181
 30
0.0
 10
12.792310527066503
 20
-4.019047240605292
 30
0.0
 10
12.934156442303522
 20
-4.002743646646806
 30
0.0
 10
13.083887896309822
 20
-3.981549051495842
 30
0.0
 10
13.17372153191884
 20
-3.966424598297431
 30
0.0
  0
LWPOLYLINE
  8
OpenJsCad
  90
181
  70
1
 10
0.11080590203044056
 20
-3.1730658757856287
 30
0.0
 10
0
 20
-3.175
 30
0.0
 10
-0.11080590203043993
 20
-3.1730658757856287
 30
0.0
 10
-0.22147680413759593
 20
-3.1672658595749414
 30
0.0
 10
-0.33187787087479975
 20
-3.1576070177942674
 30
0.0
 10
-0.44187459554820896
 20
-3.144101118254486
 30
0.0
 10
-0.5513329640925069
 20
-3.12676461581376
 30
0.0
 10
-0.6601196183463878
 20
-3.1056186323298327
 30
0.0
 10
-0.7681020185289457
 20
-3.080688930926289
 30
0.0
 10
-0.875148604718974
 20
-3.052005884604162
 30
0.0
 10
-0.9811289571404584
 20
-3.0196044392371117
 30
0.0
 10
-1.0859139550589976
 20
-2.983524070995259
 30
0.0
 10
-1.189375934095522
 20
-2.9438087382495493
 30
0.0
 10
-1.2913888417656656
 20
-2.9005068280152577
 30
0.0
 10
-1.3918283910553195
 20
-2.853671096999856
 30
0.0
 10
-1.4905722118452032
 20
-2.803358607327093
 30
0.0
 10
-1.5875000000000017
 20
-2.7496306570155915
 30
0.0
 10
-1.6824936639404282
 20
-2.6925527052966505
 30
0.0
 10
-1.7754374685196228
 20
-2.6321942928622564
 30
0.0
 10
-1.8662181760286025
 20
-2.5686289571404575
 30
0.0
 10
-1.954725184158967
 20
-2.501934142701341
 30
0.0
 10
-2.0408506607547627
 20
-2.4321911069027546
 30
0.0
 10
-2.1244896751893747
 20
-2.359484820890727
 30
0.0
 10
-2.2055403262073177
 20
-2.2839038660752164
 30
0.0
 10
-2.283903866075219
 20
-2.2055403262073145
 30
0.0
 10
-2.3594848208907275
 20
-2.124489675189374
 30
0.0
 10
-2.4321911069027555
 20
-2.040850660754762
 30
0.0
 10
-2.5019341427013413
 20
-1.9547251841589657
 30
0.0
 10
-2.5686289571404584
 20
-1.8662181760286014
 30
0.0
 10
-2.6321942928622586
 20
-1.7754374685196195
 30
0.0
 10
-2.6925527052966527
 20
-1.6824936639404247
 30
0.0
 10
-2.749630657015593
 20
-1.5875000000000004
 30
0.0
 10
-2.803358607327093
 20
-1.4905722118452023
 30
0.0
 10
-2.853671096999855
 20
-1.3918283910553206
 30
0.0
 10
-2.900506828015257
 20
-1.291388841765667
 30
0.0
 10
-2.9438087382495497
 20
-1.1893759340955206
 30
0.0
 10
-2.9835240709952595
 20
-1.0859139550589962
 30
0.0
 10
-3.019604439237112
 20
-0.9811289571404576
 30
0.0
 10
-3.052005884604162
 20
-0.8751486047189732
 30
0.0
 10
-3.080688930926289
 20
-0.768102018528944
 30
0.0
 10
-3.105618632329833
 20
-0.6601196183463834
 30
0.0
 10
-3.12676461581376
 20
-0.5513329640925025
 30
0.0
 10
-3.144101118254486
 20
-0.44187459554820774
 30
0.0
 10
-3.1576070177942674
 20
-0.3318778708747983
 30
0.0
 10
-3.1672658595749414
 20
-0.22147680413759757
 30
0.0
 10
-3.1730658757856287
 20
-0.11080590203044156
 30
0.0
 10
-3.175
 20
5.832380372807017e-16
 30
0.0
 10
-3.1730658757856287
 20
0.1108059020304431
 30
0.0
 10
-3.1672658595749414
 20
0.22147680413759907
 30
0.0
 10
-3.1576070177942674
 20
0.33187787087479975
 30
0.0
 10
-3.1441011182544862
 20
0.4418745955482065
 30
0.0
 10
-3.12676461581376
 20
0.5513329640925038
 30
0.0
 10
-3.1056186323298327
 20
0.6601196183463878
 30
0.0
 10
-3.080688930926289
 20
0.7681020185289457
 30
0.0
 10
-3.0520058846041622
 20
0.8751486047189717
 30
0.0
 10
-3.0196044392371117
 20
0.9811289571404584
 30
0.0
 10
-2.983524070995258
 20
1.0859139550590005
 30
0.0
 10
-2.9438087382495493
 20
1.189375934095522
 30
0.0
 10
-2.9005068280152577
 20
1.2913888417656656
 30
0.0
 10
-2.8536710969998547
 20
1.391828391055322
 30
0.0
 10
-2.803358607327093
 20
1.4905722118452032
 30
0.0
 10
-2.7496306570155915
 20
1.5875000000000017
 30
0.0
 10
-2.692552705296652
 20
1.6824936639404262
 30
0.0
 10
-2.6321942928622564
 20
1.7754374685196228
 30
0.0
 10
-2.5686289571404575
 20
1.8662181760286025
 30
0.0
 10
-2.5019341427013426
 20
1.9547251841589643
 30
0.0
 10
-2.4321911069027546
 20
2.0408506607547627
 30
0.0
 10
-2.3594848208907258
 20
2.1244896751893756
 30
0.0
 10
-2.2839038660752164
 20
2.205540326207317
 30
0.0
 10
-2.2055403262073168
 20
2.283903866075217
 30
0.0
 10
-2.1244896751893747
 20
2.3594848208907266
 30
0.0
 10
-2.040850660754762
 20
2.432191106902755
 30
0.0
 10
-1.954725184158964
 20
2.501934142701343
 30
0.0
 10
-1.8662181760286018
 20
2.568628957140458
 30
0.0
 10
-1.775437468519621
 20
2.6321942928622577
 30
0.0
 10
-1.682493663940425
 20
2.6925527052966527
 30
0.0
 10
-1.5875000000000006
 20
2.7496306570155924
 30
0.0
 10
-1.4905722118452036
 20
2.803358607327093
 30
0.0
 10
-1.3918283910553195
 20
2.853671096999856
 30
0.0
 10
-1.2913888417656643
 20
2.9005068280152577
 30
0.0
 10
-1.1893759340955208
 20
2.9438087382495497
 30
0.0
 10
-1.085913955058998
 20
2.9835240709952586
 30
0.0
 10
-0.981128957140459
 20
3.0196044392371117
 30
0.0
 10
-0.8751486047189717
 20
3.0520058846041622
 30
0.0
 10
-0.7681020185289443
 20
3.080688930926289
 30
0.0
 10
-0.6601196183463851
 20
3.105618632329833
 30
0.0
 10
-0.5513329640925041
 20
3.12676461581376
 30
0.0
 10
-0.4418745955482079
 20
3.144101118254486
 30
0.0
 10
-0.3318778708747984
 20
3.1576070177942674
 30
0.0
 10
-0.22147680413759632
 20
3.1672658595749414
 30
0.0
 10
-0.11080590203044033
 20
3.1730658757856287
 30
0.0
 10
3.8882535862485086e-16
 20
3.175
 30
0.0
 10
0.11080590203043932
 20
3.1730658757856287
 30
0.0
 10
0.22147680413759843
 20
3.1672658595749414
 30
0.0
 10
0.33187787087480036
 20
3.1576070177942674
 30
0.0
 10
0.44187459554820835
 20
3.144101118254486
 30
0.0
 10
0.5513329640925031
 20
3.12676461581376
 30
0.0
 10
0.6601196183463852
 20
3.105618632329833
 30
0.0
 10
0.768102018528945
 20
3.080688930926289
 30
0.0
 10
0.8751486047189735
 20
3.052005884604162
 30
0.0
 10
0.9811289571404579
 20
3.019604439237112
 30
0.0
 10
1.085913955058998
 20
2.9835240709952586
 30
0.0
 10
1.1893759340955214
 20
2.9438087382495497
 30
0.0
 10
1.291388841765666
 20
2.9005068280152573
 30
0.0
 10
1.39182839105532
 20
2.8536710969998555
 30
0.0
 10
1.4905722118452038
 20
2.8033586073270924
 30
0.0
 10
1.5874999999999995
 20
2.7496306570155933
 30
0.0
 10
1.6824936639404255
 20
2.6925527052966522
 30
0.0
 10
1.7754374685196213
 20
2.6321942928622573
 30
0.0
 10
1.8662181760286025
 20
2.5686289571404575
 30
0.0
 10
1.9547251841589652
 20
2.5019341427013417
 30
0.0
 10
2.0408506607547627
 20
2.4321911069027546
 30
0.0
 10
2.1244896751893756
 20
2.3594848208907258
 30
0.0
 10
2.2055403262073163
 20
2.283903866075217
 30
0.0
 10
2.2839038660752182
 20
2.205540326207316
 30
0.0
 10
2.3594848208907266
 20
2.1244896751893747
 30
0.0
 10
2.432191106902755
 20
2.040850660754762
 30
0.0
 10
2.501934142701342
 20
1.954725184158965
 30
0.0
 10
2.568628957140458
 20
1.8662181760286018
 30
0.0
 10
2.6321942928622577
 20
1.775437468519621
 30
0.0
 10
2.6925527052966527
 20
1.682493663940425
 30
0.0
 10
2.7496306570155933
 20
1.587499999999999
 30
0.0
 10
2.803358607327093
 20
1.4905722118452025
 30
0.0
 10
2.853671096999855
 20
1.3918283910553209
 30
0.0
 10
2.9005068280152577
 20
1.2913888417656652
 30
0.0
 10
2.9438087382495497
 20
1.1893759340955208
 30
0.0
 10
2.9835240709952586
 20
1.085913955058998
 30
0.0
 10
3.019604439237112
 20
0.9811289571404579
 30
0.0
 10
3.0520058846041622
 20
0.8751486047189719
 30
0.0
 10
3.080688930926289
 20
0.7681020185289452
 30
0.0
 10
3.105618632329833
 20
0.6601196183463852
 30
0.0
 10
3.12676461581376
 20
0.5513329640925037
 30
0.0
 10
3.144101118254486
 20
0.44187459554820746
 30
0.0
 10
3.1576070177942674
 20
0.33187787087479936
 30
0.0
 10
3.1672658595749414
 20
0.22147680413759796
 30
0.0
 10
3.1730658757856287
 20
0.11080590203043982
 30
0.0
 10
3.175
 20
0
 30
0.0
 10
3.1730658757856287
 20
-0.11080590203044056
 30
0.0
 10
3.1672658595749414
 20
-0.22147680413759843
 30
0.0
 10
3.1576070177942674
 20
-0.33187787087479975
 30
0.0
 10
3.144101118254486
 20
-0.44187459554820835
 30
0.0
 10
3.12676461581376
 20
-0.5513329640925038
 30
0.0
 10
3.1056186323298327
 20
-0.6601196183463859
 30
0.0
 10
3.080688930926289
 20
-0.7681020185289457
 30
0.0
 10
3.0520058846041622
 20
-0.8751486047189723
 30
0.0
 10
3.019604439237112
 20
-0.9811289571404579
 30
0.0
 10
2.9835240709952586
 20
-1.085913955058998
 30
0.0
 10
2.94380873824955
 20
-1.1893759340955203
 30
0.0
 10
2.9005068280152577
 20
-1.2913888417656656
 30
0.0
 10
2.853671096999855
 20
-1.3918283910553206
 30
0.0
 10
2.803358607327093
 20
-1.4905722118452032
 30
0.0
 10
2.749630657015593
 20
-1.5875
 30
0.0
 10
2.6925527052966522
 20
-1.6824936639404255
 30
0.0
 10
2.6321942928622573
 20
-1.7754374685196213
 30
0.0
 10
2.568628957140458
 20
-1.866218176028602
 30
0.0
 10
2.501934142701342
 20
-1.954725184158965
 30
0.0
 10
2.432191106902755
 20
-2.040850660754762
 30
0.0
 10
2.3594848208907266
 20
-2.1244896751893747
 30
0.0
 10
2.283903866075217
 20
-2.2055403262073168
 30
0.0
 10
2.2055403262073163
 20
-2.283903866075217
 30
0.0
 10
2.1244896751893747
 20
-2.3594848208907266
 30
0.0
 10
2.040850660754762
 20
-2.432191106902755
 30
0.0
 10
1.954725184158965
 20
-2.501934142701342
 30
0.0
 10
1.866218176028602
 20
-2.568628957140458
 30
0.0
 10
1.7754374685196213
 20
-2.6321942928622573
 30
0.0
 10
1.6824936639404255
 20
-2.6925527052966522
 30
0.0
 10
1.5875
 20
-2.749630657015593
 30
0.0
 10
1.4905722118452032
 20
-2.803358607327093
 30
0.0
 10
1.3918283910553206
 20
-2.853671096999855
 30
0.0
 10
1.2913888417656656
 20
-2.9005068280152577
 30
0.0
 10
1.1893759340955208
 20
-2.9438087382495497
 30
0.0
 10
1.085913955058998
 20
-2.9835240709952586
 30
0.0
 10
0.9811289571404579
 20
-3.019604439237112
 30
0.0
 10
0.8751486047189723
 20
-3.0520058846041622
 30
0.0
 10
0.768102018528945
 20
-3.080688930926289
 30
0.0
 10
0.6601196183463859
 20
-3.1056186323298327
 30
0.0
 10
0.5513329640925038
 20
-3.12676461581376
 30
0.0
 10
0.44187459554820774
 20
-3.144101118254486
 30
0.0
 10
0.33187787087479975
 20
-3.1576070177942674
 30
0.0
 10
0.22147680413759782
 20
-3.1672658595749414
 30
0.0
 10
0.11080590203044056
 20
-3.1730658757856287
 30
0.0
  0
ENDSEC
  0
EOF
