999
DXF generated by OpenJsCad
  0
SECTION
  2
HEADER
  0
ENDSEC
  0
SECTION
  2
TABLES
  0
TABLE
  2
LTYPE
  70
1
  0
LTYPE
  2
CONTINUOUS
  3
Solid Line
  72
65
  73
0
  40
0.0
  0
ENDTAB
  0
TABLE
  2
LAYER
  70
1
  0
LAYER
  2
OpenJsCad
  62
7
  6
continuous
  0
ENDTAB
  0
TABLE
  2
STYLE
  70
0
  0
ENDTAB
  0
TABLE
  2
VIEW
  70
0
  0
ENDTAB
  0
ENDSEC
  0
SECTION
  2
BLOCKS
  0
ENDSEC
  0
SECTION
  2
ENTITIES
  0
LWPOLYLINE
  8
OpenJsCad
  90
1135
  70
1
 10
9.825220715872995
 20
-3.9334250234199497
 30
0.0
 10
9.945073581229417
 20
-3.6197107611546913
 30
0.0
 10
10.054912600497307
 20
-3.3023517569826817
 30
0.0
 10
10.07411935665872
 20
-3.24058242071155
 30
0.0
 10
9.956211689768597
 20
-3.1182432640295525
 30
0.0
 10
9.838740523892918
 20
-3.004577670888389
 30
0.0
 10
9.725734042169549
 20
-2.9026233809313213
 30
0.0
 10
9.61785637588449
 20
-2.811921090458232
 30
0.0
 10
9.51574472242284
 20
-2.7319797695545365
 30
0.0
 10
9.420007952738262
 20
-2.662277993210337
 30
0.0
 10
9.331225279330141
 20
-2.602265330561212
 30
0.0
 10
9.24994498691271
 20
-2.551363789528283
 30
0.0
 10
9.176683228281878
 20
-2.508969314340371
 30
0.0
 10
9.111922887213355
 20
-2.474453332964641
 30
0.0
 10
9.056112510584667
 20
-2.447164351672036
 30
0.0
 10
9.009665311529842
 20
-2.4264295937665907
 30
0.0
 10
8.972958245410688
 20
-2.4115566794382515
 30
0.0
 10
8.964528055327248
 20
-2.408478884477401
 30
0.0
 10
8.91985134020432
 20
-2.4053103265228395
 30
0.0
 10
8.784200519492506
 20
-2.385894120059963
 30
0.0
 10
8.66082877179208
 20
-2.3603412625093183
 30
0.0
 10
8.54998512563154
 20
-2.3294868882979194
 30
0.0
 10
8.451875226568085
 20
-2.29417554640317
 30
0.0
 10
8.366661004144671
 20
-2.255259174190771
 30
0.0
 10
8.294460401652836
 20
-2.213595157048889
 30
0.0
 10
8.235347266269116
 20
-2.170044100287389
 30
0.0
 10
8.18935121745086
 20
-2.125468022116167
 30
0.0
 10
8.156457690099
 20
-2.080728201652181
 30
0.0
 10
8.13660804379313
 20
-2.0366831407513777
 30
0.0
 10
8.129699743985455
 20
-1.9941865689712746
 30
0.0
 10
8.135586644423896
 20
-1.9540854192608847
 30
0.0
 10
8.153465833552163
 20
-1.8823759083962879
 30
0.0
 10
8.214192934274964
 20
-1.596677361881219
 30
0.0
 10
8.264912306205002
 20
-1.3090335099496797
 30
0.0
 10
8.305562155595545
 20
-1.0197948023264365
 30
0.0
 10
8.313287310696655
 20
-0.9462948613058749
 30
0.0
 10
8.32147083476543
 20
-0.9065986682954658
 30
0.0
 10
8.342497196688425
 20
-0.8690277310798061
 30
0.0
 10
8.376214060889279
 20
-0.8344278912428479
 30
0.0
 10
8.422425785620668
 20
-0.8036364607635654
 30
0.0
 10
8.480893849634784
 20
-0.7774802331034724
 30
0.0
 10
8.551337364790967
 20
-0.7567735142714738
 30
0.0
 10
8.633433673705524
 20
-0.7423161774364093
 30
0.0
 10
8.726819031404311
 20
-0.7348917446189356
 30
0.0
 10
8.83108936979616
 20
-0.7352654989497391
 30
0.0
 10
8.945801143644234
 20
-0.7441826309309012
 30
0.0
 10
9.070472256573629
 20
-0.7623664220814231
 30
0.0
 10
9.204583065517348
 20
-0.7905164692866901
 30
0.0
 10
9.247649155674708
 20
-0.8028193352649515
 30
0.0
 10
9.256623610971555
 20
-0.8028104488754968
 30
0.0
 10
9.296203806425076
 20
-0.8013890370467784
 30
0.0
 10
9.346941601503712
 20
-0.7977906157270584
 30
0.0
 10
9.408719581874498
 20
-0.791235634359576
 30
0.0
 10
9.48137955725174
 20
-0.7809505614954685
 30
0.0
 10
9.564722857563451
 20
-0.7661697838522821
 30
0.0
 10
9.658510699206644
 20
-0.7461374789850853
 30
0.0
 10
9.762464661751924
 20
-0.7201094854215226
 30
0.0
 10
9.87626720928908
 20
-0.6873551442267447
 30
0.0
 10
9.999562318576313
 20
-0.6471591172298561
 30
0.0
 10
10.131956175919639
 20
-0.5988231790683414
 30
0.0
 10
10.273017953759778
 20
-0.5416679782140013
 30
0.0
 10
10.42228066394568
 20
-0.47503476409139966
 30
0.0
 10
10.574920084359087
 20
-0.40040035845313043
 30
0.0
 10
10.577997994569557
 20
-0.33578707147315606
 30
0.0
 10
10.583326250781763
 20
0
 30
0.0
 10
10.577997994569557
 20
0.3357870714731561
 30
0.0
 10
10.57492008435909
 20
0.4004003584531297
 30
0.0
 10
10.422280663945639
 20
0.47503476409141854
 30
0.0
 10
10.273017953759807
 20
0.5416679782139897
 30
0.0
 10
10.131956175919598
 20
0.5988231790683569
 30
0.0
 10
9.999562318576348
 20
0.6471591172298448
 30
0.0
 10
9.876267209289065
 20
0.6873551442267511
 30
0.0
 10
9.762464661743289
 20
0.7201094854240089
 30
0.0
 10
9.658510699207424
 20
0.7461374789852244
 30
0.0
 10
9.564722855847863
 20
0.7661697842183375
 30
0.0
 10
9.481379557396686
 20
0.7809505625273014
 30
0.0
 10
9.408719581877865
 20
0.791235634391183
 30
0.0
 10
9.346941601503694
 20
0.7977906157270058
 30
0.0
 10
9.296203806425057
 20
0.8013890370467278
 30
0.0
 10
9.256623610971939
 20
0.802810448875511
 30
0.0
 10
9.247649155685073
 20
0.8028193352679134
 30
0.0
 10
9.204583065517348
 20
0.7905164692866835
 30
0.0
 10
9.070472256573629
 20
0.7623664220814055
 30
0.0
 10
8.945801143644225
 20
0.7441826309309012
 30
0.0
 10
8.831089369796157
 20
0.7352654989497527
 30
0.0
 10
8.726819031404313
 20
0.7348917446189467
 30
0.0
 10
8.633433672205221
 20
0.742316191848055
 30
0.0
 10
8.551337365712959
 20
0.7567735008961218
 30
0.0
 10
8.480893849925806
 20
0.777480224525962
 30
0.0
 10
8.422425785620964
 20
0.8036364610378006
 30
0.0
 10
8.376214060889344
 20
0.8344278912437251
 30
0.0
 10
8.342497196688427
 20
0.869027731079778
 30
0.0
 10
8.321470834765899
 20
0.9065986682998819
 30
0.0
 10
8.313287310695731
 20
0.9462948612994659
 30
0.0
 10
8.305562155601477
 20
1.019794802327291
 30
0.0
 10
8.264912306205396
 20
1.3090335099497257
 30
0.0
 10
8.214192934274577
 20
1.5966773618811267
 30
0.0
 10
8.153465833546296
 20
1.882375908395062
 30
0.0
 10
8.135586644426954
 20
1.9540854192551778
 30
0.0
 10
8.129699743983503
 20
1.9941865689752638
 30
0.0
 10
8.136608043793135
 20
2.03668314075135
 30
0.0
 10
8.156457690098636
 20
2.080728201652982
 30
0.0
 10
8.189351217356785
 20
2.125468022373762
 30
0.0
 10
8.235347268929326
 20
2.1700440921276303
 30
0.0
 10
8.294460405361086
 20
2.21359514416483
 30
0.0
 10
8.366661000625419
 20
2.255259188246421
 30
0.0
 10
8.451875226568077
 20
2.2941755464031797
 30
0.0
 10
8.549985125631538
 20
2.329486888297933
 30
0.0
 10
8.660828771792087
 20
2.360341262509321
 30
0.0
 10
8.784200519492511
 20
2.3858941200599455
 30
0.0
 10
8.919851340204323
 20
2.4053103265228337
 30
0.0
 10
8.964528055316496
 20
2.40847888447664
 30
0.0
 10
8.972958245410322
 20
2.4115566794381333
 30
0.0
 10
9.009665311529876
 20
2.426429593766549
 30
0.0
 10
9.0561125105847
 20
2.447164351671992
 30
0.0
 10
9.11192288719938
 20
2.474453332993191
 30
0.0
 10
9.176683227792765
 20
2.5089693152604022
 30
0.0
 10
9.249944988399635
 20
2.5513637904590274
 30
0.0
 10
9.33122527932936
 20
2.602265330561076
 30
0.0
 10
9.420007952745523
 20
2.6622779932156266
 30
0.0
 10
9.515744722422852
 20
2.731979769554548
 30
0.0
 10
9.617856375884458
 20
2.8119210904582084
 30
0.0
 10
9.72573404216958
 20
2.90262338093135
 30
0.0
 10
9.838740523892891
 20
3.004577670888368
 30
0.0
 10
9.956211689768628
 20
3.1182432640295836
 30
0.0
 10
10.074119356658718
 20
3.2405824207115486
 30
0.0
 10
10.054912600497305
 20
3.3023517569826812
 30
0.0
 10
9.945073581229417
 20
3.61971076115469
 30
0.0
 10
9.825220715872996
 20
3.9334250234199515
 30
0.0
 10
9.800229380687142
 20
3.993088945108426
 30
0.0
 10
9.631268773570152
 20
4.0110165888965135
 30
0.0
 10
9.468217804805569
 20
4.022580474975806
 30
0.0
 10
9.316114863106165
 20
4.028042825983508
 30
0.0
 10
9.175173467825559
 20
4.028182384328646
 30
0.0
 10
9.0455661125347
 20
4.023784883332759
 30
0.0
 10
8.927424053908474
 20
4.015641132432094
 30
0.0
 10
8.820837184323782
 20
4.004545096749644
 30
0.0
 10
8.725853988092405
 20
3.991291974526489
 30
0.0
 10
8.642481581630179
 20
3.9766762759513883
 30
0.0
 10
8.570685837055656
 20
3.961489906845144
 30
0.0
 10
8.510391589115018
 20
3.9465202607338625
 30
0.0
 10
8.46148292490916
 20
3.93254832274966
 30
0.0
 10
8.423803555835194
 20
3.9203467888345322
 30
0.0
 10
8.415367287101347
 20
3.917285694828414
 30
0.0
 10
8.379106227950853
 20
3.890995312119692
 30
0.0
 10
8.262711173598586
 20
3.818674322389666
 30
0.0
 10
8.15177787160916
 20
3.75894711611494
 30
0.0
 10
8.047033902965111
 20
3.7113340156610226
 30
0.0
 10
7.949179666921238
 20
3.6753202453929834
 30
0.0
 10
7.858886823486998
 20
3.650357269729798
 30
0.0
 10
7.776796839169717
 20
3.635864105845696
 30
0.0
 10
7.70351947061863
 20
3.6312289598754237
 30
0.0
 10
7.639631502279096
 20
3.635810526579613
 30
0.0
 10
7.585675396182771
 20
3.64893966561153
 30
0.0
 10
7.5421580655173575
 20
3.669921033059354
 30
0.0
 10
7.509549731043882
 20
3.698034726202735
 30
0.0
 10
7.48828283624392
 20
3.7325380157623496
 30
0.0
 10
7.455885104642658
 20
3.7989632093218466
 30
0.0
 10
7.318761276892746
 20
4.056855621203687
 30
0.0
 10
7.1727206658941345
 20
4.309805379420892
 30
0.0
 10
7.017941199631415
 20
4.557504303654458
 30
0.0
 10
6.976614160368144
 20
4.618774159024731
 30
0.0
 10
6.957366882487343
 20
4.654443474968314
 30
0.0
 10
6.949323877270925
 20
4.696739967566028
 30
0.0
 10
6.95291214538705
 20
4.74491776515173
 30
0.0
 10
6.968520030327868
 20
4.798209693445649
 30
0.0
 10
6.996496266809758
 20
4.855829073408253
 30
0.0
 10
7.037149107846448
 20
4.916971559029893
 30
0.0
 10
7.090745532104379
 20
4.980817011745968
 30
0.0
 10
7.15751053301419
 20
5.0465314081040304
 30
0.0
 10
7.23762649097431
 20
5.11326877725193
 30
0.0
 10
7.331232629842377
 20
5.180173164763907
 30
0.0
 10
7.438424558768083
 20
5.246380619275062
 30
0.0
 10
7.5592539002772465
 20
5.31102119835399
 30
0.0
 10
7.600152569143613
 20
5.329279005387701
 30
0.0
 10
7.607021688692747
 20
5.335054481425461
 30
0.0
 10
7.636428211565718
 20
5.361585005284729
 30
0.0
 10
7.672982596903068
 20
5.396955181960063
 30
0.0
 10
7.716093814668478
 20
5.441686709345172
 30
0.0
 10
7.765143467641605
 20
5.496270464152415
 30
0.0
 10
7.819487238986015
 20
5.561165237521707
 30
0.0
 10
7.878456376546809
 20
5.636796535895575
 30
0.0
 10
7.941359260127158
 20
5.723555454832404
 30
0.0
 10
8.007482984597333
 20
5.821797603400334
 30
0.0
 10
8.076095009818339
 20
5.931842115101542
 30
0.0
 10
8.146444846386483
 20
6.05397072303201
 30
0.0
 10
8.21776578249909
 20
6.188426910037823
 30
0.0
 10
8.289276647770281
 20
6.335415134139329
 30
0.0
 10
8.358231156378274
 20
6.490703134035487
 30
0.0
 10
8.319056352099576
 20
6.5421782260251655
 30
0.0
 10
8.107298264126579
 20
6.802830983272815
 30
0.0
 10
7.8873768140278315
 20
7.05663386637158
 30
0.0
 10
7.843486377722834
 20
7.1041520732672225
 30
0.0
 10
7.6785837267135975
 20
7.063210616780422
 30
0.0
 10
7.521410852579285
 20
7.018310399490489
 30
0.0
 10
7.376612606589974
 20
6.971421060504284
 30
0.0
 10
7.244123285716315
 20
6.923347406236989
 30
0.0
 10
7.123836244270805
 20
6.874886780768613
 30
0.0
 10
7.015604350425538
 20
6.826827194317608
 30
0.0
 10
6.9192405233185905
 20
6.779945475054842
 30
0.0
 10
6.834518349483583
 20
6.735005447510784
 30
0.0
 10
6.761172777675325
 20
6.692756141004514
 30
0.0
 10
6.698900890433132
 20
6.653930031169294
 30
0.0
 10
6.647362751075992
 20
6.619241317860375
 30
0.0
 10
6.606182324461145
 20
6.589384242496987
 30
0.0
 10
6.574948469764916
 20
6.565031447903573
 30
0.0
 10
6.568067926099459
 20
6.559269586613009
 30
0.0
 10
6.542985516855982
 20
6.522162695336193
 30
0.0
 10
6.4583451784581
 20
6.414393741786992
 30
0.0
 10
6.374529880829744
 20
6.320327102944461
 30
0.0
 10
6.292387385864531
 20
6.23976087662704
 30
0.0
 10
6.212751917210233
 20
6.172450882622735
 30
0.0
 10
6.136442239039457
 20
6.118111387346521
 30
0.0
 10
6.064259840524961
 20
6.07641583999099
 30
0.0
 10
5.996986951315983
 20
6.04699789143209
 30
0.0
 10
5.935384910809495
 20
6.029452183767382
 30
0.0
 10
5.880192326050999
 20
6.023335463692586
 30
0.0
 10
5.832123361246736
 20
6.028167696185969
 30
0.0
 10
5.79186610060758
 20
6.043433218945615
 30
0.0
 10
5.76008093645664
 20
6.068581999130049
 30
0.0
 10
5.706918272919077
 20
6.119920586546494
 30
0.0
 10
5.489859624174137
 20
6.31536107172815
 30
0.0
 10
5.266112427124034
 20
6.503107262249323
 30
0.0
 10
5.0359492832597965
 20
6.682930418293168
 30
0.0
 10
4.976159044709887
 20
6.726370569369184
 30
0.0
 10
4.94587289516373
 20
6.753305805610428
 30
0.0
 10
4.923848690052476
 20
6.790300637792739
 30
0.0
 10
4.910742781887224
 20
6.836800218645107
 30
0.0
 10
4.907182483238998
 20
6.892216461454825
 30
0.0
 10
4.913764557625246
 20
6.95592940403119
 30
0.0
 10
4.931053770665805
 20
7.027288637104318
 30
0.0
 10
4.959581504152849
 20
7.105614794598791
 30
0.0
 10
4.999844435573619
 20
7.190201103116175
 30
0.0
 10
5.052303285514795
 20
7.280314987859315
 30
0.0
 10
5.117381635263417
 20
7.375199732134341
 30
0.0
 10
5.195464816801577
 20
7.474076187474014
 30
0.0
 10
5.286898877270929
 20
7.576144531338723
 30
0.0
 10
5.319086516826138
 20
7.6072894264675375
 30
0.0
 10
5.323566048635547
 20
7.615065975934462
 30
0.0
 10
5.342125167609397
 20
7.650054136598323
 30
0.0
 10
5.3643777408723174
 20
7.695793566728292
 30
0.0
 10
5.389589950672137
 20
7.7525723578076295
 30
0.0
 10
5.4170128039806675
 20
7.820640278754728
 30
0.0
 10
5.445883925209834
 20
7.900208082881497
 30
0.0
 10
5.475429361120084
 20
7.991446888744213
 30
0.0
 10
5.5048654387571405
 20
8.09448765791426
 30
0.0
 10
5.533400620966818
 20
8.209420725694214
 30
0.0
 10
5.560237395099923
 20
8.336295435997782
 30
0.0
 10
5.584574173407961
 20
8.475119848842873
 30
0.0
 10
5.60560720642977
 20
8.6258605323826
 30
0.0
 10
5.62253250535674
 20
8.788442438302605
 30
0.0
 10
5.63421692428435
 20
8.957949256818685
 30
0.0
 10
5.579799131442913
 20
8.992921448741505
 30
0.0
 10
5.2916631253908815
 20
9.165429389715726
 30
0.0
 10
4.998198863126644
 20
9.328708520214661
 30
0.0
 10
4.940703160074738
 20
9.358349615271814
 30
0.0
 10
4.799748158588903
 20
9.263477202393979
 30
0.0
 10
4.667410747330033
 20
9.16752851059662
 30
0.0
 10
4.547382002511643
 20
9.073943027911184
 30
0.0
 10
4.439324923476417
 20
8.983454553227663
 30
0.0
 10
4.342866588322249
 20
8.896775869920948
 30
0.0
 10
4.257599222988313
 20
8.81459714332955
 30
0.0
 10
4.183081338086829
 20
8.737584367730044
 30
0.0
 10
4.118838931178811
 20
8.666377865431064
 30
0.0
 10
4.064366752449953
 20
8.601590840891637
 30
0.0
 10
4.01912963117667
 20
8.543807992185922
 30
0.0
 10
3.982563860631431
 20
8.493584182455306
 30
0.0
 10
3.954078638815714
 20
8.45144317364506
 30
0.0
 10
3.933057562336188
 20
8.417876424810299
 30
0.0
 10
3.9285626388511865
 20
8.410108761742945
 30
0.0
 10
3.917684188246424
 20
8.366661000625408
 30
0.0
 10
3.8750074397720677
 20
8.236442609555429
 30
0.0
 10
3.8284195083808132
 20
8.119382363065235
 30
0.0
 10
3.778786084281352
 20
8.015580486809057
 30
0.0
 10
3.726974595830682
 20
7.925092847735117
 30
0.0
 10
3.673852156321672
 20
7.847930977941724
 30
0.0
 10
3.6202836061695525
 20
7.784062145486584
 30
0.0
 10
3.5671292995833905
 20
7.733409633097939
 30
0.0
 10
3.5152433021443232
 20
7.695852922355764
 30
0.0
 10
3.465471279001328
 20
7.67122810988845
 30
0.0
 10
3.418648506635975
 20
7.659328368872533
 30
0.0
 10
3.37559793959811
 20
7.659904473908508
 30
0.0
 10
3.3371282659918564
 20
7.672665430671054
 30
0.0
 10
3.2696128723379747
 20
7.702725220625166
 30
0.0
 10
2.998799879081126
 20
7.812140772199367
 30
0.0
 10
2.724333310100713
 20
7.912038433608987
 30
0.0
 10
2.446547560631215
 20
8.002296494937086
 30
0.0
 10
2.375505707973728
 20
8.022667418390728
 30
0.0
 10
2.337833643373444
 20
8.037619787917192
 30
0.0
 10
2.304484682546421
 20
8.064850836937337
 30
0.0
 10
2.2762653640471253
 20
8.104063665344853
 30
0.0
 10
2.253966306371243
 20
8.154920205930875
 30
0.0
 10
2.238360323349796
 20
8.217041989943407
 30
0.0
 10
2.230200574139924
 20
8.290010993809288
 30
0.0
 10
2.2302187511730374
 20
8.373370565517355
 30
0.0
 10
2.23912330935784
 20
8.466626429025904
 30
0.0
 10
2.2575977397669957
 20
8.569247764924963
 30
0.0
 10
2.2862988909623363
 20
8.680668365453785
 30
0.0
 10
2.3258553410344227
 20
8.80028786184695
 30
0.0
 10
2.376865823348344
 20
8.927473021859031
 30
0.0
 10
2.3964601292230716
 20
8.967748471080716
 30
0.0
 10
2.398009775645691
 20
8.976588127341447
 30
0.0
 10
2.4034829870687506
 20
9.015813836263586
 30
0.0
 10
2.408749759508729
 20
9.066405669532417
 30
0.0
 10
2.4130219967485127
 20
9.128383364136107
 30
0.0
 10
2.415510449565226
 20
9.201725455381316
 30
0.0
 10
2.4154266373665427
 20
9.286369238792153
 30
0.0
 10
2.4119847560112784
 20
9.382210805615308
 30
0.0
 10
2.404403602311774
 20
9.489105187536879
 30
0.0
 10
2.3919084781520312
 20
9.606866550323165
 30
0.0
 10
2.37373309016818
 20
9.73526849669518
 30
0.0
 10
2.3491214355795655
 20
9.874044441435649
 30
0.0
 10
2.3173296713136393
 20
10.022888070378848
 30
0.0
 10
2.2776279630549876
 20
10.181453880810016
 30
0.0
 10
2.230632978935887
 20
10.34473449397877
 30
0.0
 10
2.1675357864694758
 20
10.35898562335426
 30
0.0
 10
1.8377753171028377
 20
10.422541744427505
 30
0.0
 10
1.506164363773417
 20
10.475603249445118
 30
0.0
 10
1.441998224308866
 20
10.483792079143916
 30
0.0
 10
1.3419921257998888
 20
10.346431723035804
 30
0.0
 10
1.2504520223064617
 20
10.211007385013659
 30
0.0
 10
1.169670016719701
 20
10.082013549015482
 30
0.0
 10
1.0990784580071986
 20
9.960024499430222
 30
0.0
 10
1.0380831279373752
 20
9.845582486733079
 30
0.0
 10
0.9860647937863303
 20
9.739196587257045
 30
0.0
 10
0.9423808077762839
 20
9.641341632645616
 30
0.0
 10
0.9063667501853088
 20
9.552457210665024
 30
0.0
 10
0.8773381132142881
 20
9.472946739406543
 30
0.0
 10
0.854592022364282
 20
9.403176616168267
 30
0.0
 10
0.8374089922119958
 20
9.343475442693956
 30
0.0
 10
0.825054713343486
 20
9.294133328034418
 30
0.0
 10
0.8167818671421416
 20
9.255401270260231
 30
0.0
 10
0.8152147179478897
 20
9.246564700220508
 30
0.0
 10
0.81985232767361
 20
9.202016510473689
 30
0.0
 10
0.824286614830513
 20
9.065054941664743
 30
0.0
 10
0.8205452417667856
 20
8.939120280878845
 30
0.0
 10
0.8094074119907955
 20
8.824602792912941
 30
0.0
 10
0.791669133907037
 20
8.721851653497007
 30
0.0
 10
0.7681412832682877
 20
8.631174269471432
 30
0.0
 10
0.7396477392144907
 20
8.552835675714348
 30
0.0
 10
0.7070232090994522
 20
8.487058040041497
 30
0.0
 10
0.6711114717747237
 20
8.434020219815379
 30
0.0
 10
0.6327632507951038
 20
8.39385743076263
 30
0.0
 10
0.5928341882464454
 20
8.366661000625406
 30
0.0
 10
0.5521828485533395
 20
8.352478201167969
 30
0.0
 10
0.5116686758806026
 20
8.3513121747914
 30
0.0
 10
0.43794390500614844
 20
8.356467512979464
 30
0.0
 10
0.14604061099827903
 20
8.366661000624799
 30
0.0
 10
-0.14604061099825882
 20
8.366661000624402
 30
0.0
 10
-0.43794390500596303
 20
8.356467512973472
 30
0.0
 10
-0.5116686758744542
 20
8.35131217479342
 30
0.0
 10
-0.5521828485576102
 20
8.352478201166738
 30
0.0
 10
-0.5928341882464202
 20
8.366661000625408
 30
0.0
 10
-0.6327632507959589
 20
8.393857430762413
 30
0.0
 10
-0.6711114720447443
 20
8.434020219767465
 30
0.0
 10
-0.707023200601721
 20
8.487058041244364
 30
0.0
 10
-0.7396477258822413
 20
8.55283567712897
 30
0.0
 10
-0.7681412977215157
 20
8.631174268446383
 30
0.0
 10
-0.791669133907051
 20
8.721851653497003
 30
0.0
 10
-0.8094074119908126
 20
8.824602792912941
 30
0.0
 10
-0.82054524176679
 20
8.939120280878852
 30
0.0
 10
-0.8242866148304988
 20
9.065054941664744
 30
0.0
 10
-0.819852327673607
 20
9.20201651047369
 30
0.0
 10
-0.8152147179490103
 20
9.246564700209786
 30
0.0
 10
-0.8167818671420924
 20
9.25540127025985
 30
0.0
 10
-0.8250547133434426
 20
9.294133328034444
 30
0.0
 10
-0.8374089922119504
 20
9.34347544269398
 30
0.0
 10
-0.8545920223948282
 20
9.403176616159465
 30
0.0
 10
-0.8773381142052787
 20
9.472946739084625
 30
0.0
 10
-0.9063667508437145
 20
9.552457212290983
 30
0.0
 10
-0.9423808077762893
 20
9.641341632644824
 30
0.0
 10
-0.9860647937902818
 20
9.739196587265116
 30
0.0
 10
-1.0380831279373877
 20
9.845582486733093
 30
0.0
 10
-1.0990784580071846
 20
9.960024499430187
 30
0.0
 10
-1.169670016719727
 20
10.08201354901552
 30
0.0
 10
-1.2504520223064488
 20
10.21100738501363
 30
0.0
 10
-1.3419921257999183
 20
10.34643172303584
 30
0.0
 10
-1.4419982243088687
 20
10.483792079143914
 30
0.0
 10
-1.5061643637734208
 20
10.475603249445117
 30
0.0
 10
-1.8377753171028357
 20
10.422541744427507
 30
0.0
 10
-2.1675357864694726
 20
10.358985623354263
 30
0.0
 10
-2.230632978935883
 20
10.344734493978773
 30
0.0
 10
-2.277627963054996
 20
10.181453880809977
 30
0.0
 10
-2.31732967131363
 20
10.02288807037888
 30
0.0
 10
-2.349121435579571
 20
9.874044441435608
 30
0.0
 10
-2.373733090168172
 20
9.735268496695221
 30
0.0
 10
-2.3919084781520312
 20
9.60686655032315
 30
0.0
 10
-2.40440360231272
 20
9.489105187527946
 30
0.0
 10
-2.411984756011548
 20
9.382210805616054
 30
0.0
 10
-2.415426637429125
 20
9.286369237039068
 30
0.0
 10
-2.4155104506065492
 20
9.201725455344887
 30
0.0
 10
-2.4130219967802207
 20
9.128383364133937
 30
0.0
 10
-2.4087497595086713
 20
9.066405669532411
 30
0.0
 10
-2.4034829870686947
 20
9.015813836263579
 30
0.0
 10
-2.3980097756457686
 20
8.976588127341826
 30
0.0
 10
-2.396460129227785
 20
8.967748471090411
 30
0.0
 10
-2.3768658233483344
 20
8.927473021859033
 30
0.0
 10
-2.3258553410344023
 20
8.800287861846957
 30
0.0
 10
-2.2862988909623323
 20
8.68066836545378
 30
0.0
 10
-2.2575977397670055
 20
8.56924776492496
 30
0.0
 10
-2.239123309357849
 20
8.466626429025906
 30
0.0
 10
-2.23021876510521
 20
8.373370561537293
 30
0.0
 10
-2.230200561127873
 20
8.29001099703988
 30
0.0
 10
-2.23836031495313
 20
8.21704199171948
 30
0.0
 10
-2.253966306641361
 20
8.154920205883549
 30
0.0
 10
-2.2762653640479975
 20
8.104063665344768
 30
0.0
 10
-2.3044846825463914
 20
8.064850836937348
 30
0.0
 10
-2.3378336433778717
 20
8.03761978791689
 30
0.0
 10
-2.375505707967253
 20
8.022667418390935
 30
0.0
 10
-2.4465475606330838
 20
8.002296494942783
 30
0.0
 10
-2.724333310100824
 20
7.91203843360937
 30
0.0
 10
-2.9987998790809653
 20
7.812140772199004
 30
0.0
 10
-3.269612872335746
 20
7.702725220619605
 30
0.0
 10
-3.337128265986765
 20
7.67266543067506
 30
0.0
 10
-3.375597939601697
 20
7.659904473905897
 30
0.0
 10
-3.418648506635946
 20
7.659328368872546
 30
0.0
 10
-3.4654712790020517
 20
7.671228109887957
 30
0.0
 10
-3.515243302381667
 20
7.695852922218392
 30
0.0
 10
-3.5671292920095348
 20
7.733409637134664
 30
0.0
 10
-3.620283594125159
 20
7.784062151375794
 30
0.0
 10
-3.6738521695526716
 20
7.847930972035202
 30
0.0
 10
-3.726974595830688
 20
7.925092847735112
 30
0.0
 10
-3.7787860842813625
 20
8.015580486809055
 30
0.0
 10
-3.828419508380814
 20
8.119382363065244
 30
0.0
 10
-3.875007439772049
 20
8.23644260955544
 30
0.0
 10
-3.917684188246416
 20
8.366661000625413
 30
0.0
 10
-3.928562638848567
 20
8.41010876173249
 30
0.0
 10
-3.933057562336006
 20
8.417876424809961
 30
0.0
 10
-3.9540786388156763
 20
8.451443173645105
 30
0.0
 10
-3.9825638606313913
 20
8.493584182455352
 30
0.0
 10
-4.019129631202358
 20
8.543807992167208
 30
0.0
 10
-4.06436675327107
 20
8.601590840250198
 30
0.0
 10
-4.118838932353614
 20
8.66637786673378
 30
0.0
 10
-4.1830813380865575
 20
8.7375843677293
 30
0.0
 10
-4.257599222994781
 20
8.814597143335787
 30
0.0
 10
-4.34286658832226
 20
8.896775869920962
 30
0.0
 10
-4.439324923476387
 20
8.98345455322764
 30
0.0
 10
-4.547382002511675
 20
9.073943027911215
 30
0.0
 10
-4.667410747330005
 20
9.167528510596602
 30
0.0
 10
-4.799748158588937
 20
9.263477202394007
 30
0.0
 10
-4.940703160074735
 20
9.358349615271816
 30
0.0
 10
-4.998198863126642
 20
9.328708520214665
 30
0.0
 10
-5.29166312539088
 20
9.165429389715728
 30
0.0
 10
-5.579799131442912
 20
8.992921448741507
 30
0.0
 10
-5.634216924284347
 20
8.957949256818686
 30
0.0
 10
-5.622532505356734
 20
8.78844243830256
 30
0.0
 10
-5.605607206429774
 20
8.625860532382632
 30
0.0
 10
-5.584574173407952
 20
8.47511984884283
 30
0.0
 10
-5.56023739509993
 20
8.336295435997819
 30
0.0
 10
-5.533400620966814
 20
8.209420725694198
 30
0.0
 10
-5.504865438754974
 20
8.094487657905542
 30
0.0
 10
-5.475429361120593
 20
7.99144688874482
 30
0.0
 10
-5.445883924669053
 20
7.900208081212728
 30
0.0
 10
-5.417012804946732
 20
7.820640278364339
 30
0.0
 10
-5.3895899507011915
 20
7.752572357794741
 30
0.0
 10
-5.3643777408722615
 20
7.6957935667283035
 30
0.0
 10
-5.342125167609343
 20
7.650054136598333
 30
0.0
 10
-5.323566048635749
 20
7.6150659759347885
 30
0.0
 10
-5.319086516833884
 20
7.607289426475032
 30
0.0
 10
-5.286898877270921
 20
7.576144531338726
 30
0.0
 10
-5.19546481680156
 20
7.474076187474024
 30
0.0
 10
-5.117381635263412
 20
7.375199732134334
 30
0.0
 10
-5.052303285514803
 20
7.280314987859305
 30
0.0
 10
-4.99984443557363
 20
7.190201103116172
 30
0.0
 10
-4.959581515883548
 20
7.10561478609367
 30
0.0
 10
-4.931053759543405
 20
7.027288644590463
 30
0.0
 10
-4.913764550342414
 20
6.955929408571978
 30
0.0
 10
-4.90718248347664
 20
6.892216461317965
 30
0.0
 10
-4.9107427818880165
 20
6.8368002186447265
 30
0.0
 10
-4.923848690052453
 20
6.790300637792756
 30
0.0
 10
-4.945872895167788
 20
6.753305805608628
 30
0.0
 10
-4.9761590447038735
 20
6.726370569371589
 30
0.0
 10
-5.035949283263502
 20
6.682930418297878
 30
0.0
 10
-5.266112427124269
 20
6.503107262249643
 30
0.0
 10
-5.489859624173863
 20
6.31536107172786
 30
0.0
 10
-5.706918272915081
 20
6.119920586542026
 30
0.0
 10
-5.760080936453226
 20
6.068581999135552
 30
0.0
 10
-5.791866100610058
 20
6.04343321894193
 30
0.0
 10
-5.832123361246714
 20
6.028167696185989
 30
0.0
 10
-5.88019232605151
 20
6.023335463691872
 30
0.0
 10
-5.935384910985541
 20
6.029452183557115
 30
0.0
 10
-5.996986945579528
 20
6.046997897815779
 30
0.0
 10
-6.064259831221161
 20
6.0764158496444605
 30
0.0
 10
-6.13644224945238
 20
6.118111377270935
 30
0.0
 10
-6.2127519172102375
 20
6.172450882622725
 30
0.0
 10
-6.292387385864542
 20
6.239760876627033
 30
0.0
 10
-6.374529880829749
 20
6.320327102944466
 30
0.0
 10
-6.458345178458087
 20
6.414393741787006
 30
0.0
 10
-6.5429855168559765
 20
6.522162695336199
 30
0.0
 10
-6.5680679260934225
 20
6.559269586604078
 30
0.0
 10
-6.574948469764629
 20
6.5650314479033165
 30
0.0
 10
-6.606182324461123
 20
6.589384242497038
 30
0.0
 10
-6.6473627510759705
 20
6.619241317860427
 30
0.0
 10
-6.698900890450869
 20
6.653930031142918
 30
0.0
 10
-6.761172778227538
 20
6.692756140120915
 30
0.0
 10
-6.834518351033092
 20
6.735005448333127
 30
0.0
 10
-6.91924052331808
 20
6.779945475054233
 30
0.0
 10
-7.015604350433749
 20
6.826827194321255
 30
0.0
 10
-7.12383624427082
 20
6.87488678076862
 30
0.0
 10
-7.244123285716277
 20
6.9233474062369735
 30
0.0
 10
-7.376612606590014
 20
6.9714210605043
 30
0.0
 10
-7.521410852579253
 20
7.01831039949048
 30
0.0
 10
-7.67858372671364
 20
7.0632106167804345
 30
0.0
 10
-7.84348637772283
 20
7.104152073267223
 30
0.0
 10
-7.887376814027829
 20
7.05663386637158
 30
0.0
 10
-8.107298264126577
 20
6.8028309832728135
 30
0.0
 10
-8.319056352099576
 20
6.542178226025166
 30
0.0
 10
-8.358231156378274
 20
6.490703134035488
 30
0.0
 10
-8.289276647770262
 20
6.335415134139289
 30
0.0
 10
-8.217765782499105
 20
6.188426910037851
 30
0.0
 10
-8.146444846386462
 20
6.053970723031972
 30
0.0
 10
-8.07609500981836
 20
5.931842115101575
 30
0.0
 10
-8.007482984597324
 20
5.82179760340032
 30
0.0
 10
-7.941359260122143
 20
5.72355545482495
 30
0.0
 10
-7.878456376547495
 20
5.6367965358959715
 30
0.0
 10
-7.8194872379070945
 20
5.561165236138535
 30
0.0
 10
-7.765143468415889
 20
5.496270463455154
 30
0.0
 10
-7.716093814691374
 20
5.441686709323122
 30
0.0
 10
-7.67298259690302
 20
5.396955181960093
 30
0.0
 10
-7.63642821156567
 20
5.3615850052847565
 30
0.0
 10
-7.60702168869305
 20
5.335054481425697
 30
0.0
 10
-7.600152569153457
 20
5.3292790053920935
 30
0.0
 10
-7.559253900277242
 20
5.311021198353996
 30
0.0
 10
-7.438424558768071
 20
5.246380619275076
 30
0.0
 10
-7.331232629842372
 20
5.180173164763904
 30
0.0
 10
-7.237626490974315
 20
5.113268777251918
 30
0.0
 10
-7.157510533014199
 20
5.046531408104023
 30
0.0
 10
-7.090745540218709
 20
4.9808169997416325
 30
0.0
 10
-7.037149099955224
 20
4.916971569868652
 30
0.0
 10
-6.996496261519177
 20
4.855829080166072
 30
0.0
 10
-6.96852003050437
 20
4.798209693235764
 30
0.0
 10
-6.952912145387665
 20
4.744917765151101
 30
0.0
 10
-6.949323877270909
 20
4.696739967566052
 30
0.0
 10
-6.9573668824905415
 20
4.654443474965233
 30
0.0
 10
-6.976614160363317
 20
4.618774159029048
 30
0.0
 10
-7.017941199636509
 20
4.557504303657616
 30
0.0
 10
-7.172720665894467
 20
4.309805379421111
 30
0.0
 10
-7.318761276892391
 20
4.056855621203509
 30
0.0
 10
-7.455885104637376
 20
3.798963209319015
 30
0.0
 10
-7.488282836242597
 20
3.732538015768688
 30
0.0
 10
-7.5095497310449515
 20
3.698034726198425
 30
0.0
 10
-7.542158065517344
 20
3.6699210330593797
 30
0.0
 10
-7.5856753961830075
 20
3.6489396656106834
 30
0.0
 10
-7.63963150237261
 20
3.6358105263218157
 30
0.0
 10
-7.7035194674114775
 20
3.6312289678361123
 30
0.0
 10
-7.776796833728688
 20
3.635864118099076
 30
0.0
 10
-7.8588868298258925
 20
3.6503572567004143
 30
0.0
 10
-7.949179666921239
 20
3.675320245392972
 30
0.0
 10
-8.04703390296512
 20
3.711334015661011
 30
0.0
 10
-8.151777871609166
 20
3.7589471161149426
 30
0.0
 10
-8.262711173598579
 20
3.8186743223896826
 30
0.0
 10
-8.379106227950851
 20
3.890995312119699
 30
0.0
 10
-8.415367287092621
 20
3.9172856948220858
 30
0.0
 10
-8.423803555834837
 20
3.9203467888343875
 30
0.0
 10
-8.46148292490916
 20
3.932548322749714
 30
0.0
 10
-8.510391589115017
 20
3.9465202607339185
 30
0.0
 10
-8.570685837063305
 20
3.9614899068142924
 30
0.0
 10
-8.64248158184688
 20
3.976676274932209
 30
0.0
 10
-8.725853989829728
 20
3.9912919747692746
 30
0.0
 10
-8.820837184323096
 20
4.004545096749247
 30
0.0
 10
-8.92742405391744
 20
4.0156411324327115
 30
0.0
 10
-9.045566112534718
 20
4.023784883332759
 30
0.0
 10
-9.17517346782552
 20
4.028182384328645
 30
0.0
 10
-9.316114863106208
 20
4.028042825983508
 30
0.0
 10
-9.468217804805537
 20
4.022580474975806
 30
0.0
 10
-9.631268773570197
 20
4.01101658889651
 30
0.0
 10
-9.80022938068714
 20
3.993088945108427
 30
0.0
 10
-9.825220715872993
 20
3.9334250234199515
 30
0.0
 10
-9.945073581229417
 20
3.6197107611546926
 30
0.0
 10
-10.054912600497307
 20
3.302351756982683
 30
0.0
 10
-10.07411935665872
 20
3.2405824207115512
 30
0.0
 10
-9.956211689768597
 20
3.118243264029554
 30
0.0
 10
-9.838740523892918
 20
3.0045776708883905
 30
0.0
 10
-9.725734042169549
 20
2.9026233809313227
 30
0.0
 10
-9.61785637588449
 20
2.8119210904582332
 30
0.0
 10
-9.51574472242284
 20
2.731979769554538
 30
0.0
 10
-9.420007952738262
 20
2.6622779932103384
 30
0.0
 10
-9.331225279330141
 20
2.602265330561213
 30
0.0
 10
-9.24994498691271
 20
2.5513637895282844
 30
0.0
 10
-9.176683228281878
 20
2.5089693143403724
 30
0.0
 10
-9.111922887213355
 20
2.4744533329646425
 30
0.0
 10
-9.056112510584667
 20
2.4471643516720367
 30
0.0
 10
-9.009665311529842
 20
2.4264295937665916
 30
0.0
 10
-8.972958245410688
 20
2.4115566794382524
 30
0.0
 10
-8.964528055327248
 20
2.408478884477402
 30
0.0
 10
-8.91985134020432
 20
2.4053103265228404
 30
0.0
 10
-8.784200519492506
 20
2.3858941200599637
 30
0.0
 10
-8.66082877179208
 20
2.360341262509319
 30
0.0
 10
-8.54998512563154
 20
2.3294868882979203
 30
0.0
 10
-8.451875226568085
 20
2.294175546403171
 30
0.0
 10
-8.366661004144671
 20
2.2552591741907717
 30
0.0
 10
-8.294460401652836
 20
2.21359515704889
 30
0.0
 10
-8.235347266269116
 20
2.17004410028739
 30
0.0
 10
-8.18935121745086
 20
2.1254680221161677
 30
0.0
 10
-8.156457690099
 20
2.0807282016521818
 30
0.0
 10
-8.13660804379313
 20
2.0366831407513786
 30
0.0
 10
-8.129699743985455
 20
1.9941865689712754
 30
0.0
 10
-8.135586644423896
 20
1.9540854192608856
 30
0.0
 10
-8.153465833552163
 20
1.8823759083962888
 30
0.0
 10
-8.214192934274964
 20
1.59667736188122
 30
0.0
 10
-8.264912306205002
 20
1.3090335099496808
 30
0.0
 10
-8.305562155595545
 20
1.0197948023264376
 30
0.0
 10
-8.313287310696655
 20
0.9462948613058759
 30
0.0
 10
-8.32147083476543
 20
0.9065986682954668
 30
0.0
 10
-8.342497196688425
 20
0.8690277310798071
 30
0.0
 10
-8.376214060889279
 20
0.8344278912428489
 30
0.0
 10
-8.422425785620668
 20
0.8036364607635664
 30
0.0
 10
-8.480893849634784
 20
0.7774802331034734
 30
0.0
 10
-8.551337364790967
 20
0.7567735142714748
 30
0.0
 10
-8.633433673705524
 20
0.7423161774364104
 30
0.0
 10
-8.726819031404311
 20
0.7348917446189367
 30
0.0
 10
-8.83108936979616
 20
0.7352654989497402
 30
0.0
 10
-8.945801143644234
 20
0.7441826309309023
 30
0.0
 10
-9.070472256573629
 20
0.7623664220814242
 30
0.0
 10
-9.204583065517348
 20
0.7905164692866912
 30
0.0
 10
-9.247649155674708
 20
0.8028193352649526
 30
0.0
 10
-9.256623610971555
 20
0.8028104488754979
 30
0.0
 10
-9.296203806425076
 20
0.8013890370467796
 30
0.0
 10
-9.346941601503712
 20
0.7977906157270596
 30
0.0
 10
-9.408719581874498
 20
0.7912356343595771
 30
0.0
 10
-9.48137955725174
 20
0.7809505614954696
 30
0.0
 10
-9.564722857563451
 20
0.7661697838522833
 30
0.0
 10
-9.658510699206644
 20
0.7461374789850865
 30
0.0
 10
-9.762464661751924
 20
0.7201094854215239
 30
0.0
 10
-9.87626720928908
 20
0.6873551442267459
 30
0.0
 10
-9.999562318576313
 20
0.6471591172298573
 30
0.0
 10
-10.131956175919639
 20
0.5988231790683426
 30
0.0
 10
-10.273017953759778
 20
0.5416679782140025
 30
0.0
 10
-10.42228066394568
 20
0.47503476409140094
 30
0.0
 10
-10.574920084359087
 20
0.4004003584531317
 30
0.0
 10
-10.577997994569557
 20
0.33578707147315734
 30
0.0
 10
-10.583326250781763
 20
-4.440892098500626e-15
 30
0.0
 10
-10.577997994569559
 20
-0.33578707147316056
 30
0.0
 10
-10.574920084359087
 20
-0.4004003584531337
 30
0.0
 10
-10.422280663945639
 20
-0.475034764091423
 30
0.0
 10
-10.273017953759808
 20
-0.5416679782139942
 30
0.0
 10
-10.131956175919598
 20
-0.5988231790683614
 30
0.0
 10
-9.999562318576348
 20
-0.6471591172298488
 30
0.0
 10
-9.876267209289063
 20
-0.6873551442267551
 30
0.0
 10
-9.762464661743289
 20
-0.7201094854240129
 30
0.0
 10
-9.658510699207422
 20
-0.7461374789852289
 30
0.0
 10
-9.564722855847865
 20
-0.766169784218341
 30
0.0
 10
-9.481379557396686
 20
-0.780950562527305
 30
0.0
 10
-9.408719581877863
 20
-0.791235634391187
 30
0.0
 10
-9.346941601503694
 20
-0.7977906157270098
 30
0.0
 10
-9.296203806425059
 20
-0.8013890370467314
 30
0.0
 10
-9.256623610971939
 20
-0.8028104488755146
 30
0.0
 10
-9.247649155685071
 20
-0.8028193352679174
 30
0.0
 10
-9.204583065517346
 20
-0.7905164692866875
 30
0.0
 10
-9.07047225657363
 20
-0.762366422081409
 30
0.0
 10
-8.945801143644227
 20
-0.7441826309309052
 30
0.0
 10
-8.831089369796157
 20
-0.7352654989497562
 30
0.0
 10
-8.726819031404313
 20
-0.7348917446189507
 30
0.0
 10
-8.633433672205221
 20
-0.7423161918480585
 30
0.0
 10
-8.551337365712959
 20
-0.7567735008961254
 30
0.0
 10
-8.480893849925806
 20
-0.7774802245259655
 30
0.0
 10
-8.422425785620964
 20
-0.803636461037804
 30
0.0
 10
-8.376214060889344
 20
-0.8344278912437284
 30
0.0
 10
-8.342497196688427
 20
-0.8690277310797814
 30
0.0
 10
-8.321470834765899
 20
-0.9065986682998852
 30
0.0
 10
-8.313287310695731
 20
-0.9462948612994693
 30
0.0
 10
-8.305562155601477
 20
-1.0197948023272947
 30
0.0
 10
-8.264912306205396
 20
-1.309033509949729
 30
0.0
 10
-8.214192934274575
 20
-1.5966773618811305
 30
0.0
 10
-8.153465833546296
 20
-1.8823759083950653
 30
0.0
 10
-8.135586644426954
 20
-1.9540854192551809
 30
0.0
 10
-8.129699743983501
 20
-1.9941865689752671
 30
0.0
 10
-8.136608043793135
 20
-2.0366831407513537
 30
0.0
 10
-8.156457690098636
 20
-2.0807282016529856
 30
0.0
 10
-8.189351217356785
 20
-2.1254680223737656
 30
0.0
 10
-8.235347268929324
 20
-2.1700440921276334
 30
0.0
 10
-8.294460405361086
 20
-2.213595144164833
 30
0.0
 10
-8.366661000625419
 20
-2.2552591882464244
 30
0.0
 10
-8.451875226568077
 20
-2.294175546403183
 30
0.0
 10
-8.549985125631537
 20
-2.3294868882979367
 30
0.0
 10
-8.660828771792085
 20
-2.3603412625093245
 30
0.0
 10
-8.78420051949251
 20
-2.385894120059949
 30
0.0
 10
-8.919851340204321
 20
-2.4053103265228373
 30
0.0
 10
-8.964528055316494
 20
-2.4084788844766436
 30
0.0
 10
-8.97295824541032
 20
-2.411556679438137
 30
0.0
 10
-9.009665311529874
 20
-2.4264295937665525
 30
0.0
 10
-9.056112510584699
 20
-2.447164351671996
 30
0.0
 10
-9.111922887199382
 20
-2.4744533329931953
 30
0.0
 10
-9.176683227792765
 20
-2.508969315260406
 30
0.0
 10
-9.249944988399635
 20
-2.551363790459031
 30
0.0
 10
-9.331225279329358
 20
-2.6022653305610794
 30
0.0
 10
-9.420007952745523
 20
-2.66227799321563
 30
0.0
 10
-9.51574472242285
 20
-2.7319797695545516
 30
0.0
 10
-9.617856375884458
 20
-2.8119210904582124
 30
0.0
 10
-9.72573404216958
 20
-2.902623380931354
 30
0.0
 10
-9.838740523892893
 20
-3.004577670888372
 30
0.0
 10
-9.956211689768626
 20
-3.118243264029588
 30
0.0
 10
-10.074119356658716
 20
-3.2405824207115526
 30
0.0
 10
-10.054912600497305
 20
-3.3023517569826852
 30
0.0
 10
-9.945073581229416
 20
-3.619710761154695
 30
0.0
 10
-9.825220715872993
 20
-3.9334250234199555
 30
0.0
 10
-9.80022938068714
 20
-3.993088945108431
 30
0.0
 10
-9.63126877357015
 20
-4.011016588896518
 30
0.0
 10
-9.468217804805567
 20
-4.02258047497581
 30
0.0
 10
-9.316114863106161
 20
-4.028042825983513
 30
0.0
 10
-9.175173467825557
 20
-4.028182384328651
 30
0.0
 10
-9.045566112534699
 20
-4.0237848833327625
 30
0.0
 10
-8.927424053908473
 20
-4.015641132432098
 30
0.0
 10
-8.820837184323779
 20
-4.0045450967496485
 30
0.0
 10
-8.725853988092403
 20
-3.9912919745264928
 30
0.0
 10
-8.642481581630177
 20
-3.9766762759513927
 30
0.0
 10
-8.570685837055654
 20
-3.9614899068451486
 30
0.0
 10
-8.510391589115017
 20
-3.946520260733866
 30
0.0
 10
-8.461482924909156
 20
-3.9325483227496636
 30
0.0
 10
-8.42380355583519
 20
-3.920346788834536
 30
0.0
 10
-8.415367287101347
 20
-3.9172856948284176
 30
0.0
 10
-8.379106227950851
 20
-3.8909953121196965
 30
0.0
 10
-8.262711173598586
 20
-3.8186743223896693
 30
0.0
 10
-8.151777871609156
 20
-3.7589471161149435
 30
0.0
 10
-8.04703390296511
 20
-3.711334015661026
 30
0.0
 10
-7.9491796669212365
 20
-3.675320245392987
 30
0.0
 10
-7.858886823486996
 20
-3.6503572697298017
 30
0.0
 10
-7.776796839169714
 20
-3.635864105845699
 30
0.0
 10
-7.7035194706186285
 20
-3.6312289598754273
 30
0.0
 10
-7.6396315022790935
 20
-3.6358105265796166
 30
0.0
 10
-7.5856753961827685
 20
-3.6489396656115334
 30
0.0
 10
-7.542158065517354
 20
-3.6699210330593575
 30
0.0
 10
-7.50954973104388
 20
-3.6980347262027387
 30
0.0
 10
-7.488282836243918
 20
-3.7325380157623527
 30
0.0
 10
-7.455885104642657
 20
-3.79896320932185
 30
0.0
 10
-7.318761276892745
 20
-4.05685562120369
 30
0.0
 10
-7.172720665894131
 20
-4.309805379420895
 30
0.0
 10
-7.017941199631413
 20
-4.5575043036544605
 30
0.0
 10
-6.976614160368141
 20
-4.618774159024735
 30
0.0
 10
-6.9573668824873405
 20
-4.654443474968317
 30
0.0
 10
-6.949323877270922
 20
-4.696739967566032
 30
0.0
 10
-6.952912145387048
 20
-4.744917765151732
 30
0.0
 10
-6.968520030327865
 20
-4.798209693445653
 30
0.0
 10
-6.996496266809756
 20
-4.855829073408255
 30
0.0
 10
-7.037149107846446
 20
-4.9169715590298955
 30
0.0
 10
-7.090745532104376
 20
-4.980817011745971
 30
0.0
 10
-7.157510533014189
 20
-5.046531408104033
 30
0.0
 10
-7.237626490974307
 20
-5.113268777251933
 30
0.0
 10
-7.331232629842375
 20
-5.180173164763912
 30
0.0
 10
-7.438424558768079
 20
-5.246380619275064
 30
0.0
 10
-7.559253900277243
 20
-5.311021198353994
 30
0.0
 10
-7.600152569143611
 20
-5.329279005387704
 30
0.0
 10
-7.607021688692744
 20
-5.335054481425464
 30
0.0
 10
-7.636428211565715
 20
-5.3615850052847325
 30
0.0
 10
-7.672982596903065
 20
-5.396955181960067
 30
0.0
 10
-7.716093814668475
 20
-5.441686709345174
 30
0.0
 10
-7.765143467641602
 20
-5.496270464152418
 30
0.0
 10
-7.819487238986012
 20
-5.56116523752171
 30
0.0
 10
-7.878456376546805
 20
-5.63679653589558
 30
0.0
 10
-7.9413592601271565
 20
-5.7235554548324075
 30
0.0
 10
-8.00748298459733
 20
-5.821797603400338
 30
0.0
 10
-8.076095009818335
 20
-5.931842115101546
 30
0.0
 10
-8.14644484638648
 20
-6.0539707230320134
 30
0.0
 10
-8.217765782499088
 20
-6.188426910037826
 30
0.0
 10
-8.289276647770278
 20
-6.335415134139333
 30
0.0
 10
-8.35823115637827
 20
-6.49070313403549
 30
0.0
 10
-8.319056352099572
 20
-6.542178226025169
 30
0.0
 10
-8.107298264126582
 20
-6.802830983272809
 30
0.0
 10
-7.887376814027835
 20
-7.056633866371575
 30
0.0
 10
-7.843486377722838
 20
-7.104152073267217
 30
0.0
 10
-7.678583726713603
 20
-7.063210616780417
 30
0.0
 10
-7.521410852579288
 20
-7.018310399490484
 30
0.0
 10
-7.376612606589979
 20
-6.97142106050428
 30
0.0
 10
-7.244123285716318
 20
-6.923347406236983
 30
0.0
 10
-7.12383624427081
 20
-6.874886780768608
 30
0.0
 10
-7.0156043504255425
 20
-6.826827194317604
 30
0.0
 10
-6.919240523318594
 20
-6.779945475054837
 30
0.0
 10
-6.834518349483587
 20
-6.73500544751078
 30
0.0
 10
-6.76117277767533
 20
-6.69275614100451
 30
0.0
 10
-6.698900890433135
 20
-6.65393003116929
 30
0.0
 10
-6.647362751075997
 20
-6.619241317860371
 30
0.0
 10
-6.606182324461148
 20
-6.589384242496982
 30
0.0
 10
-6.57494846976492
 20
-6.56503144790357
 30
0.0
 10
-6.568067926099465
 20
-6.559269586613004
 30
0.0
 10
-6.542985516855986
 20
-6.522162695336188
 30
0.0
 10
-6.458345178458105
 20
-6.414393741786988
 30
0.0
 10
-6.374529880829748
 20
-6.320327102944456
 30
0.0
 10
-6.292387385864535
 20
-6.239760876627036
 30
0.0
 10
-6.212751917210237
 20
-6.172450882622731
 30
0.0
 10
-6.136442239039461
 20
-6.1181113873465165
 30
0.0
 10
-6.064259840524964
 20
-6.076415839990986
 30
0.0
 10
-5.996986951315987
 20
-6.0469978914320865
 30
0.0
 10
-5.935384910809499
 20
-6.029452183767377
 30
0.0
 10
-5.880192326051002
 20
-6.023335463692582
 30
0.0
 10
-5.832123361246739
 20
-6.028167696185965
 30
0.0
 10
-5.791866100607583
 20
-6.04343321894561
 30
0.0
 10
-5.760080936456643
 20
-6.068581999130045
 30
0.0
 10
-5.70691827291908
 20
-6.11992058654649
 30
0.0
 10
-5.489859624174141
 20
-6.315361071728146
 30
0.0
 10
-5.266112427124037
 20
-6.503107262249319
 30
0.0
 10
-5.035949283259801
 20
-6.682930418293164
 30
0.0
 10
-4.976159044709892
 20
-6.72637056936918
 30
0.0
 10
-4.945872895163734
 20
-6.753305805610426
 30
0.0
 10
-4.9238486900524805
 20
-6.790300637792735
 30
0.0
 10
-4.910742781887229
 20
-6.836800218645104
 30
0.0
 10
-4.907182483239002
 20
-6.8922164614548205
 30
0.0
 10
-4.91376455762525
 20
-6.955929404031187
 30
0.0
 10
-4.93105377066581
 20
-7.0272886371043155
 30
0.0
 10
-4.959581504152854
 20
-7.105614794598789
 30
0.0
 10
-4.999844435573624
 20
-7.190201103116172
 30
0.0
 10
-5.0523032855148
 20
-7.280314987859311
 30
0.0
 10
-5.117381635263421
 20
-7.3751997321343365
 30
0.0
 10
-5.195464816801581
 20
-7.474076187474011
 30
0.0
 10
-5.286898877270933
 20
-7.576144531338719
 30
0.0
 10
-5.319086516826143
 20
-7.607289426467533
 30
0.0
 10
-5.323566048635551
 20
-7.615065975934458
 30
0.0
 10
-5.342125167609402
 20
-7.650054136598321
 30
0.0
 10
-5.364377740872323
 20
-7.6957935667282875
 30
0.0
 10
-5.389589950672143
 20
-7.752572357807626
 30
0.0
 10
-5.417012803980672
 20
-7.820640278754723
 30
0.0
 10
-5.44588392520984
 20
-7.900208082881494
 30
0.0
 10
-5.475429361120089
 20
-7.99144688874421
 30
0.0
 10
-5.504865438757146
 20
-8.094487657914259
 30
0.0
 10
-5.533400620966823
 20
-8.209420725694212
 30
0.0
 10
-5.560237395099929
 20
-8.336295435997776
 30
0.0
 10
-5.584574173407966
 20
-8.475119848842867
 30
0.0
 10
-5.6056072064297755
 20
-8.625860532382596
 30
0.0
 10
-5.622532505356745
 20
-8.788442438302601
 30
0.0
 10
-5.634216924284356
 20
-8.957949256818681
 30
0.0
 10
-5.579799131442919
 20
-8.992921448741502
 30
0.0
 10
-5.2916631253908815
 20
-9.165429389715726
 30
0.0
 10
-4.998198863126644
 20
-9.328708520214661
 30
0.0
 10
-4.940703160074738
 20
-9.358349615271814
 30
0.0
 10
-4.799748158588903
 20
-9.263477202393979
 30
0.0
 10
-4.667410747330033
 20
-9.16752851059662
 30
0.0
 10
-4.547382002511643
 20
-9.073943027911184
 30
0.0
 10
-4.439324923476417
 20
-8.983454553227663
 30
0.0
 10
-4.342866588322249
 20
-8.896775869920948
 30
0.0
 10
-4.257599222988313
 20
-8.81459714332955
 30
0.0
 10
-4.183081338086829
 20
-8.737584367730044
 30
0.0
 10
-4.118838931178811
 20
-8.666377865431064
 30
0.0
 10
-4.064366752449953
 20
-8.601590840891637
 30
0.0
 10
-4.01912963117667
 20
-8.543807992185922
 30
0.0
 10
-3.982563860631431
 20
-8.493584182455306
 30
0.0
 10
-3.954078638815714
 20
-8.45144317364506
 30
0.0
 10
-3.933057562336188
 20
-8.417876424810299
 30
0.0
 10
-3.9285626388511865
 20
-8.410108761742945
 30
0.0
 10
-3.917684188246424
 20
-8.366661000625408
 30
0.0
 10
-3.8750074397720677
 20
-8.236442609555429
 30
0.0
 10
-3.8284195083808132
 20
-8.119382363065235
 30
0.0
 10
-3.778786084281352
 20
-8.015580486809057
 30
0.0
 10
-3.726974595830682
 20
-7.925092847735117
 30
0.0
 10
-3.673852156321672
 20
-7.847930977941724
 30
0.0
 10
-3.6202836061695525
 20
-7.784062145486584
 30
0.0
 10
-3.5671292995833905
 20
-7.733409633097939
 30
0.0
 10
-3.5152433021443232
 20
-7.695852922355764
 30
0.0
 10
-3.465471279001328
 20
-7.67122810988845
 30
0.0
 10
-3.418648506635975
 20
-7.659328368872533
 30
0.0
 10
-3.37559793959811
 20
-7.659904473908508
 30
0.0
 10
-3.3371282659918564
 20
-7.672665430671054
 30
0.0
 10
-3.2696128723379747
 20
-7.702725220625166
 30
0.0
 10
-2.998799879081126
 20
-7.812140772199367
 30
0.0
 10
-2.724333310100713
 20
-7.912038433608987
 30
0.0
 10
-2.446547560631215
 20
-8.002296494937086
 30
0.0
 10
-2.375505707973728
 20
-8.022667418390728
 30
0.0
 10
-2.337833643373444
 20
-8.037619787917192
 30
0.0
 10
-2.304484682546421
 20
-8.064850836937337
 30
0.0
 10
-2.2762653640471253
 20
-8.104063665344853
 30
0.0
 10
-2.253966306371243
 20
-8.154920205930875
 30
0.0
 10
-2.238360323349796
 20
-8.217041989943407
 30
0.0
 10
-2.230200574139924
 20
-8.290010993809288
 30
0.0
 10
-2.2302187511730374
 20
-8.373370565517355
 30
0.0
 10
-2.23912330935784
 20
-8.466626429025904
 30
0.0
 10
-2.2575977397669957
 20
-8.569247764924963
 30
0.0
 10
-2.2862988909623363
 20
-8.680668365453785
 30
0.0
 10
-2.3258553410344227
 20
-8.80028786184695
 30
0.0
 10
-2.376865823348344
 20
-8.927473021859031
 30
0.0
 10
-2.3964601292230716
 20
-8.967748471080716
 30
0.0
 10
-2.398009775645691
 20
-8.976588127341447
 30
0.0
 10
-2.4034829870687506
 20
-9.015813836263586
 30
0.0
 10
-2.408749759508729
 20
-9.066405669532417
 30
0.0
 10
-2.4130219967485127
 20
-9.128383364136107
 30
0.0
 10
-2.415510449565226
 20
-9.201725455381316
 30
0.0
 10
-2.4154266373665427
 20
-9.286369238792153
 30
0.0
 10
-2.4119847560112784
 20
-9.382210805615308
 30
0.0
 10
-2.404403602311774
 20
-9.489105187536879
 30
0.0
 10
-2.3919084781520312
 20
-9.606866550323165
 30
0.0
 10
-2.37373309016818
 20
-9.73526849669518
 30
0.0
 10
-2.3491214355795655
 20
-9.874044441435649
 30
0.0
 10
-2.3173296713136393
 20
-10.022888070378848
 30
0.0
 10
-2.2776279630549876
 20
-10.181453880810016
 30
0.0
 10
-2.230632978935887
 20
-10.34473449397877
 30
0.0
 10
-2.1675357864694758
 20
-10.35898562335426
 30
0.0
 10
-1.8377753171028435
 20
-10.422541744427503
 30
0.0
 10
-1.506164363773423
 20
-10.475603249445117
 30
0.0
 10
-1.441998224308872
 20
-10.483792079143914
 30
0.0
 10
-1.3419921257998948
 20
-10.346431723035803
 30
0.0
 10
-1.2504520223064672
 20
-10.211007385013655
 30
0.0
 10
-1.1696700167197065
 20
-10.08201354901548
 30
0.0
 10
-1.0990784580072042
 20
-9.96002449943022
 30
0.0
 10
-1.0380831279373808
 20
-9.845582486733077
 30
0.0
 10
-0.9860647937863356
 20
-9.739196587257043
 30
0.0
 10
-0.9423808077762892
 20
-9.641341632645616
 30
0.0
 10
-0.9063667501853143
 20
-9.552457210665024
 30
0.0
 10
-0.8773381132142934
 20
-9.472946739406542
 30
0.0
 10
-0.8545920223642873
 20
-9.403176616168265
 30
0.0
 10
-0.8374089922120012
 20
-9.343475442693954
 30
0.0
 10
-0.8250547133434913
 20
-9.294133328034416
 30
0.0
 10
-0.8167818671421467
 20
-9.25540127026023
 30
0.0
 10
-0.815214717947895
 20
-9.246564700220508
 30
0.0
 10
-0.8198523276736152
 20
-9.202016510473687
 30
0.0
 10
-0.8242866148305181
 20
-9.06505494166474
 30
0.0
 10
-0.8205452417667904
 20
-8.939120280878843
 30
0.0
 10
-0.8094074119908006
 20
-8.82460279291294
 30
0.0
 10
-0.7916691339070419
 20
-8.721851653497005
 30
0.0
 10
-0.7681412832682926
 20
-8.63117426947143
 30
0.0
 10
-0.7396477392144953
 20
-8.552835675714347
 30
0.0
 10
-0.7070232090994568
 20
-8.487058040041495
 30
0.0
 10
-0.6711114717747284
 20
-8.434020219815377
 30
0.0
 10
-0.6327632507951084
 20
-8.39385743076263
 30
0.0
 10
-0.5928341882464503
 20
-8.366661000625406
 30
0.0
 10
-0.5521828485533444
 20
-8.352478201167967
 30
0.0
 10
-0.5116686758806073
 20
-8.351312174791397
 30
0.0
 10
-0.4379439050061531
 20
-8.356467512979462
 30
0.0
 10
-0.14604061099828392
 20
-8.366661000624799
 30
0.0
 10
0.14604061099825394
 20
-8.3666610006244
 30
0.0
 10
0.43794390500595815
 20
-8.356467512973472
 30
0.0
 10
0.5116686758744493
 20
-8.35131217479342
 30
0.0
 10
0.5521828485576054
 20
-8.352478201166738
 30
0.0
 10
0.5928341882464153
 20
-8.366661000625408
 30
0.0
 10
0.632763250795954
 20
-8.393857430762413
 30
0.0
 10
0.6711114720447394
 20
-8.434020219767465
 30
0.0
 10
0.7070232006017161
 20
-8.487058041244364
 30
0.0
 10
0.7396477258822362
 20
-8.552835677128968
 30
0.0
 10
0.7681412977215106
 20
-8.631174268446383
 30
0.0
 10
0.7916691339070459
 20
-8.721851653497001
 30
0.0
 10
0.8094074119908075
 20
-8.824602792912941
 30
0.0
 10
0.8205452417667849
 20
-8.939120280878852
 30
0.0
 10
0.8242866148304935
 20
-9.065054941664744
 30
0.0
 10
0.8198523276736017
 20
-9.202016510473689
 30
0.0
 10
0.815214717949005
 20
-9.246564700209786
 30
0.0
 10
0.8167818671420871
 20
-9.255401270259847
 30
0.0
 10
0.825054713343437
 20
-9.294133328034444
 30
0.0
 10
0.8374089922119449
 20
-9.34347544269398
 30
0.0
 10
0.8545920223948227
 20
-9.403176616159463
 30
0.0
 10
0.8773381142052732
 20
-9.472946739084625
 30
0.0
 10
0.906366750843709
 20
-9.552457212290982
 30
0.0
 10
0.9423808077762835
 20
-9.641341632644824
 30
0.0
 10
0.9860647937902762
 20
-9.739196587265116
 30
0.0
 10
1.0380831279373819
 20
-9.845582486733093
 30
0.0
 10
1.0990784580071788
 20
-9.960024499430187
 30
0.0
 10
1.1696700167197212
 20
-10.08201354901552
 30
0.0
 10
1.2504520223064426
 20
-10.21100738501363
 30
0.0
 10
1.3419921257999121
 20
-10.34643172303584
 30
0.0
 10
1.4419982243088625
 20
-10.483792079143914
 30
0.0
 10
1.5061643637734146
 20
-10.475603249445117
 30
0.0
 10
1.8377753171028401
 20
-10.422541744427507
 30
0.0
 10
2.1675357864694766
 20
-10.358985623354261
 30
0.0
 10
2.230632978935887
 20
-10.344734493978773
 30
0.0
 10
2.2776279630550005
 20
-10.181453880809975
 30
0.0
 10
2.3173296713136344
 20
-10.02288807037888
 30
0.0
 10
2.3491214355795753
 20
-9.874044441435604
 30
0.0
 10
2.373733090168176
 20
-9.73526849669522
 30
0.0
 10
2.3919084781520352
 20
-9.60686655032315
 30
0.0
 10
2.4044036023127244
 20
-9.489105187527946
 30
0.0
 10
2.411984756011552
 20
-9.382210805616054
 30
0.0
 10
2.415426637429129
 20
-9.286369237039068
 30
0.0
 10
2.4155104506065537
 20
-9.201725455344885
 30
0.0
 10
2.4130219967802247
 20
-9.128383364133935
 30
0.0
 10
2.4087497595086753
 20
-9.066405669532411
 30
0.0
 10
2.4034829870686987
 20
-9.015813836263577
 30
0.0
 10
2.3980097756457726
 20
-8.976588127341826
 30
0.0
 10
2.396460129227789
 20
-8.96774847109041
 30
0.0
 10
2.3768658233483384
 20
-8.927473021859033
 30
0.0
 10
2.3258553410344067
 20
-8.800287861846956
 30
0.0
 10
2.2862988909623363
 20
-8.68066836545378
 30
0.0
 10
2.2575977397670095
 20
-8.56924776492496
 30
0.0
 10
2.2391233093578524
 20
-8.466626429025904
 30
0.0
 10
2.2302187651052146
 20
-8.373370561537293
 30
0.0
 10
2.2302005611278766
 20
-8.29001099703988
 30
0.0
 10
2.238360314953134
 20
-8.21704199171948
 30
0.0
 10
2.253966306641365
 20
-8.154920205883549
 30
0.0
 10
2.276265364048002
 20
-8.104063665344768
 30
0.0
 10
2.304484682546395
 20
-8.064850836937346
 30
0.0
 10
2.337833643377876
 20
-8.03761978791689
 30
0.0
 10
2.375505707967257
 20
-8.022667418390935
 30
0.0
 10
2.4465475606330873
 20
-8.002296494942781
 30
0.0
 10
2.724333310100828
 20
-7.912038433609369
 30
0.0
 10
2.9987998790809693
 20
-7.812140772199003
 30
0.0
 10
3.26961287233575
 20
-7.702725220619604
 30
0.0
 10
3.3371282659867685
 20
-7.672665430675059
 30
0.0
 10
3.3755979396017004
 20
-7.659904473905894
 30
0.0
 10
3.4186485066359498
 20
-7.659328368872544
 30
0.0
 10
3.465471279002055
 20
-7.671228109887955
 30
0.0
 10
3.5152433023816707
 20
-7.69585292221839
 30
0.0
 10
3.5671292920095388
 20
-7.733409637134663
 30
0.0
 10
3.620283594125163
 20
-7.784062151375792
 30
0.0
 10
3.673852169552675
 20
-7.847930972035201
 30
0.0
 10
3.726974595830692
 20
-7.925092847735111
 30
0.0
 10
3.7787860842813665
 20
-8.015580486809053
 30
0.0
 10
3.828419508380818
 20
-8.119382363065242
 30
0.0
 10
3.8750074397720526
 20
-8.236442609555437
 30
0.0
 10
3.91768418824642
 20
-8.366661000625413
 30
0.0
 10
3.9285626388485704
 20
-8.41010876173249
 30
0.0
 10
3.93305756233601
 20
-8.41787642480996
 30
0.0
 10
3.9540786388156803
 20
-8.451443173645101
 30
0.0
 10
3.9825638606313953
 20
-8.49358418245535
 30
0.0
 10
4.019129631202362
 20
-8.543807992167206
 30
0.0
 10
4.064366753271074
 20
-8.601590840250196
 30
0.0
 10
4.118838932353618
 20
-8.666377866733779
 30
0.0
 10
4.183081338086561
 20
-8.737584367729298
 30
0.0
 10
4.257599222994784
 20
-8.814597143335785
 30
0.0
 10
4.342866588322264
 20
-8.89677586992096
 30
0.0
 10
4.4393249234763905
 20
-8.983454553227636
 30
0.0
 10
4.547382002511679
 20
-9.073943027911213
 30
0.0
 10
4.667410747330009
 20
-9.1675285105966
 30
0.0
 10
4.79974815858894
 20
-9.263477202394006
 30
0.0
 10
4.940703160074738
 20
-9.358349615271814
 30
0.0
 10
4.998198863126645
 20
-9.328708520214661
 30
0.0
 10
5.29166312539088
 20
-9.165429389715728
 30
0.0
 10
5.579799131442912
 20
-8.992921448741507
 30
0.0
 10
5.634216924284347
 20
-8.957949256818686
 30
0.0
 10
5.622532505356734
 20
-8.78844243830256
 30
0.0
 10
5.605607206429774
 20
-8.625860532382632
 30
0.0
 10
5.584574173407952
 20
-8.47511984884283
 30
0.0
 10
5.56023739509993
 20
-8.336295435997819
 30
0.0
 10
5.533400620966814
 20
-8.209420725694198
 30
0.0
 10
5.504865438754974
 20
-8.094487657905542
 30
0.0
 10
5.475429361120593
 20
-7.99144688874482
 30
0.0
 10
5.445883924669053
 20
-7.900208081212728
 30
0.0
 10
5.417012804946732
 20
-7.820640278364339
 30
0.0
 10
5.3895899507011915
 20
-7.752572357794741
 30
0.0
 10
5.3643777408722615
 20
-7.6957935667283035
 30
0.0
 10
5.342125167609343
 20
-7.650054136598333
 30
0.0
 10
5.323566048635749
 20
-7.6150659759347885
 30
0.0
 10
5.319086516833884
 20
-7.607289426475032
 30
0.0
 10
5.286898877270921
 20
-7.576144531338726
 30
0.0
 10
5.19546481680156
 20
-7.474076187474024
 30
0.0
 10
5.117381635263412
 20
-7.375199732134334
 30
0.0
 10
5.052303285514803
 20
-7.280314987859305
 30
0.0
 10
4.99984443557363
 20
-7.190201103116172
 30
0.0
 10
4.959581515883548
 20
-7.10561478609367
 30
0.0
 10
4.931053759543405
 20
-7.027288644590463
 30
0.0
 10
4.913764550342414
 20
-6.955929408571978
 30
0.0
 10
4.90718248347664
 20
-6.892216461317965
 30
0.0
 10
4.9107427818880165
 20
-6.8368002186447265
 30
0.0
 10
4.923848690052453
 20
-6.790300637792756
 30
0.0
 10
4.945872895167788
 20
-6.753305805608628
 30
0.0
 10
4.9761590447038735
 20
-6.726370569371589
 30
0.0
 10
5.035949283263502
 20
-6.682930418297878
 30
0.0
 10
5.266112427124269
 20
-6.503107262249643
 30
0.0
 10
5.489859624173863
 20
-6.31536107172786
 30
0.0
 10
5.706918272915081
 20
-6.119920586542026
 30
0.0
 10
5.760080936453226
 20
-6.068581999135552
 30
0.0
 10
5.791866100610058
 20
-6.04343321894193
 30
0.0
 10
5.832123361246714
 20
-6.028167696185989
 30
0.0
 10
5.88019232605151
 20
-6.023335463691872
 30
0.0
 10
5.935384910985541
 20
-6.029452183557115
 30
0.0
 10
5.996986945579528
 20
-6.046997897815779
 30
0.0
 10
6.064259831221161
 20
-6.0764158496444605
 30
0.0
 10
6.13644224945238
 20
-6.118111377270935
 30
0.0
 10
6.2127519172102375
 20
-6.172450882622725
 30
0.0
 10
6.292387385864542
 20
-6.239760876627033
 30
0.0
 10
6.374529880829749
 20
-6.320327102944466
 30
0.0
 10
6.458345178458087
 20
-6.414393741787006
 30
0.0
 10
6.5429855168559765
 20
-6.522162695336199
 30
0.0
 10
6.5680679260934225
 20
-6.559269586604078
 30
0.0
 10
6.574948469764629
 20
-6.5650314479033165
 30
0.0
 10
6.606182324461123
 20
-6.589384242497038
 30
0.0
 10
6.6473627510759705
 20
-6.619241317860427
 30
0.0
 10
6.698900890450869
 20
-6.653930031142918
 30
0.0
 10
6.761172778227538
 20
-6.692756140120915
 30
0.0
 10
6.834518351033092
 20
-6.735005448333127
 30
0.0
 10
6.91924052331808
 20
-6.779945475054233
 30
0.0
 10
7.015604350433749
 20
-6.826827194321255
 30
0.0
 10
7.12383624427082
 20
-6.87488678076862
 30
0.0
 10
7.244123285716277
 20
-6.9233474062369735
 30
0.0
 10
7.376612606590014
 20
-6.9714210605043
 30
0.0
 10
7.521410852579253
 20
-7.01831039949048
 30
0.0
 10
7.67858372671364
 20
-7.0632106167804345
 30
0.0
 10
7.84348637772283
 20
-7.104152073267223
 30
0.0
 10
7.887376814027829
 20
-7.05663386637158
 30
0.0
 10
8.10729826412658
 20
-6.802830983272813
 30
0.0
 10
8.319056352099578
 20
-6.542178226025165
 30
0.0
 10
8.358231156378276
 20
-6.490703134035487
 30
0.0
 10
8.289276647770263
 20
-6.335415134139288
 30
0.0
 10
8.217765782499107
 20
-6.188426910037849
 30
0.0
 10
8.146444846386462
 20
-6.05397072303197
 30
0.0
 10
8.076095009818362
 20
-5.931842115101574
 30
0.0
 10
8.007482984597324
 20
-5.821797603400318
 30
0.0
 10
7.9413592601221445
 20
-5.7235554548249485
 30
0.0
 10
7.878456376547498
 20
-5.63679653589597
 30
0.0
 10
7.819487237907097
 20
-5.5611652361385335
 30
0.0
 10
7.765143468415889
 20
-5.496270463455153
 30
0.0
 10
7.716093814691374
 20
-5.441686709323121
 30
0.0
 10
7.672982596903021
 20
-5.396955181960092
 30
0.0
 10
7.636428211565672
 20
-5.361585005284756
 30
0.0
 10
7.6070216886930515
 20
-5.335054481425696
 30
0.0
 10
7.600152569153457
 20
-5.329279005392093
 30
0.0
 10
7.559253900277242
 20
-5.311021198353994
 30
0.0
 10
7.438424558768073
 20
-5.246380619275074
 30
0.0
 10
7.331232629842374
 20
-5.180173164763902
 30
0.0
 10
7.237626490974317
 20
-5.113268777251916
 30
0.0
 10
7.157510533014201
 20
-5.046531408104022
 30
0.0
 10
7.09074554021871
 20
-4.980816999741631
 30
0.0
 10
7.037149099955226
 20
-4.91697156986865
 30
0.0
 10
6.996496261519178
 20
-4.855829080166071
 30
0.0
 10
6.968520030504371
 20
-4.798209693235763
 30
0.0
 10
6.952912145387667
 20
-4.744917765151099
 30
0.0
 10
6.949323877270911
 20
-4.696739967566051
 30
0.0
 10
6.957366882490542
 20
-4.654443474965232
 30
0.0
 10
6.976614160363318
 20
-4.618774159029047
 30
0.0
 10
7.0179411996365095
 20
-4.557504303657615
 30
0.0
 10
7.1727206658944676
 20
-4.30980537942111
 30
0.0
 10
7.318761276892392
 20
-4.056855621203507
 30
0.0
 10
7.455885104637377
 20
-3.7989632093190138
 30
0.0
 10
7.488282836242598
 20
-3.7325380157686867
 30
0.0
 10
7.509549731044952
 20
-3.698034726198424
 30
0.0
 10
7.542158065517345
 20
-3.669921033059378
 30
0.0
 10
7.585675396183008
 20
-3.648939665610682
 30
0.0
 10
7.639631502372612
 20
-3.635810526321814
 30
0.0
 10
7.703519467411478
 20
-3.6312289678361105
 30
0.0
 10
7.776796833728688
 20
-3.6358641180990743
 30
0.0
 10
7.8588868298258925
 20
-3.650357256700413
 30
0.0
 10
7.949179666921241
 20
-3.6753202453929705
 30
0.0
 10
8.047033902965122
 20
-3.7113340156610097
 30
0.0
 10
8.151777871609166
 20
-3.7589471161149417
 30
0.0
 10
8.262711173598582
 20
-3.8186743223896813
 30
0.0
 10
8.379106227950851
 20
-3.8909953121196974
 30
0.0
 10
8.415367287092621
 20
-3.9172856948220844
 30
0.0
 10
8.423803555834837
 20
-3.920346788834386
 30
0.0
 10
8.46148292490916
 20
-3.932548322749713
 30
0.0
 10
8.510391589115017
 20
-3.9465202607339167
 30
0.0
 10
8.570685837063307
 20
-3.961489906814291
 30
0.0
 10
8.642481581846884
 20
-3.976676274932208
 30
0.0
 10
8.725853989829728
 20
-3.9912919747692737
 30
0.0
 10
8.820837184323096
 20
-4.004545096749245
 30
0.0
 10
8.927424053917441
 20
-4.01564113243271
 30
0.0
 10
9.04556611253472
 20
-4.023784883332757
 30
0.0
 10
9.175173467825521
 20
-4.028182384328644
 30
0.0
 10
9.31611486310621
 20
-4.028042825983507
 30
0.0
 10
9.468217804805539
 20
-4.022580474975805
 30
0.0
 10
9.631268773570199
 20
-4.011016588896508
 30
0.0
 10
9.800229380687142
 20
-3.993088945108425
 30
0.0
 10
9.825220715872995
 20
-3.9334250234199497
 30
0.0
  0
LWPOLYLINE
  8
OpenJsCad
  90
181
  70
1
 10
0.11080590203044056
 20
-3.1730658757856287
 30
0.0
 10
0
 20
-3.175
 30
0.0
 10
-0.11080590203043993
 20
-3.1730658757856287
 30
0.0
 10
-0.22147680413759593
 20
-3.1672658595749414
 30
0.0
 10
-0.33187787087479975
 20
-3.1576070177942674
 30
0.0
 10
-0.44187459554820896
 20
-3.144101118254486
 30
0.0
 10
-0.5513329640925069
 20
-3.12676461581376
 30
0.0
 10
-0.6601196183463878
 20
-3.1056186323298327
 30
0.0
 10
-0.7681020185289457
 20
-3.080688930926289
 30
0.0
 10
-0.875148604718974
 20
-3.052005884604162
 30
0.0
 10
-0.9811289571404584
 20
-3.0196044392371117
 30
0.0
 10
-1.0859139550589976
 20
-2.983524070995259
 30
0.0
 10
-1.189375934095522
 20
-2.9438087382495493
 30
0.0
 10
-1.2913888417656656
 20
-2.9005068280152577
 30
0.0
 10
-1.3918283910553195
 20
-2.853671096999856
 30
0.0
 10
-1.4905722118452032
 20
-2.803358607327093
 30
0.0
 10
-1.5875000000000017
 20
-2.7496306570155915
 30
0.0
 10
-1.6824936639404282
 20
-2.6925527052966505
 30
0.0
 10
-1.7754374685196228
 20
-2.6321942928622564
 30
0.0
 10
-1.8662181760286025
 20
-2.5686289571404575
 30
0.0
 10
-1.954725184158967
 20
-2.501934142701341
 30
0.0
 10
-2.0408506607547627
 20
-2.4321911069027546
 30
0.0
 10
-2.1244896751893747
 20
-2.359484820890727
 30
0.0
 10
-2.2055403262073177
 20
-2.2839038660752164
 30
0.0
 10
-2.283903866075219
 20
-2.2055403262073145
 30
0.0
 10
-2.3594848208907275
 20
-2.124489675189374
 30
0.0
 10
-2.4321911069027555
 20
-2.040850660754762
 30
0.0
 10
-2.5019341427013413
 20
-1.9547251841589657
 30
0.0
 10
-2.5686289571404584
 20
-1.8662181760286014
 30
0.0
 10
-2.6321942928622586
 20
-1.7754374685196195
 30
0.0
 10
-2.6925527052966527
 20
-1.6824936639404247
 30
0.0
 10
-2.749630657015593
 20
-1.5875000000000004
 30
0.0
 10
-2.803358607327093
 20
-1.4905722118452023
 30
0.0
 10
-2.853671096999855
 20
-1.3918283910553206
 30
0.0
 10
-2.900506828015257
 20
-1.291388841765667
 30
0.0
 10
-2.9438087382495497
 20
-1.1893759340955206
 30
0.0
 10
-2.9835240709952595
 20
-1.0859139550589962
 30
0.0
 10
-3.019604439237112
 20
-0.9811289571404576
 30
0.0
 10
-3.052005884604162
 20
-0.8751486047189732
 30
0.0
 10
-3.080688930926289
 20
-0.768102018528944
 30
0.0
 10
-3.105618632329833
 20
-0.6601196183463834
 30
0.0
 10
-3.12676461581376
 20
-0.5513329640925025
 30
0.0
 10
-3.144101118254486
 20
-0.44187459554820774
 30
0.0
 10
-3.1576070177942674
 20
-0.3318778708747983
 30
0.0
 10
-3.1672658595749414
 20
-0.22147680413759757
 30
0.0
 10
-3.1730658757856287
 20
-0.11080590203044156
 30
0.0
 10
-3.175
 20
5.832380372807017e-16
 30
0.0
 10
-3.1730658757856287
 20
0.1108059020304431
 30
0.0
 10
-3.1672658595749414
 20
0.22147680413759907
 30
0.0
 10
-3.1576070177942674
 20
0.33187787087479975
 30
0.0
 10
-3.1441011182544862
 20
0.4418745955482065
 30
0.0
 10
-3.12676461581376
 20
0.5513329640925038
 30
0.0
 10
-3.1056186323298327
 20
0.6601196183463878
 30
0.0
 10
-3.080688930926289
 20
0.7681020185289457
 30
0.0
 10
-3.0520058846041622
 20
0.8751486047189717
 30
0.0
 10
-3.0196044392371117
 20
0.9811289571404584
 30
0.0
 10
-2.983524070995258
 20
1.0859139550590005
 30
0.0
 10
-2.9438087382495493
 20
1.189375934095522
 30
0.0
 10
-2.9005068280152577
 20
1.2913888417656656
 30
0.0
 10
-2.8536710969998547
 20
1.391828391055322
 30
0.0
 10
-2.803358607327093
 20
1.4905722118452032
 30
0.0
 10
-2.7496306570155915
 20
1.5875000000000017
 30
0.0
 10
-2.692552705296652
 20
1.6824936639404262
 30
0.0
 10
-2.6321942928622564
 20
1.7754374685196228
 30
0.0
 10
-2.5686289571404575
 20
1.8662181760286025
 30
0.0
 10
-2.5019341427013426
 20
1.9547251841589643
 30
0.0
 10
-2.4321911069027546
 20
2.0408506607547627
 30
0.0
 10
-2.3594848208907258
 20
2.1244896751893756
 30
0.0
 10
-2.2839038660752164
 20
2.205540326207317
 30
0.0
 10
-2.2055403262073168
 20
2.283903866075217
 30
0.0
 10
-2.1244896751893747
 20
2.3594848208907266
 30
0.0
 10
-2.040850660754762
 20
2.432191106902755
 30
0.0
 10
-1.954725184158964
 20
2.501934142701343
 30
0.0
 10
-1.8662181760286018
 20
2.568628957140458
 30
0.0
 10
-1.775437468519621
 20
2.6321942928622577
 30
0.0
 10
-1.682493663940425
 20
2.6925527052966527
 30
0.0
 10
-1.5875000000000006
 20
2.7496306570155924
 30
0.0
 10
-1.4905722118452036
 20
2.803358607327093
 30
0.0
 10
-1.3918283910553195
 20
2.853671096999856
 30
0.0
 10
-1.2913888417656643
 20
2.9005068280152577
 30
0.0
 10
-1.1893759340955208
 20
2.9438087382495497
 30
0.0
 10
-1.085913955058998
 20
2.9835240709952586
 30
0.0
 10
-0.981128957140459
 20
3.0196044392371117
 30
0.0
 10
-0.8751486047189717
 20
3.0520058846041622
 30
0.0
 10
-0.7681020185289443
 20
3.080688930926289
 30
0.0
 10
-0.6601196183463851
 20
3.105618632329833
 30
0.0
 10
-0.5513329640925041
 20
3.12676461581376
 30
0.0
 10
-0.4418745955482079
 20
3.144101118254486
 30
0.0
 10
-0.3318778708747984
 20
3.1576070177942674
 30
0.0
 10
-0.22147680413759632
 20
3.1672658595749414
 30
0.0
 10
-0.11080590203044033
 20
3.1730658757856287
 30
0.0
 10
3.8882535862485086e-16
 20
3.175
 30
0.0
 10
0.11080590203043932
 20
3.1730658757856287
 30
0.0
 10
0.22147680413759843
 20
3.1672658595749414
 30
0.0
 10
0.33187787087480036
 20
3.1576070177942674
 30
0.0
 10
0.44187459554820835
 20
3.144101118254486
 30
0.0
 10
0.5513329640925031
 20
3.12676461581376
 30
0.0
 10
0.6601196183463852
 20
3.105618632329833
 30
0.0
 10
0.768102018528945
 20
3.080688930926289
 30
0.0
 10
0.8751486047189735
 20
3.052005884604162
 30
0.0
 10
0.9811289571404579
 20
3.019604439237112
 30
0.0
 10
1.085913955058998
 20
2.9835240709952586
 30
0.0
 10
1.1893759340955214
 20
2.9438087382495497
 30
0.0
 10
1.291388841765666
 20
2.9005068280152573
 30
0.0
 10
1.39182839105532
 20
2.8536710969998555
 30
0.0
 10
1.4905722118452038
 20
2.8033586073270924
 30
0.0
 10
1.5874999999999995
 20
2.7496306570155933
 30
0.0
 10
1.6824936639404255
 20
2.6925527052966522
 30
0.0
 10
1.7754374685196213
 20
2.6321942928622573
 30
0.0
 10
1.8662181760286025
 20
2.5686289571404575
 30
0.0
 10
1.9547251841589652
 20
2.5019341427013417
 30
0.0
 10
2.0408506607547627
 20
2.4321911069027546
 30
0.0
 10
2.1244896751893756
 20
2.3594848208907258
 30
0.0
 10
2.2055403262073163
 20
2.283903866075217
 30
0.0
 10
2.2839038660752182
 20
2.205540326207316
 30
0.0
 10
2.3594848208907266
 20
2.1244896751893747
 30
0.0
 10
2.432191106902755
 20
2.040850660754762
 30
0.0
 10
2.501934142701342
 20
1.954725184158965
 30
0.0
 10
2.568628957140458
 20
1.8662181760286018
 30
0.0
 10
2.6321942928622577
 20
1.775437468519621
 30
0.0
 10
2.6925527052966527
 20
1.682493663940425
 30
0.0
 10
2.7496306570155933
 20
1.587499999999999
 30
0.0
 10
2.803358607327093
 20
1.4905722118452025
 30
0.0
 10
2.853671096999855
 20
1.3918283910553209
 30
0.0
 10
2.9005068280152577
 20
1.2913888417656652
 30
0.0
 10
2.9438087382495497
 20
1.1893759340955208
 30
0.0
 10
2.9835240709952586
 20
1.085913955058998
 30
0.0
 10
3.019604439237112
 20
0.9811289571404579
 30
0.0
 10
3.0520058846041622
 20
0.8751486047189719
 30
0.0
 10
3.080688930926289
 20
0.7681020185289452
 30
0.0
 10
3.105618632329833
 20
0.6601196183463852
 30
0.0
 10
3.12676461581376
 20
0.5513329640925037
 30
0.0
 10
3.144101118254486
 20
0.44187459554820746
 30
0.0
 10
3.1576070177942674
 20
0.33187787087479936
 30
0.0
 10
3.1672658595749414
 20
0.22147680413759796
 30
0.0
 10
3.1730658757856287
 20
0.11080590203043982
 30
0.0
 10
3.175
 20
0
 30
0.0
 10
3.1730658757856287
 20
-0.11080590203044056
 30
0.0
 10
3.1672658595749414
 20
-0.22147680413759843
 30
0.0
 10
3.1576070177942674
 20
-0.33187787087479975
 30
0.0
 10
3.144101118254486
 20
-0.44187459554820835
 30
0.0
 10
3.12676461581376
 20
-0.5513329640925038
 30
0.0
 10
3.1056186323298327
 20
-0.6601196183463859
 30
0.0
 10
3.080688930926289
 20
-0.7681020185289457
 30
0.0
 10
3.0520058846041622
 20
-0.8751486047189723
 30
0.0
 10
3.019604439237112
 20
-0.9811289571404579
 30
0.0
 10
2.9835240709952586
 20
-1.085913955058998
 30
0.0
 10
2.94380873824955
 20
-1.1893759340955203
 30
0.0
 10
2.9005068280152577
 20
-1.2913888417656656
 30
0.0
 10
2.853671096999855
 20
-1.3918283910553206
 30
0.0
 10
2.803358607327093
 20
-1.4905722118452032
 30
0.0
 10
2.749630657015593
 20
-1.5875
 30
0.0
 10
2.6925527052966522
 20
-1.6824936639404255
 30
0.0
 10
2.6321942928622573
 20
-1.7754374685196213
 30
0.0
 10
2.568628957140458
 20
-1.866218176028602
 30
0.0
 10
2.501934142701342
 20
-1.954725184158965
 30
0.0
 10
2.432191106902755
 20
-2.040850660754762
 30
0.0
 10
2.3594848208907266
 20
-2.1244896751893747
 30
0.0
 10
2.283903866075217
 20
-2.2055403262073168
 30
0.0
 10
2.2055403262073163
 20
-2.283903866075217
 30
0.0
 10
2.1244896751893747
 20
-2.3594848208907266
 30
0.0
 10
2.040850660754762
 20
-2.432191106902755
 30
0.0
 10
1.954725184158965
 20
-2.501934142701342
 30
0.0
 10
1.866218176028602
 20
-2.568628957140458
 30
0.0
 10
1.7754374685196213
 20
-2.6321942928622573
 30
0.0
 10
1.6824936639404255
 20
-2.6925527052966522
 30
0.0
 10
1.5875
 20
-2.749630657015593
 30
0.0
 10
1.4905722118452032
 20
-2.803358607327093
 30
0.0
 10
1.3918283910553206
 20
-2.853671096999855
 30
0.0
 10
1.2913888417656656
 20
-2.9005068280152577
 30
0.0
 10
1.1893759340955208
 20
-2.9438087382495497
 30
0.0
 10
1.085913955058998
 20
-2.9835240709952586
 30
0.0
 10
0.9811289571404579
 20
-3.019604439237112
 30
0.0
 10
0.8751486047189723
 20
-3.0520058846041622
 30
0.0
 10
0.768102018528945
 20
-3.080688930926289
 30
0.0
 10
0.6601196183463859
 20
-3.1056186323298327
 30
0.0
 10
0.5513329640925038
 20
-3.12676461581376
 30
0.0
 10
0.44187459554820774
 20
-3.144101118254486
 30
0.0
 10
0.33187787087479975
 20
-3.1576070177942674
 30
0.0
 10
0.22147680413759782
 20
-3.1672658595749414
 30
0.0
 10
0.11080590203044056
 20
-3.1730658757856287
 30
0.0
  0
ENDSEC
  0
EOF
